ISO-10303-21;
HEADER;
/* Generated by software containing ST-Developer
 * from STEP Tools, Inc. (www.steptools.com) 
 */
/* OPTION: using custom renumber hook */

FILE_DESCRIPTION(
/* description */ ('STEP AP242 Edition 2',
'CAx-IF Rec.Pracs.---Representation and Presentation of Product Manufa
cturing Information (PMI)---4.0---2014-10-13',
'CAx-IF Rec.Pracs.---3D Tessellated Geometry---0.4---2014-09-14','2;1',
'CAx-IF Rec.Pracs.---User Defined Attributes---1.5---2016-08-15'),
/* implementation_level */ '2;1');

FILE_NAME(
/* name */ 'Part Studio 1 - Part 1',
/* time_stamp */ '2026-05-31T13:07:52Z',
/* author */ (''),
/* organization */ (''),
/* preprocessor_version */ 'ST-DEVELOPER v20',
/* originating_system */ 'ONSHAPE BY PTC INC, 1.215',
/* authorisation */ '  ');

FILE_SCHEMA (('AP242_MANAGED_MODEL_BASED_3D_ENGINEERING_MIM_LF { 1 0 10303 442 3 1 4 }'));
ENDSEC;

DATA;
#10=SHAPE_REPRESENTATION_RELATIONSHIP('','',#1069,#11);
#11=ADVANCED_BREP_SHAPE_REPRESENTATION('',(#1067),#1821);
#12=CIRCLE('',#1073,0.0018);
#13=CIRCLE('',#1074,0.0018);
#14=CIRCLE('',#1076,0.0018);
#15=CIRCLE('',#1077,0.0018);
#16=CIRCLE('',#1079,0.0018);
#17=CIRCLE('',#1080,0.0018);
#18=CIRCLE('',#1082,0.0018);
#19=CIRCLE('',#1083,0.0018);
#20=CIRCLE('',#1085,0.0018);
#21=CIRCLE('',#1086,0.0018);
#22=CIRCLE('',#1088,0.0018);
#23=CIRCLE('',#1089,0.0018);
#24=CIRCLE('',#1091,0.0018);
#25=CIRCLE('',#1092,0.0018);
#26=CIRCLE('',#1094,0.0018);
#27=CIRCLE('',#1095,0.0018);
#28=CIRCLE('',#1097,0.0018);
#29=CIRCLE('',#1098,0.0018);
#30=CIRCLE('',#1100,0.0018);
#31=CIRCLE('',#1101,0.0018);
#32=CIRCLE('',#1103,0.0018);
#33=CIRCLE('',#1104,0.0018);
#34=CIRCLE('',#1106,0.0018);
#35=CIRCLE('',#1107,0.0018);
#36=CIRCLE('',#1109,0.0018);
#37=CIRCLE('',#1110,0.0018);
#38=CIRCLE('',#1112,0.0018);
#39=CIRCLE('',#1113,0.0018);
#40=CIRCLE('',#1115,0.0018);
#41=CIRCLE('',#1116,0.0018);
#42=CIRCLE('',#1118,0.0018);
#43=CIRCLE('',#1119,0.0018);
#44=CIRCLE('',#1121,0.0018);
#45=CIRCLE('',#1122,0.0018);
#46=CIRCLE('',#1124,0.0018);
#47=CIRCLE('',#1125,0.0018);
#48=CIRCLE('',#1128,0.001);
#49=CIRCLE('',#1129,0.001);
#50=CIRCLE('',#1130,0.001);
#51=CIRCLE('',#1131,0.001);
#52=CIRCLE('',#1132,0.001);
#53=CIRCLE('',#1133,0.001);
#54=CIRCLE('',#1134,0.001);
#55=CIRCLE('',#1135,0.001);
#56=CIRCLE('',#1136,0.001);
#57=CIRCLE('',#1137,0.001);
#58=CIRCLE('',#1138,0.001);
#59=CIRCLE('',#1139,0.001);
#60=CIRCLE('',#1140,0.001);
#61=CIRCLE('',#1141,0.001);
#62=CIRCLE('',#1142,0.001);
#63=CIRCLE('',#1143,0.001);
#64=CIRCLE('',#1144,0.001);
#65=CIRCLE('',#1145,0.001);
#66=CIRCLE('',#1147,0.001);
#67=CIRCLE('',#1150,0.001);
#68=CIRCLE('',#1153,0.001);
#69=CIRCLE('',#1156,0.001);
#70=CIRCLE('',#1159,0.001);
#71=CIRCLE('',#1162,0.001);
#72=CIRCLE('',#1165,0.001);
#73=CIRCLE('',#1168,0.001);
#74=CIRCLE('',#1171,0.001);
#75=CIRCLE('',#1174,0.001);
#76=CIRCLE('',#1177,0.001);
#77=CIRCLE('',#1180,0.001);
#78=CIRCLE('',#1183,0.001);
#79=CIRCLE('',#1186,0.001);
#80=CIRCLE('',#1189,0.001);
#81=CIRCLE('',#1192,0.001);
#82=CIRCLE('',#1195,0.001);
#83=CIRCLE('',#1198,0.001);
#84=CYLINDRICAL_SURFACE('',#1072,0.0018);
#85=CYLINDRICAL_SURFACE('',#1075,0.0018);
#86=CYLINDRICAL_SURFACE('',#1078,0.0018);
#87=CYLINDRICAL_SURFACE('',#1081,0.0018);
#88=CYLINDRICAL_SURFACE('',#1084,0.0018);
#89=CYLINDRICAL_SURFACE('',#1087,0.0018);
#90=CYLINDRICAL_SURFACE('',#1090,0.0018);
#91=CYLINDRICAL_SURFACE('',#1093,0.0018);
#92=CYLINDRICAL_SURFACE('',#1096,0.0018);
#93=CYLINDRICAL_SURFACE('',#1099,0.0018);
#94=CYLINDRICAL_SURFACE('',#1102,0.0018);
#95=CYLINDRICAL_SURFACE('',#1105,0.0018);
#96=CYLINDRICAL_SURFACE('',#1108,0.0018);
#97=CYLINDRICAL_SURFACE('',#1111,0.0018);
#98=CYLINDRICAL_SURFACE('',#1114,0.0018);
#99=CYLINDRICAL_SURFACE('',#1117,0.0018);
#100=CYLINDRICAL_SURFACE('',#1120,0.0018);
#101=CYLINDRICAL_SURFACE('',#1123,0.0018);
#102=CYLINDRICAL_SURFACE('',#1146,0.001);
#103=CYLINDRICAL_SURFACE('',#1149,0.001);
#104=CYLINDRICAL_SURFACE('',#1152,0.001);
#105=CYLINDRICAL_SURFACE('',#1155,0.001);
#106=CYLINDRICAL_SURFACE('',#1158,0.001);
#107=CYLINDRICAL_SURFACE('',#1161,0.001);
#108=CYLINDRICAL_SURFACE('',#1164,0.001);
#109=CYLINDRICAL_SURFACE('',#1167,0.001);
#110=CYLINDRICAL_SURFACE('',#1170,0.001);
#111=CYLINDRICAL_SURFACE('',#1173,0.001);
#112=CYLINDRICAL_SURFACE('',#1176,0.001);
#113=CYLINDRICAL_SURFACE('',#1179,0.001);
#114=CYLINDRICAL_SURFACE('',#1182,0.001);
#115=CYLINDRICAL_SURFACE('',#1185,0.001);
#116=CYLINDRICAL_SURFACE('',#1188,0.001);
#117=CYLINDRICAL_SURFACE('',#1191,0.001);
#118=CYLINDRICAL_SURFACE('',#1194,0.001);
#119=CYLINDRICAL_SURFACE('',#1197,0.001);
#120=ORIENTED_EDGE('',*,*,#344,.F.);
#121=ORIENTED_EDGE('',*,*,#345,.T.);
#122=ORIENTED_EDGE('',*,*,#346,.T.);
#123=ORIENTED_EDGE('',*,*,#347,.F.);
#124=ORIENTED_EDGE('',*,*,#348,.F.);
#125=ORIENTED_EDGE('',*,*,#349,.T.);
#126=ORIENTED_EDGE('',*,*,#350,.F.);
#127=ORIENTED_EDGE('',*,*,#351,.T.);
#128=ORIENTED_EDGE('',*,*,#352,.F.);
#129=ORIENTED_EDGE('',*,*,#353,.T.);
#130=ORIENTED_EDGE('',*,*,#354,.F.);
#131=ORIENTED_EDGE('',*,*,#355,.T.);
#132=ORIENTED_EDGE('',*,*,#356,.F.);
#133=ORIENTED_EDGE('',*,*,#357,.T.);
#134=ORIENTED_EDGE('',*,*,#358,.F.);
#135=ORIENTED_EDGE('',*,*,#359,.T.);
#136=ORIENTED_EDGE('',*,*,#360,.F.);
#137=ORIENTED_EDGE('',*,*,#361,.T.);
#138=ORIENTED_EDGE('',*,*,#362,.F.);
#139=ORIENTED_EDGE('',*,*,#363,.T.);
#140=ORIENTED_EDGE('',*,*,#364,.F.);
#141=ORIENTED_EDGE('',*,*,#365,.T.);
#142=ORIENTED_EDGE('',*,*,#366,.F.);
#143=ORIENTED_EDGE('',*,*,#367,.T.);
#144=ORIENTED_EDGE('',*,*,#368,.F.);
#145=ORIENTED_EDGE('',*,*,#369,.T.);
#146=ORIENTED_EDGE('',*,*,#370,.F.);
#147=ORIENTED_EDGE('',*,*,#371,.T.);
#148=ORIENTED_EDGE('',*,*,#372,.F.);
#149=ORIENTED_EDGE('',*,*,#373,.T.);
#150=ORIENTED_EDGE('',*,*,#374,.F.);
#151=ORIENTED_EDGE('',*,*,#375,.T.);
#152=ORIENTED_EDGE('',*,*,#376,.F.);
#153=ORIENTED_EDGE('',*,*,#377,.T.);
#154=ORIENTED_EDGE('',*,*,#378,.F.);
#155=ORIENTED_EDGE('',*,*,#379,.T.);
#156=ORIENTED_EDGE('',*,*,#380,.F.);
#157=ORIENTED_EDGE('',*,*,#381,.T.);
#158=ORIENTED_EDGE('',*,*,#382,.F.);
#159=ORIENTED_EDGE('',*,*,#383,.T.);
#160=ORIENTED_EDGE('',*,*,#384,.F.);
#161=ORIENTED_EDGE('',*,*,#385,.F.);
#162=ORIENTED_EDGE('',*,*,#386,.F.);
#163=ORIENTED_EDGE('',*,*,#345,.F.);
#164=ORIENTED_EDGE('',*,*,#387,.F.);
#165=ORIENTED_EDGE('',*,*,#388,.F.);
#166=ORIENTED_EDGE('',*,*,#381,.F.);
#167=ORIENTED_EDGE('',*,*,#379,.F.);
#168=ORIENTED_EDGE('',*,*,#377,.F.);
#169=ORIENTED_EDGE('',*,*,#375,.F.);
#170=ORIENTED_EDGE('',*,*,#373,.F.);
#171=ORIENTED_EDGE('',*,*,#371,.F.);
#172=ORIENTED_EDGE('',*,*,#369,.F.);
#173=ORIENTED_EDGE('',*,*,#367,.F.);
#174=ORIENTED_EDGE('',*,*,#365,.F.);
#175=ORIENTED_EDGE('',*,*,#363,.F.);
#176=ORIENTED_EDGE('',*,*,#361,.F.);
#177=ORIENTED_EDGE('',*,*,#359,.F.);
#178=ORIENTED_EDGE('',*,*,#357,.F.);
#179=ORIENTED_EDGE('',*,*,#355,.F.);
#180=ORIENTED_EDGE('',*,*,#353,.F.);
#181=ORIENTED_EDGE('',*,*,#351,.F.);
#182=ORIENTED_EDGE('',*,*,#349,.F.);
#183=ORIENTED_EDGE('',*,*,#383,.F.);
#184=ORIENTED_EDGE('',*,*,#389,.T.);
#185=ORIENTED_EDGE('',*,*,#347,.T.);
#186=ORIENTED_EDGE('',*,*,#390,.F.);
#187=ORIENTED_EDGE('',*,*,#391,.T.);
#188=ORIENTED_EDGE('',*,*,#392,.T.);
#189=ORIENTED_EDGE('',*,*,#393,.F.);
#190=ORIENTED_EDGE('',*,*,#394,.F.);
#191=ORIENTED_EDGE('',*,*,#395,.T.);
#192=ORIENTED_EDGE('',*,*,#396,.T.);
#193=ORIENTED_EDGE('',*,*,#397,.T.);
#194=ORIENTED_EDGE('',*,*,#398,.T.);
#195=ORIENTED_EDGE('',*,*,#399,.T.);
#196=ORIENTED_EDGE('',*,*,#400,.T.);
#197=ORIENTED_EDGE('',*,*,#401,.T.);
#198=ORIENTED_EDGE('',*,*,#402,.T.);
#199=ORIENTED_EDGE('',*,*,#403,.T.);
#200=ORIENTED_EDGE('',*,*,#404,.T.);
#201=ORIENTED_EDGE('',*,*,#405,.T.);
#202=ORIENTED_EDGE('',*,*,#406,.T.);
#203=ORIENTED_EDGE('',*,*,#407,.T.);
#204=ORIENTED_EDGE('',*,*,#408,.T.);
#205=ORIENTED_EDGE('',*,*,#409,.T.);
#206=ORIENTED_EDGE('',*,*,#410,.T.);
#207=ORIENTED_EDGE('',*,*,#411,.T.);
#208=ORIENTED_EDGE('',*,*,#412,.T.);
#209=ORIENTED_EDGE('',*,*,#413,.T.);
#210=ORIENTED_EDGE('',*,*,#414,.T.);
#211=ORIENTED_EDGE('',*,*,#396,.F.);
#212=ORIENTED_EDGE('',*,*,#414,.F.);
#213=ORIENTED_EDGE('',*,*,#382,.T.);
#214=ORIENTED_EDGE('',*,*,#415,.T.);
#215=ORIENTED_EDGE('',*,*,#397,.F.);
#216=ORIENTED_EDGE('',*,*,#415,.F.);
#217=ORIENTED_EDGE('',*,*,#380,.T.);
#218=ORIENTED_EDGE('',*,*,#416,.T.);
#219=ORIENTED_EDGE('',*,*,#398,.F.);
#220=ORIENTED_EDGE('',*,*,#416,.F.);
#221=ORIENTED_EDGE('',*,*,#378,.T.);
#222=ORIENTED_EDGE('',*,*,#417,.T.);
#223=ORIENTED_EDGE('',*,*,#399,.F.);
#224=ORIENTED_EDGE('',*,*,#417,.F.);
#225=ORIENTED_EDGE('',*,*,#376,.T.);
#226=ORIENTED_EDGE('',*,*,#418,.T.);
#227=ORIENTED_EDGE('',*,*,#400,.F.);
#228=ORIENTED_EDGE('',*,*,#418,.F.);
#229=ORIENTED_EDGE('',*,*,#374,.T.);
#230=ORIENTED_EDGE('',*,*,#419,.T.);
#231=ORIENTED_EDGE('',*,*,#401,.F.);
#232=ORIENTED_EDGE('',*,*,#419,.F.);
#233=ORIENTED_EDGE('',*,*,#372,.T.);
#234=ORIENTED_EDGE('',*,*,#420,.T.);
#235=ORIENTED_EDGE('',*,*,#402,.F.);
#236=ORIENTED_EDGE('',*,*,#420,.F.);
#237=ORIENTED_EDGE('',*,*,#370,.T.);
#238=ORIENTED_EDGE('',*,*,#421,.T.);
#239=ORIENTED_EDGE('',*,*,#403,.F.);
#240=ORIENTED_EDGE('',*,*,#421,.F.);
#241=ORIENTED_EDGE('',*,*,#368,.T.);
#242=ORIENTED_EDGE('',*,*,#422,.T.);
#243=ORIENTED_EDGE('',*,*,#404,.F.);
#244=ORIENTED_EDGE('',*,*,#422,.F.);
#245=ORIENTED_EDGE('',*,*,#366,.T.);
#246=ORIENTED_EDGE('',*,*,#423,.T.);
#247=ORIENTED_EDGE('',*,*,#405,.F.);
#248=ORIENTED_EDGE('',*,*,#423,.F.);
#249=ORIENTED_EDGE('',*,*,#364,.T.);
#250=ORIENTED_EDGE('',*,*,#424,.T.);
#251=ORIENTED_EDGE('',*,*,#406,.F.);
#252=ORIENTED_EDGE('',*,*,#424,.F.);
#253=ORIENTED_EDGE('',*,*,#362,.T.);
#254=ORIENTED_EDGE('',*,*,#425,.T.);
#255=ORIENTED_EDGE('',*,*,#407,.F.);
#256=ORIENTED_EDGE('',*,*,#425,.F.);
#257=ORIENTED_EDGE('',*,*,#360,.T.);
#258=ORIENTED_EDGE('',*,*,#426,.T.);
#259=ORIENTED_EDGE('',*,*,#408,.F.);
#260=ORIENTED_EDGE('',*,*,#426,.F.);
#261=ORIENTED_EDGE('',*,*,#358,.T.);
#262=ORIENTED_EDGE('',*,*,#427,.T.);
#263=ORIENTED_EDGE('',*,*,#409,.F.);
#264=ORIENTED_EDGE('',*,*,#427,.F.);
#265=ORIENTED_EDGE('',*,*,#356,.T.);
#266=ORIENTED_EDGE('',*,*,#428,.T.);
#267=ORIENTED_EDGE('',*,*,#410,.F.);
#268=ORIENTED_EDGE('',*,*,#428,.F.);
#269=ORIENTED_EDGE('',*,*,#354,.T.);
#270=ORIENTED_EDGE('',*,*,#429,.T.);
#271=ORIENTED_EDGE('',*,*,#411,.F.);
#272=ORIENTED_EDGE('',*,*,#429,.F.);
#273=ORIENTED_EDGE('',*,*,#352,.T.);
#274=ORIENTED_EDGE('',*,*,#430,.T.);
#275=ORIENTED_EDGE('',*,*,#412,.F.);
#276=ORIENTED_EDGE('',*,*,#430,.F.);
#277=ORIENTED_EDGE('',*,*,#350,.T.);
#278=ORIENTED_EDGE('',*,*,#431,.T.);
#279=ORIENTED_EDGE('',*,*,#413,.F.);
#280=ORIENTED_EDGE('',*,*,#431,.F.);
#281=ORIENTED_EDGE('',*,*,#348,.T.);
#282=ORIENTED_EDGE('',*,*,#432,.T.);
#283=ORIENTED_EDGE('',*,*,#384,.T.);
#284=ORIENTED_EDGE('',*,*,#433,.F.);
#285=ORIENTED_EDGE('',*,*,#434,.F.);
#286=ORIENTED_EDGE('',*,*,#435,.T.);
#287=ORIENTED_EDGE('',*,*,#385,.T.);
#288=ORIENTED_EDGE('',*,*,#432,.F.);
#289=ORIENTED_EDGE('',*,*,#436,.F.);
#290=ORIENTED_EDGE('',*,*,#437,.T.);
#291=ORIENTED_EDGE('',*,*,#387,.T.);
#292=ORIENTED_EDGE('',*,*,#438,.F.);
#293=ORIENTED_EDGE('',*,*,#439,.F.);
#294=ORIENTED_EDGE('',*,*,#440,.T.);
#295=ORIENTED_EDGE('',*,*,#386,.T.);
#296=ORIENTED_EDGE('',*,*,#435,.F.);
#297=ORIENTED_EDGE('',*,*,#441,.F.);
#298=ORIENTED_EDGE('',*,*,#433,.T.);
#299=ORIENTED_EDGE('',*,*,#388,.T.);
#300=ORIENTED_EDGE('',*,*,#437,.F.);
#301=ORIENTED_EDGE('',*,*,#442,.F.);
#302=ORIENTED_EDGE('',*,*,#389,.F.);
#303=ORIENTED_EDGE('',*,*,#443,.F.);
#304=ORIENTED_EDGE('',*,*,#444,.T.);
#305=ORIENTED_EDGE('',*,*,#438,.T.);
#306=ORIENTED_EDGE('',*,*,#344,.T.);
#307=ORIENTED_EDGE('',*,*,#395,.F.);
#308=ORIENTED_EDGE('',*,*,#445,.F.);
#309=ORIENTED_EDGE('',*,*,#446,.T.);
#310=ORIENTED_EDGE('',*,*,#443,.T.);
#311=ORIENTED_EDGE('',*,*,#394,.T.);
#312=ORIENTED_EDGE('',*,*,#447,.F.);
#313=ORIENTED_EDGE('',*,*,#448,.F.);
#314=ORIENTED_EDGE('',*,*,#445,.T.);
#315=ORIENTED_EDGE('',*,*,#393,.T.);
#316=ORIENTED_EDGE('',*,*,#449,.F.);
#317=ORIENTED_EDGE('',*,*,#450,.F.);
#318=ORIENTED_EDGE('',*,*,#447,.T.);
#319=ORIENTED_EDGE('',*,*,#392,.F.);
#320=ORIENTED_EDGE('',*,*,#451,.F.);
#321=ORIENTED_EDGE('',*,*,#452,.T.);
#322=ORIENTED_EDGE('',*,*,#449,.T.);
#323=ORIENTED_EDGE('',*,*,#391,.F.);
#324=ORIENTED_EDGE('',*,*,#453,.F.);
#325=ORIENTED_EDGE('',*,*,#454,.T.);
#326=ORIENTED_EDGE('',*,*,#451,.T.);
#327=ORIENTED_EDGE('',*,*,#390,.T.);
#328=ORIENTED_EDGE('',*,*,#346,.F.);
#329=ORIENTED_EDGE('',*,*,#440,.F.);
#330=ORIENTED_EDGE('',*,*,#455,.F.);
#331=ORIENTED_EDGE('',*,*,#453,.T.);
#332=ORIENTED_EDGE('',*,*,#434,.T.);
#333=ORIENTED_EDGE('',*,*,#442,.T.);
#334=ORIENTED_EDGE('',*,*,#439,.T.);
#335=ORIENTED_EDGE('',*,*,#444,.F.);
#336=ORIENTED_EDGE('',*,*,#446,.F.);
#337=ORIENTED_EDGE('',*,*,#448,.T.);
#338=ORIENTED_EDGE('',*,*,#450,.T.);
#339=ORIENTED_EDGE('',*,*,#452,.F.);
#340=ORIENTED_EDGE('',*,*,#454,.F.);
#341=ORIENTED_EDGE('',*,*,#455,.T.);
#342=ORIENTED_EDGE('',*,*,#441,.T.);
#343=ORIENTED_EDGE('',*,*,#436,.T.);
#344=EDGE_CURVE('',#456,#457,#554,.T.);
#345=EDGE_CURVE('',#456,#458,#555,.T.);
#346=EDGE_CURVE('',#458,#459,#556,.T.);
#347=EDGE_CURVE('',#457,#459,#557,.T.);
#348=EDGE_CURVE('',#460,#460,#12,.T.);
#349=EDGE_CURVE('',#461,#461,#13,.T.);
#350=EDGE_CURVE('',#462,#462,#14,.T.);
#351=EDGE_CURVE('',#463,#463,#15,.T.);
#352=EDGE_CURVE('',#464,#464,#16,.T.);
#353=EDGE_CURVE('',#465,#465,#17,.T.);
#354=EDGE_CURVE('',#466,#466,#18,.T.);
#355=EDGE_CURVE('',#467,#467,#19,.T.);
#356=EDGE_CURVE('',#468,#468,#20,.T.);
#357=EDGE_CURVE('',#469,#469,#21,.T.);
#358=EDGE_CURVE('',#470,#470,#22,.T.);
#359=EDGE_CURVE('',#471,#471,#23,.T.);
#360=EDGE_CURVE('',#472,#472,#24,.T.);
#361=EDGE_CURVE('',#473,#473,#25,.T.);
#362=EDGE_CURVE('',#474,#474,#26,.T.);
#363=EDGE_CURVE('',#475,#475,#27,.T.);
#364=EDGE_CURVE('',#476,#476,#28,.T.);
#365=EDGE_CURVE('',#477,#477,#29,.T.);
#366=EDGE_CURVE('',#478,#478,#30,.T.);
#367=EDGE_CURVE('',#479,#479,#31,.T.);
#368=EDGE_CURVE('',#480,#480,#32,.T.);
#369=EDGE_CURVE('',#481,#481,#33,.T.);
#370=EDGE_CURVE('',#482,#482,#34,.T.);
#371=EDGE_CURVE('',#483,#483,#35,.T.);
#372=EDGE_CURVE('',#484,#484,#36,.T.);
#373=EDGE_CURVE('',#485,#485,#37,.T.);
#374=EDGE_CURVE('',#486,#486,#38,.T.);
#375=EDGE_CURVE('',#487,#487,#39,.T.);
#376=EDGE_CURVE('',#488,#488,#40,.T.);
#377=EDGE_CURVE('',#489,#489,#41,.T.);
#378=EDGE_CURVE('',#490,#490,#42,.T.);
#379=EDGE_CURVE('',#491,#491,#43,.T.);
#380=EDGE_CURVE('',#492,#492,#44,.T.);
#381=EDGE_CURVE('',#493,#493,#45,.T.);
#382=EDGE_CURVE('',#494,#494,#46,.T.);
#383=EDGE_CURVE('',#495,#495,#47,.T.);
#384=EDGE_CURVE('',#496,#497,#558,.T.);
#385=EDGE_CURVE('',#498,#496,#559,.T.);
#386=EDGE_CURVE('',#458,#498,#560,.T.);
#387=EDGE_CURVE('',#499,#456,#561,.T.);
#388=EDGE_CURVE('',#497,#499,#562,.T.);
#389=EDGE_CURVE('',#500,#457,#563,.T.);
#390=EDGE_CURVE('',#501,#459,#564,.T.);
#391=EDGE_CURVE('',#501,#502,#565,.T.);
#392=EDGE_CURVE('',#502,#503,#566,.T.);
#393=EDGE_CURVE('',#504,#503,#567,.T.);
#394=EDGE_CURVE('',#505,#504,#568,.T.);
#395=EDGE_CURVE('',#505,#500,#569,.T.);
#396=EDGE_CURVE('',#506,#506,#48,.T.);
#397=EDGE_CURVE('',#507,#507,#49,.T.);
#398=EDGE_CURVE('',#508,#508,#50,.T.);
#399=EDGE_CURVE('',#509,#509,#51,.T.);
#400=EDGE_CURVE('',#510,#510,#52,.T.);
#401=EDGE_CURVE('',#511,#511,#53,.T.);
#402=EDGE_CURVE('',#512,#512,#54,.T.);
#403=EDGE_CURVE('',#513,#513,#55,.T.);
#404=EDGE_CURVE('',#514,#514,#56,.T.);
#405=EDGE_CURVE('',#515,#515,#57,.T.);
#406=EDGE_CURVE('',#516,#516,#58,.T.);
#407=EDGE_CURVE('',#517,#517,#59,.T.);
#408=EDGE_CURVE('',#518,#518,#60,.T.);
#409=EDGE_CURVE('',#519,#519,#61,.T.);
#410=EDGE_CURVE('',#520,#520,#62,.T.);
#411=EDGE_CURVE('',#521,#521,#63,.T.);
#412=EDGE_CURVE('',#522,#522,#64,.T.);
#413=EDGE_CURVE('',#523,#523,#65,.T.);
#414=EDGE_CURVE('',#524,#524,#66,.T.);
#415=EDGE_CURVE('',#525,#525,#67,.T.);
#416=EDGE_CURVE('',#526,#526,#68,.T.);
#417=EDGE_CURVE('',#527,#527,#69,.T.);
#418=EDGE_CURVE('',#528,#528,#70,.T.);
#419=EDGE_CURVE('',#529,#529,#71,.T.);
#420=EDGE_CURVE('',#530,#530,#72,.T.);
#421=EDGE_CURVE('',#531,#531,#73,.T.);
#422=EDGE_CURVE('',#532,#532,#74,.T.);
#423=EDGE_CURVE('',#533,#533,#75,.T.);
#424=EDGE_CURVE('',#534,#534,#76,.T.);
#425=EDGE_CURVE('',#535,#535,#77,.T.);
#426=EDGE_CURVE('',#536,#536,#78,.T.);
#427=EDGE_CURVE('',#537,#537,#79,.T.);
#428=EDGE_CURVE('',#538,#538,#80,.T.);
#429=EDGE_CURVE('',#539,#539,#81,.T.);
#430=EDGE_CURVE('',#540,#540,#82,.T.);
#431=EDGE_CURVE('',#541,#541,#83,.T.);
#432=EDGE_CURVE('',#542,#496,#570,.T.);
#433=EDGE_CURVE('',#543,#497,#571,.T.);
#434=EDGE_CURVE('',#542,#543,#572,.T.);
#435=EDGE_CURVE('',#544,#498,#573,.T.);
#436=EDGE_CURVE('',#544,#542,#574,.T.);
#437=EDGE_CURVE('',#545,#499,#575,.T.);
#438=EDGE_CURVE('',#546,#456,#576,.T.);
#439=EDGE_CURVE('',#545,#546,#577,.T.);
#440=EDGE_CURVE('',#547,#458,#578,.T.);
#441=EDGE_CURVE('',#547,#544,#579,.T.);
#442=EDGE_CURVE('',#543,#545,#580,.T.);
#443=EDGE_CURVE('',#548,#500,#581,.T.);
#444=EDGE_CURVE('',#548,#546,#582,.T.);
#445=EDGE_CURVE('',#549,#505,#583,.T.);
#446=EDGE_CURVE('',#549,#548,#584,.T.);
#447=EDGE_CURVE('',#550,#504,#585,.T.);
#448=EDGE_CURVE('',#549,#550,#586,.T.);
#449=EDGE_CURVE('',#551,#503,#587,.T.);
#450=EDGE_CURVE('',#550,#551,#588,.T.);
#451=EDGE_CURVE('',#552,#502,#589,.T.);
#452=EDGE_CURVE('',#552,#551,#590,.T.);
#453=EDGE_CURVE('',#553,#501,#591,.T.);
#454=EDGE_CURVE('',#553,#552,#592,.T.);
#455=EDGE_CURVE('',#553,#547,#593,.T.);
#456=VERTEX_POINT('',#1542);
#457=VERTEX_POINT('',#1543);
#458=VERTEX_POINT('',#1545);
#459=VERTEX_POINT('',#1547);
#460=VERTEX_POINT('',#1551);
#461=VERTEX_POINT('',#1553);
#462=VERTEX_POINT('',#1556);
#463=VERTEX_POINT('',#1558);
#464=VERTEX_POINT('',#1561);
#465=VERTEX_POINT('',#1563);
#466=VERTEX_POINT('',#1566);
#467=VERTEX_POINT('',#1568);
#468=VERTEX_POINT('',#1571);
#469=VERTEX_POINT('',#1573);
#470=VERTEX_POINT('',#1576);
#471=VERTEX_POINT('',#1578);
#472=VERTEX_POINT('',#1581);
#473=VERTEX_POINT('',#1583);
#474=VERTEX_POINT('',#1586);
#475=VERTEX_POINT('',#1588);
#476=VERTEX_POINT('',#1591);
#477=VERTEX_POINT('',#1593);
#478=VERTEX_POINT('',#1596);
#479=VERTEX_POINT('',#1598);
#480=VERTEX_POINT('',#1601);
#481=VERTEX_POINT('',#1603);
#482=VERTEX_POINT('',#1606);
#483=VERTEX_POINT('',#1608);
#484=VERTEX_POINT('',#1611);
#485=VERTEX_POINT('',#1613);
#486=VERTEX_POINT('',#1616);
#487=VERTEX_POINT('',#1618);
#488=VERTEX_POINT('',#1621);
#489=VERTEX_POINT('',#1623);
#490=VERTEX_POINT('',#1626);
#491=VERTEX_POINT('',#1628);
#492=VERTEX_POINT('',#1631);
#493=VERTEX_POINT('',#1633);
#494=VERTEX_POINT('',#1636);
#495=VERTEX_POINT('',#1638);
#496=VERTEX_POINT('',#1641);
#497=VERTEX_POINT('',#1642);
#498=VERTEX_POINT('',#1644);
#499=VERTEX_POINT('',#1647);
#500=VERTEX_POINT('',#1651);
#501=VERTEX_POINT('',#1653);
#502=VERTEX_POINT('',#1655);
#503=VERTEX_POINT('',#1657);
#504=VERTEX_POINT('',#1659);
#505=VERTEX_POINT('',#1661);
#506=VERTEX_POINT('',#1664);
#507=VERTEX_POINT('',#1666);
#508=VERTEX_POINT('',#1668);
#509=VERTEX_POINT('',#1670);
#510=VERTEX_POINT('',#1672);
#511=VERTEX_POINT('',#1674);
#512=VERTEX_POINT('',#1676);
#513=VERTEX_POINT('',#1678);
#514=VERTEX_POINT('',#1680);
#515=VERTEX_POINT('',#1682);
#516=VERTEX_POINT('',#1684);
#517=VERTEX_POINT('',#1686);
#518=VERTEX_POINT('',#1688);
#519=VERTEX_POINT('',#1690);
#520=VERTEX_POINT('',#1692);
#521=VERTEX_POINT('',#1694);
#522=VERTEX_POINT('',#1696);
#523=VERTEX_POINT('',#1698);
#524=VERTEX_POINT('',#1701);
#525=VERTEX_POINT('',#1705);
#526=VERTEX_POINT('',#1709);
#527=VERTEX_POINT('',#1713);
#528=VERTEX_POINT('',#1717);
#529=VERTEX_POINT('',#1721);
#530=VERTEX_POINT('',#1725);
#531=VERTEX_POINT('',#1729);
#532=VERTEX_POINT('',#1733);
#533=VERTEX_POINT('',#1737);
#534=VERTEX_POINT('',#1741);
#535=VERTEX_POINT('',#1745);
#536=VERTEX_POINT('',#1749);
#537=VERTEX_POINT('',#1753);
#538=VERTEX_POINT('',#1757);
#539=VERTEX_POINT('',#1761);
#540=VERTEX_POINT('',#1765);
#541=VERTEX_POINT('',#1769);
#542=VERTEX_POINT('',#1773);
#543=VERTEX_POINT('',#1775);
#544=VERTEX_POINT('',#1779);
#545=VERTEX_POINT('',#1783);
#546=VERTEX_POINT('',#1785);
#547=VERTEX_POINT('',#1789);
#548=VERTEX_POINT('',#1795);
#549=VERTEX_POINT('',#1799);
#550=VERTEX_POINT('',#1803);
#551=VERTEX_POINT('',#1807);
#552=VERTEX_POINT('',#1811);
#553=VERTEX_POINT('',#1815);
#554=LINE('',#1541,#594);
#555=LINE('',#1544,#595);
#556=LINE('',#1546,#596);
#557=LINE('',#1548,#597);
#558=LINE('',#1640,#598);
#559=LINE('',#1643,#599);
#560=LINE('',#1645,#600);
#561=LINE('',#1646,#601);
#562=LINE('',#1648,#602);
#563=LINE('',#1650,#603);
#564=LINE('',#1652,#604);
#565=LINE('',#1654,#605);
#566=LINE('',#1656,#606);
#567=LINE('',#1658,#607);
#568=LINE('',#1660,#608);
#569=LINE('',#1662,#609);
#570=LINE('',#1772,#610);
#571=LINE('',#1774,#611);
#572=LINE('',#1776,#612);
#573=LINE('',#1778,#613);
#574=LINE('',#1780,#614);
#575=LINE('',#1782,#615);
#576=LINE('',#1784,#616);
#577=LINE('',#1786,#617);
#578=LINE('',#1788,#618);
#579=LINE('',#1790,#619);
#580=LINE('',#1792,#620);
#581=LINE('',#1794,#621);
#582=LINE('',#1796,#622);
#583=LINE('',#1798,#623);
#584=LINE('',#1800,#624);
#585=LINE('',#1802,#625);
#586=LINE('',#1804,#626);
#587=LINE('',#1806,#627);
#588=LINE('',#1808,#628);
#589=LINE('',#1810,#629);
#590=LINE('',#1812,#630);
#591=LINE('',#1814,#631);
#592=LINE('',#1816,#632);
#593=LINE('',#1818,#633);
#594=VECTOR('',#1217,1.);
#595=VECTOR('',#1218,1.);
#596=VECTOR('',#1219,1.);
#597=VECTOR('',#1220,1.);
#598=VECTOR('',#1331,1.);
#599=VECTOR('',#1332,1.);
#600=VECTOR('',#1333,1.);
#601=VECTOR('',#1334,1.);
#602=VECTOR('',#1335,1.);
#603=VECTOR('',#1338,1.);
#604=VECTOR('',#1339,1.);
#605=VECTOR('',#1340,1.);
#606=VECTOR('',#1341,1.);
#607=VECTOR('',#1342,1.);
#608=VECTOR('',#1343,1.);
#609=VECTOR('',#1344,1.);
#610=VECTOR('',#1491,1.);
#611=VECTOR('',#1492,1.);
#612=VECTOR('',#1493,1.);
#613=VECTOR('',#1496,1.);
#614=VECTOR('',#1497,1.);
#615=VECTOR('',#1500,1.);
#616=VECTOR('',#1501,1.);
#617=VECTOR('',#1502,1.);
#618=VECTOR('',#1505,1.);
#619=VECTOR('',#1506,1.);
#620=VECTOR('',#1509,1.);
#621=VECTOR('',#1512,1.);
#622=VECTOR('',#1513,1.);
#623=VECTOR('',#1516,1.);
#624=VECTOR('',#1517,1.);
#625=VECTOR('',#1520,1.);
#626=VECTOR('',#1521,1.);
#627=VECTOR('',#1524,1.);
#628=VECTOR('',#1525,1.);
#629=VECTOR('',#1528,1.);
#630=VECTOR('',#1529,1.);
#631=VECTOR('',#1532,1.);
#632=VECTOR('',#1533,1.);
#633=VECTOR('',#1536,1.);
#634=EDGE_LOOP('',(#120,#121,#122,#123));
#635=EDGE_LOOP('',(#124));
#636=EDGE_LOOP('',(#125));
#637=EDGE_LOOP('',(#126));
#638=EDGE_LOOP('',(#127));
#639=EDGE_LOOP('',(#128));
#640=EDGE_LOOP('',(#129));
#641=EDGE_LOOP('',(#130));
#642=EDGE_LOOP('',(#131));
#643=EDGE_LOOP('',(#132));
#644=EDGE_LOOP('',(#133));
#645=EDGE_LOOP('',(#134));
#646=EDGE_LOOP('',(#135));
#647=EDGE_LOOP('',(#136));
#648=EDGE_LOOP('',(#137));
#649=EDGE_LOOP('',(#138));
#650=EDGE_LOOP('',(#139));
#651=EDGE_LOOP('',(#140));
#652=EDGE_LOOP('',(#141));
#653=EDGE_LOOP('',(#142));
#654=EDGE_LOOP('',(#143));
#655=EDGE_LOOP('',(#144));
#656=EDGE_LOOP('',(#145));
#657=EDGE_LOOP('',(#146));
#658=EDGE_LOOP('',(#147));
#659=EDGE_LOOP('',(#148));
#660=EDGE_LOOP('',(#149));
#661=EDGE_LOOP('',(#150));
#662=EDGE_LOOP('',(#151));
#663=EDGE_LOOP('',(#152));
#664=EDGE_LOOP('',(#153));
#665=EDGE_LOOP('',(#154));
#666=EDGE_LOOP('',(#155));
#667=EDGE_LOOP('',(#156));
#668=EDGE_LOOP('',(#157));
#669=EDGE_LOOP('',(#158));
#670=EDGE_LOOP('',(#159));
#671=EDGE_LOOP('',(#160,#161,#162,#163,#164,#165));
#672=EDGE_LOOP('',(#166));
#673=EDGE_LOOP('',(#167));
#674=EDGE_LOOP('',(#168));
#675=EDGE_LOOP('',(#169));
#676=EDGE_LOOP('',(#170));
#677=EDGE_LOOP('',(#171));
#678=EDGE_LOOP('',(#172));
#679=EDGE_LOOP('',(#173));
#680=EDGE_LOOP('',(#174));
#681=EDGE_LOOP('',(#175));
#682=EDGE_LOOP('',(#176));
#683=EDGE_LOOP('',(#177));
#684=EDGE_LOOP('',(#178));
#685=EDGE_LOOP('',(#179));
#686=EDGE_LOOP('',(#180));
#687=EDGE_LOOP('',(#181));
#688=EDGE_LOOP('',(#182));
#689=EDGE_LOOP('',(#183));
#690=EDGE_LOOP('',(#184,#185,#186,#187,#188,#189,#190,#191));
#691=EDGE_LOOP('',(#192));
#692=EDGE_LOOP('',(#193));
#693=EDGE_LOOP('',(#194));
#694=EDGE_LOOP('',(#195));
#695=EDGE_LOOP('',(#196));
#696=EDGE_LOOP('',(#197));
#697=EDGE_LOOP('',(#198));
#698=EDGE_LOOP('',(#199));
#699=EDGE_LOOP('',(#200));
#700=EDGE_LOOP('',(#201));
#701=EDGE_LOOP('',(#202));
#702=EDGE_LOOP('',(#203));
#703=EDGE_LOOP('',(#204));
#704=EDGE_LOOP('',(#205));
#705=EDGE_LOOP('',(#206));
#706=EDGE_LOOP('',(#207));
#707=EDGE_LOOP('',(#208));
#708=EDGE_LOOP('',(#209));
#709=EDGE_LOOP('',(#210));
#710=EDGE_LOOP('',(#211));
#711=EDGE_LOOP('',(#212));
#712=EDGE_LOOP('',(#213));
#713=EDGE_LOOP('',(#214));
#714=EDGE_LOOP('',(#215));
#715=EDGE_LOOP('',(#216));
#716=EDGE_LOOP('',(#217));
#717=EDGE_LOOP('',(#218));
#718=EDGE_LOOP('',(#219));
#719=EDGE_LOOP('',(#220));
#720=EDGE_LOOP('',(#221));
#721=EDGE_LOOP('',(#222));
#722=EDGE_LOOP('',(#223));
#723=EDGE_LOOP('',(#224));
#724=EDGE_LOOP('',(#225));
#725=EDGE_LOOP('',(#226));
#726=EDGE_LOOP('',(#227));
#727=EDGE_LOOP('',(#228));
#728=EDGE_LOOP('',(#229));
#729=EDGE_LOOP('',(#230));
#730=EDGE_LOOP('',(#231));
#731=EDGE_LOOP('',(#232));
#732=EDGE_LOOP('',(#233));
#733=EDGE_LOOP('',(#234));
#734=EDGE_LOOP('',(#235));
#735=EDGE_LOOP('',(#236));
#736=EDGE_LOOP('',(#237));
#737=EDGE_LOOP('',(#238));
#738=EDGE_LOOP('',(#239));
#739=EDGE_LOOP('',(#240));
#740=EDGE_LOOP('',(#241));
#741=EDGE_LOOP('',(#242));
#742=EDGE_LOOP('',(#243));
#743=EDGE_LOOP('',(#244));
#744=EDGE_LOOP('',(#245));
#745=EDGE_LOOP('',(#246));
#746=EDGE_LOOP('',(#247));
#747=EDGE_LOOP('',(#248));
#748=EDGE_LOOP('',(#249));
#749=EDGE_LOOP('',(#250));
#750=EDGE_LOOP('',(#251));
#751=EDGE_LOOP('',(#252));
#752=EDGE_LOOP('',(#253));
#753=EDGE_LOOP('',(#254));
#754=EDGE_LOOP('',(#255));
#755=EDGE_LOOP('',(#256));
#756=EDGE_LOOP('',(#257));
#757=EDGE_LOOP('',(#258));
#758=EDGE_LOOP('',(#259));
#759=EDGE_LOOP('',(#260));
#760=EDGE_LOOP('',(#261));
#761=EDGE_LOOP('',(#262));
#762=EDGE_LOOP('',(#263));
#763=EDGE_LOOP('',(#264));
#764=EDGE_LOOP('',(#265));
#765=EDGE_LOOP('',(#266));
#766=EDGE_LOOP('',(#267));
#767=EDGE_LOOP('',(#268));
#768=EDGE_LOOP('',(#269));
#769=EDGE_LOOP('',(#270));
#770=EDGE_LOOP('',(#271));
#771=EDGE_LOOP('',(#272));
#772=EDGE_LOOP('',(#273));
#773=EDGE_LOOP('',(#274));
#774=EDGE_LOOP('',(#275));
#775=EDGE_LOOP('',(#276));
#776=EDGE_LOOP('',(#277));
#777=EDGE_LOOP('',(#278));
#778=EDGE_LOOP('',(#279));
#779=EDGE_LOOP('',(#280));
#780=EDGE_LOOP('',(#281));
#781=EDGE_LOOP('',(#282,#283,#284,#285));
#782=EDGE_LOOP('',(#286,#287,#288,#289));
#783=EDGE_LOOP('',(#290,#291,#292,#293));
#784=EDGE_LOOP('',(#294,#295,#296,#297));
#785=EDGE_LOOP('',(#298,#299,#300,#301));
#786=EDGE_LOOP('',(#302,#303,#304,#305,#306));
#787=EDGE_LOOP('',(#307,#308,#309,#310));
#788=EDGE_LOOP('',(#311,#312,#313,#314));
#789=EDGE_LOOP('',(#315,#316,#317,#318));
#790=EDGE_LOOP('',(#319,#320,#321,#322));
#791=EDGE_LOOP('',(#323,#324,#325,#326));
#792=EDGE_LOOP('',(#327,#328,#329,#330,#331));
#793=EDGE_LOOP('',(#332,#333,#334,#335,#336,#337,#338,#339,#340,#341,#342,
#343));
#794=FACE_BOUND('',#634,.T.);
#795=FACE_BOUND('',#635,.T.);
#796=FACE_BOUND('',#636,.T.);
#797=FACE_BOUND('',#637,.T.);
#798=FACE_BOUND('',#638,.T.);
#799=FACE_BOUND('',#639,.T.);
#800=FACE_BOUND('',#640,.T.);
#801=FACE_BOUND('',#641,.T.);
#802=FACE_BOUND('',#642,.T.);
#803=FACE_BOUND('',#643,.T.);
#804=FACE_BOUND('',#644,.T.);
#805=FACE_BOUND('',#645,.T.);
#806=FACE_BOUND('',#646,.T.);
#807=FACE_BOUND('',#647,.T.);
#808=FACE_BOUND('',#648,.T.);
#809=FACE_BOUND('',#649,.T.);
#810=FACE_BOUND('',#650,.T.);
#811=FACE_BOUND('',#651,.T.);
#812=FACE_BOUND('',#652,.T.);
#813=FACE_BOUND('',#653,.T.);
#814=FACE_BOUND('',#654,.T.);
#815=FACE_BOUND('',#655,.T.);
#816=FACE_BOUND('',#656,.T.);
#817=FACE_BOUND('',#657,.T.);
#818=FACE_BOUND('',#658,.T.);
#819=FACE_BOUND('',#659,.T.);
#820=FACE_BOUND('',#660,.T.);
#821=FACE_BOUND('',#661,.T.);
#822=FACE_BOUND('',#662,.T.);
#823=FACE_BOUND('',#663,.T.);
#824=FACE_BOUND('',#664,.T.);
#825=FACE_BOUND('',#665,.T.);
#826=FACE_BOUND('',#666,.T.);
#827=FACE_BOUND('',#667,.T.);
#828=FACE_BOUND('',#668,.T.);
#829=FACE_BOUND('',#669,.T.);
#830=FACE_BOUND('',#670,.T.);
#831=FACE_BOUND('',#671,.T.);
#832=FACE_BOUND('',#672,.T.);
#833=FACE_BOUND('',#673,.T.);
#834=FACE_BOUND('',#674,.T.);
#835=FACE_BOUND('',#675,.T.);
#836=FACE_BOUND('',#676,.T.);
#837=FACE_BOUND('',#677,.T.);
#838=FACE_BOUND('',#678,.T.);
#839=FACE_BOUND('',#679,.T.);
#840=FACE_BOUND('',#680,.T.);
#841=FACE_BOUND('',#681,.T.);
#842=FACE_BOUND('',#682,.T.);
#843=FACE_BOUND('',#683,.T.);
#844=FACE_BOUND('',#684,.T.);
#845=FACE_BOUND('',#685,.T.);
#846=FACE_BOUND('',#686,.T.);
#847=FACE_BOUND('',#687,.T.);
#848=FACE_BOUND('',#688,.T.);
#849=FACE_BOUND('',#689,.T.);
#850=FACE_BOUND('',#690,.T.);
#851=FACE_BOUND('',#691,.T.);
#852=FACE_BOUND('',#692,.T.);
#853=FACE_BOUND('',#693,.T.);
#854=FACE_BOUND('',#694,.T.);
#855=FACE_BOUND('',#695,.T.);
#856=FACE_BOUND('',#696,.T.);
#857=FACE_BOUND('',#697,.T.);
#858=FACE_BOUND('',#698,.T.);
#859=FACE_BOUND('',#699,.T.);
#860=FACE_BOUND('',#700,.T.);
#861=FACE_BOUND('',#701,.T.);
#862=FACE_BOUND('',#702,.T.);
#863=FACE_BOUND('',#703,.T.);
#864=FACE_BOUND('',#704,.T.);
#865=FACE_BOUND('',#705,.T.);
#866=FACE_BOUND('',#706,.T.);
#867=FACE_BOUND('',#707,.T.);
#868=FACE_BOUND('',#708,.T.);
#869=FACE_BOUND('',#709,.T.);
#870=FACE_BOUND('',#710,.T.);
#871=FACE_BOUND('',#711,.T.);
#872=FACE_BOUND('',#712,.T.);
#873=FACE_BOUND('',#713,.T.);
#874=FACE_BOUND('',#714,.T.);
#875=FACE_BOUND('',#715,.T.);
#876=FACE_BOUND('',#716,.T.);
#877=FACE_BOUND('',#717,.T.);
#878=FACE_BOUND('',#718,.T.);
#879=FACE_BOUND('',#719,.T.);
#880=FACE_BOUND('',#720,.T.);
#881=FACE_BOUND('',#721,.T.);
#882=FACE_BOUND('',#722,.T.);
#883=FACE_BOUND('',#723,.T.);
#884=FACE_BOUND('',#724,.T.);
#885=FACE_BOUND('',#725,.T.);
#886=FACE_BOUND('',#726,.T.);
#887=FACE_BOUND('',#727,.T.);
#888=FACE_BOUND('',#728,.T.);
#889=FACE_BOUND('',#729,.T.);
#890=FACE_BOUND('',#730,.T.);
#891=FACE_BOUND('',#731,.T.);
#892=FACE_BOUND('',#732,.T.);
#893=FACE_BOUND('',#733,.T.);
#894=FACE_BOUND('',#734,.T.);
#895=FACE_BOUND('',#735,.T.);
#896=FACE_BOUND('',#736,.T.);
#897=FACE_BOUND('',#737,.T.);
#898=FACE_BOUND('',#738,.T.);
#899=FACE_BOUND('',#739,.T.);
#900=FACE_BOUND('',#740,.T.);
#901=FACE_BOUND('',#741,.T.);
#902=FACE_BOUND('',#742,.T.);
#903=FACE_BOUND('',#743,.T.);
#904=FACE_BOUND('',#744,.T.);
#905=FACE_BOUND('',#745,.T.);
#906=FACE_BOUND('',#746,.T.);
#907=FACE_BOUND('',#747,.T.);
#908=FACE_BOUND('',#748,.T.);
#909=FACE_BOUND('',#749,.T.);
#910=FACE_BOUND('',#750,.T.);
#911=FACE_BOUND('',#751,.T.);
#912=FACE_BOUND('',#752,.T.);
#913=FACE_BOUND('',#753,.T.);
#914=FACE_BOUND('',#754,.T.);
#915=FACE_BOUND('',#755,.T.);
#916=FACE_BOUND('',#756,.T.);
#917=FACE_BOUND('',#757,.T.);
#918=FACE_BOUND('',#758,.T.);
#919=FACE_BOUND('',#759,.T.);
#920=FACE_BOUND('',#760,.T.);
#921=FACE_BOUND('',#761,.T.);
#922=FACE_BOUND('',#762,.T.);
#923=FACE_BOUND('',#763,.T.);
#924=FACE_BOUND('',#764,.T.);
#925=FACE_BOUND('',#765,.T.);
#926=FACE_BOUND('',#766,.T.);
#927=FACE_BOUND('',#767,.T.);
#928=FACE_BOUND('',#768,.T.);
#929=FACE_BOUND('',#769,.T.);
#930=FACE_BOUND('',#770,.T.);
#931=FACE_BOUND('',#771,.T.);
#932=FACE_BOUND('',#772,.T.);
#933=FACE_BOUND('',#773,.T.);
#934=FACE_BOUND('',#774,.T.);
#935=FACE_BOUND('',#775,.T.);
#936=FACE_BOUND('',#776,.T.);
#937=FACE_BOUND('',#777,.T.);
#938=FACE_BOUND('',#778,.T.);
#939=FACE_BOUND('',#779,.T.);
#940=FACE_BOUND('',#780,.T.);
#941=FACE_BOUND('',#781,.T.);
#942=FACE_BOUND('',#782,.T.);
#943=FACE_BOUND('',#783,.T.);
#944=FACE_BOUND('',#784,.T.);
#945=FACE_BOUND('',#785,.T.);
#946=FACE_BOUND('',#786,.T.);
#947=FACE_BOUND('',#787,.T.);
#948=FACE_BOUND('',#788,.T.);
#949=FACE_BOUND('',#789,.T.);
#950=FACE_BOUND('',#790,.T.);
#951=FACE_BOUND('',#791,.T.);
#952=FACE_BOUND('',#792,.T.);
#953=FACE_BOUND('',#793,.T.);
#954=PLANE('',#1071);
#955=PLANE('',#1126);
#956=PLANE('',#1127);
#957=PLANE('',#1148);
#958=PLANE('',#1151);
#959=PLANE('',#1154);
#960=PLANE('',#1157);
#961=PLANE('',#1160);
#962=PLANE('',#1163);
#963=PLANE('',#1166);
#964=PLANE('',#1169);
#965=PLANE('',#1172);
#966=PLANE('',#1175);
#967=PLANE('',#1178);
#968=PLANE('',#1181);
#969=PLANE('',#1184);
#970=PLANE('',#1187);
#971=PLANE('',#1190);
#972=PLANE('',#1193);
#973=PLANE('',#1196);
#974=PLANE('',#1199);
#975=PLANE('',#1200);
#976=PLANE('',#1201);
#977=PLANE('',#1202);
#978=PLANE('',#1203);
#979=PLANE('',#1204);
#980=PLANE('',#1205);
#981=PLANE('',#1206);
#982=PLANE('',#1207);
#983=PLANE('',#1208);
#984=PLANE('',#1209);
#985=PLANE('',#1210);
#986=PLANE('',#1211);
#987=PLANE('',#1212);
#988=ADVANCED_FACE('',(#794),#954,.T.);
#989=ADVANCED_FACE('',(#795,#796),#84,.F.);
#990=ADVANCED_FACE('',(#797,#798),#85,.F.);
#991=ADVANCED_FACE('',(#799,#800),#86,.F.);
#992=ADVANCED_FACE('',(#801,#802),#87,.F.);
#993=ADVANCED_FACE('',(#803,#804),#88,.F.);
#994=ADVANCED_FACE('',(#805,#806),#89,.F.);
#995=ADVANCED_FACE('',(#807,#808),#90,.F.);
#996=ADVANCED_FACE('',(#809,#810),#91,.F.);
#997=ADVANCED_FACE('',(#811,#812),#92,.F.);
#998=ADVANCED_FACE('',(#813,#814),#93,.F.);
#999=ADVANCED_FACE('',(#815,#816),#94,.F.);
#1000=ADVANCED_FACE('',(#817,#818),#95,.F.);
#1001=ADVANCED_FACE('',(#819,#820),#96,.F.);
#1002=ADVANCED_FACE('',(#821,#822),#97,.F.);
#1003=ADVANCED_FACE('',(#823,#824),#98,.F.);
#1004=ADVANCED_FACE('',(#825,#826),#99,.F.);
#1005=ADVANCED_FACE('',(#827,#828),#100,.F.);
#1006=ADVANCED_FACE('',(#829,#830),#101,.F.);
#1007=ADVANCED_FACE('',(#831,#832,#833,#834,#835,#836,#837,#838,#839,#840,
#841,#842,#843,#844,#845,#846,#847,#848,#849),#955,.T.);
#1008=ADVANCED_FACE('',(#850,#851,#852,#853,#854,#855,#856,#857,#858,#859,
#860,#861,#862,#863,#864,#865,#866,#867,#868),#956,.F.);
#1009=ADVANCED_FACE('',(#869,#870),#102,.F.);
#1010=ADVANCED_FACE('',(#871,#872),#957,.T.);
#1011=ADVANCED_FACE('',(#873,#874),#103,.F.);
#1012=ADVANCED_FACE('',(#875,#876),#958,.T.);
#1013=ADVANCED_FACE('',(#877,#878),#104,.F.);
#1014=ADVANCED_FACE('',(#879,#880),#959,.T.);
#1015=ADVANCED_FACE('',(#881,#882),#105,.F.);
#1016=ADVANCED_FACE('',(#883,#884),#960,.T.);
#1017=ADVANCED_FACE('',(#885,#886),#106,.F.);
#1018=ADVANCED_FACE('',(#887,#888),#961,.T.);
#1019=ADVANCED_FACE('',(#889,#890),#107,.F.);
#1020=ADVANCED_FACE('',(#891,#892),#962,.T.);
#1021=ADVANCED_FACE('',(#893,#894),#108,.F.);
#1022=ADVANCED_FACE('',(#895,#896),#963,.T.);
#1023=ADVANCED_FACE('',(#897,#898),#109,.F.);
#1024=ADVANCED_FACE('',(#899,#900),#964,.T.);
#1025=ADVANCED_FACE('',(#901,#902),#110,.F.);
#1026=ADVANCED_FACE('',(#903,#904),#965,.T.);
#1027=ADVANCED_FACE('',(#905,#906),#111,.F.);
#1028=ADVANCED_FACE('',(#907,#908),#966,.T.);
#1029=ADVANCED_FACE('',(#909,#910),#112,.F.);
#1030=ADVANCED_FACE('',(#911,#912),#967,.T.);
#1031=ADVANCED_FACE('',(#913,#914),#113,.F.);
#1032=ADVANCED_FACE('',(#915,#916),#968,.T.);
#1033=ADVANCED_FACE('',(#917,#918),#114,.F.);
#1034=ADVANCED_FACE('',(#919,#920),#969,.T.);
#1035=ADVANCED_FACE('',(#921,#922),#115,.F.);
#1036=ADVANCED_FACE('',(#923,#924),#970,.T.);
#1037=ADVANCED_FACE('',(#925,#926),#116,.F.);
#1038=ADVANCED_FACE('',(#927,#928),#971,.T.);
#1039=ADVANCED_FACE('',(#929,#930),#117,.F.);
#1040=ADVANCED_FACE('',(#931,#932),#972,.T.);
#1041=ADVANCED_FACE('',(#933,#934),#118,.F.);
#1042=ADVANCED_FACE('',(#935,#936),#973,.T.);
#1043=ADVANCED_FACE('',(#937,#938),#119,.F.);
#1044=ADVANCED_FACE('',(#939,#940),#974,.T.);
#1045=ADVANCED_FACE('',(#941),#975,.F.);
#1046=ADVANCED_FACE('',(#942),#976,.F.);
#1047=ADVANCED_FACE('',(#943),#977,.F.);
#1048=ADVANCED_FACE('',(#944),#978,.F.);
#1049=ADVANCED_FACE('',(#945),#979,.F.);
#1050=ADVANCED_FACE('',(#946),#980,.T.);
#1051=ADVANCED_FACE('',(#947),#981,.T.);
#1052=ADVANCED_FACE('',(#948),#982,.F.);
#1053=ADVANCED_FACE('',(#949),#983,.F.);
#1054=ADVANCED_FACE('',(#950),#984,.T.);
#1055=ADVANCED_FACE('',(#951),#985,.T.);
#1056=ADVANCED_FACE('',(#952),#986,.F.);
#1057=ADVANCED_FACE('',(#953),#987,.T.);
#1058=CLOSED_SHELL('',(#988,#989,#990,#991,#992,#993,#994,#995,#996,#997,
#998,#999,#1000,#1001,#1002,#1003,#1004,#1005,#1006,#1007,#1008,#1009,#1010,
#1011,#1012,#1013,#1014,#1015,#1016,#1017,#1018,#1019,#1020,#1021,#1022,
#1023,#1024,#1025,#1026,#1027,#1028,#1029,#1030,#1031,#1032,#1033,#1034,
#1035,#1036,#1037,#1038,#1039,#1040,#1041,#1042,#1043,#1044,#1045,#1046,
#1047,#1048,#1049,#1050,#1051,#1052,#1053,#1054,#1055,#1056,#1057));
#1059=STYLED_ITEM('',(#1060),#1067);
#1060=PRESENTATION_STYLE_ASSIGNMENT((#1061));
#1061=SURFACE_STYLE_USAGE(.BOTH.,#1062);
#1062=SURFACE_SIDE_STYLE('',(#1063));
#1063=SURFACE_STYLE_FILL_AREA(#1064);
#1064=FILL_AREA_STYLE('',(#1065));
#1065=FILL_AREA_STYLE_COLOUR('',#1066);
#1066=DRAUGHTING_PRE_DEFINED_COLOUR('red');
#1067=MANIFOLD_SOLID_BREP('Part 1',#1058);
#1068=SHAPE_DEFINITION_REPRESENTATION(#1826,#1069);
#1069=SHAPE_REPRESENTATION('Part 1',(#1070),#1821);
#1070=AXIS2_PLACEMENT_3D('',#1539,#1213,#1214);
#1071=AXIS2_PLACEMENT_3D('',#1540,#1215,#1216);
#1072=AXIS2_PLACEMENT_3D('',#1549,#1221,#1222);
#1073=AXIS2_PLACEMENT_3D('',#1550,#1223,#1224);
#1074=AXIS2_PLACEMENT_3D('',#1552,#1225,#1226);
#1075=AXIS2_PLACEMENT_3D('',#1554,#1227,#1228);
#1076=AXIS2_PLACEMENT_3D('',#1555,#1229,#1230);
#1077=AXIS2_PLACEMENT_3D('',#1557,#1231,#1232);
#1078=AXIS2_PLACEMENT_3D('',#1559,#1233,#1234);
#1079=AXIS2_PLACEMENT_3D('',#1560,#1235,#1236);
#1080=AXIS2_PLACEMENT_3D('',#1562,#1237,#1238);
#1081=AXIS2_PLACEMENT_3D('',#1564,#1239,#1240);
#1082=AXIS2_PLACEMENT_3D('',#1565,#1241,#1242);
#1083=AXIS2_PLACEMENT_3D('',#1567,#1243,#1244);
#1084=AXIS2_PLACEMENT_3D('',#1569,#1245,#1246);
#1085=AXIS2_PLACEMENT_3D('',#1570,#1247,#1248);
#1086=AXIS2_PLACEMENT_3D('',#1572,#1249,#1250);
#1087=AXIS2_PLACEMENT_3D('',#1574,#1251,#1252);
#1088=AXIS2_PLACEMENT_3D('',#1575,#1253,#1254);
#1089=AXIS2_PLACEMENT_3D('',#1577,#1255,#1256);
#1090=AXIS2_PLACEMENT_3D('',#1579,#1257,#1258);
#1091=AXIS2_PLACEMENT_3D('',#1580,#1259,#1260);
#1092=AXIS2_PLACEMENT_3D('',#1582,#1261,#1262);
#1093=AXIS2_PLACEMENT_3D('',#1584,#1263,#1264);
#1094=AXIS2_PLACEMENT_3D('',#1585,#1265,#1266);
#1095=AXIS2_PLACEMENT_3D('',#1587,#1267,#1268);
#1096=AXIS2_PLACEMENT_3D('',#1589,#1269,#1270);
#1097=AXIS2_PLACEMENT_3D('',#1590,#1271,#1272);
#1098=AXIS2_PLACEMENT_3D('',#1592,#1273,#1274);
#1099=AXIS2_PLACEMENT_3D('',#1594,#1275,#1276);
#1100=AXIS2_PLACEMENT_3D('',#1595,#1277,#1278);
#1101=AXIS2_PLACEMENT_3D('',#1597,#1279,#1280);
#1102=AXIS2_PLACEMENT_3D('',#1599,#1281,#1282);
#1103=AXIS2_PLACEMENT_3D('',#1600,#1283,#1284);
#1104=AXIS2_PLACEMENT_3D('',#1602,#1285,#1286);
#1105=AXIS2_PLACEMENT_3D('',#1604,#1287,#1288);
#1106=AXIS2_PLACEMENT_3D('',#1605,#1289,#1290);
#1107=AXIS2_PLACEMENT_3D('',#1607,#1291,#1292);
#1108=AXIS2_PLACEMENT_3D('',#1609,#1293,#1294);
#1109=AXIS2_PLACEMENT_3D('',#1610,#1295,#1296);
#1110=AXIS2_PLACEMENT_3D('',#1612,#1297,#1298);
#1111=AXIS2_PLACEMENT_3D('',#1614,#1299,#1300);
#1112=AXIS2_PLACEMENT_3D('',#1615,#1301,#1302);
#1113=AXIS2_PLACEMENT_3D('',#1617,#1303,#1304);
#1114=AXIS2_PLACEMENT_3D('',#1619,#1305,#1306);
#1115=AXIS2_PLACEMENT_3D('',#1620,#1307,#1308);
#1116=AXIS2_PLACEMENT_3D('',#1622,#1309,#1310);
#1117=AXIS2_PLACEMENT_3D('',#1624,#1311,#1312);
#1118=AXIS2_PLACEMENT_3D('',#1625,#1313,#1314);
#1119=AXIS2_PLACEMENT_3D('',#1627,#1315,#1316);
#1120=AXIS2_PLACEMENT_3D('',#1629,#1317,#1318);
#1121=AXIS2_PLACEMENT_3D('',#1630,#1319,#1320);
#1122=AXIS2_PLACEMENT_3D('',#1632,#1321,#1322);
#1123=AXIS2_PLACEMENT_3D('',#1634,#1323,#1324);
#1124=AXIS2_PLACEMENT_3D('',#1635,#1325,#1326);
#1125=AXIS2_PLACEMENT_3D('',#1637,#1327,#1328);
#1126=AXIS2_PLACEMENT_3D('',#1639,#1329,#1330);
#1127=AXIS2_PLACEMENT_3D('',#1649,#1336,#1337);
#1128=AXIS2_PLACEMENT_3D('',#1663,#1345,#1346);
#1129=AXIS2_PLACEMENT_3D('',#1665,#1347,#1348);
#1130=AXIS2_PLACEMENT_3D('',#1667,#1349,#1350);
#1131=AXIS2_PLACEMENT_3D('',#1669,#1351,#1352);
#1132=AXIS2_PLACEMENT_3D('',#1671,#1353,#1354);
#1133=AXIS2_PLACEMENT_3D('',#1673,#1355,#1356);
#1134=AXIS2_PLACEMENT_3D('',#1675,#1357,#1358);
#1135=AXIS2_PLACEMENT_3D('',#1677,#1359,#1360);
#1136=AXIS2_PLACEMENT_3D('',#1679,#1361,#1362);
#1137=AXIS2_PLACEMENT_3D('',#1681,#1363,#1364);
#1138=AXIS2_PLACEMENT_3D('',#1683,#1365,#1366);
#1139=AXIS2_PLACEMENT_3D('',#1685,#1367,#1368);
#1140=AXIS2_PLACEMENT_3D('',#1687,#1369,#1370);
#1141=AXIS2_PLACEMENT_3D('',#1689,#1371,#1372);
#1142=AXIS2_PLACEMENT_3D('',#1691,#1373,#1374);
#1143=AXIS2_PLACEMENT_3D('',#1693,#1375,#1376);
#1144=AXIS2_PLACEMENT_3D('',#1695,#1377,#1378);
#1145=AXIS2_PLACEMENT_3D('',#1697,#1379,#1380);
#1146=AXIS2_PLACEMENT_3D('',#1699,#1381,#1382);
#1147=AXIS2_PLACEMENT_3D('',#1700,#1383,#1384);
#1148=AXIS2_PLACEMENT_3D('',#1702,#1385,#1386);
#1149=AXIS2_PLACEMENT_3D('',#1703,#1387,#1388);
#1150=AXIS2_PLACEMENT_3D('',#1704,#1389,#1390);
#1151=AXIS2_PLACEMENT_3D('',#1706,#1391,#1392);
#1152=AXIS2_PLACEMENT_3D('',#1707,#1393,#1394);
#1153=AXIS2_PLACEMENT_3D('',#1708,#1395,#1396);
#1154=AXIS2_PLACEMENT_3D('',#1710,#1397,#1398);
#1155=AXIS2_PLACEMENT_3D('',#1711,#1399,#1400);
#1156=AXIS2_PLACEMENT_3D('',#1712,#1401,#1402);
#1157=AXIS2_PLACEMENT_3D('',#1714,#1403,#1404);
#1158=AXIS2_PLACEMENT_3D('',#1715,#1405,#1406);
#1159=AXIS2_PLACEMENT_3D('',#1716,#1407,#1408);
#1160=AXIS2_PLACEMENT_3D('',#1718,#1409,#1410);
#1161=AXIS2_PLACEMENT_3D('',#1719,#1411,#1412);
#1162=AXIS2_PLACEMENT_3D('',#1720,#1413,#1414);
#1163=AXIS2_PLACEMENT_3D('',#1722,#1415,#1416);
#1164=AXIS2_PLACEMENT_3D('',#1723,#1417,#1418);
#1165=AXIS2_PLACEMENT_3D('',#1724,#1419,#1420);
#1166=AXIS2_PLACEMENT_3D('',#1726,#1421,#1422);
#1167=AXIS2_PLACEMENT_3D('',#1727,#1423,#1424);
#1168=AXIS2_PLACEMENT_3D('',#1728,#1425,#1426);
#1169=AXIS2_PLACEMENT_3D('',#1730,#1427,#1428);
#1170=AXIS2_PLACEMENT_3D('',#1731,#1429,#1430);
#1171=AXIS2_PLACEMENT_3D('',#1732,#1431,#1432);
#1172=AXIS2_PLACEMENT_3D('',#1734,#1433,#1434);
#1173=AXIS2_PLACEMENT_3D('',#1735,#1435,#1436);
#1174=AXIS2_PLACEMENT_3D('',#1736,#1437,#1438);
#1175=AXIS2_PLACEMENT_3D('',#1738,#1439,#1440);
#1176=AXIS2_PLACEMENT_3D('',#1739,#1441,#1442);
#1177=AXIS2_PLACEMENT_3D('',#1740,#1443,#1444);
#1178=AXIS2_PLACEMENT_3D('',#1742,#1445,#1446);
#1179=AXIS2_PLACEMENT_3D('',#1743,#1447,#1448);
#1180=AXIS2_PLACEMENT_3D('',#1744,#1449,#1450);
#1181=AXIS2_PLACEMENT_3D('',#1746,#1451,#1452);
#1182=AXIS2_PLACEMENT_3D('',#1747,#1453,#1454);
#1183=AXIS2_PLACEMENT_3D('',#1748,#1455,#1456);
#1184=AXIS2_PLACEMENT_3D('',#1750,#1457,#1458);
#1185=AXIS2_PLACEMENT_3D('',#1751,#1459,#1460);
#1186=AXIS2_PLACEMENT_3D('',#1752,#1461,#1462);
#1187=AXIS2_PLACEMENT_3D('',#1754,#1463,#1464);
#1188=AXIS2_PLACEMENT_3D('',#1755,#1465,#1466);
#1189=AXIS2_PLACEMENT_3D('',#1756,#1467,#1468);
#1190=AXIS2_PLACEMENT_3D('',#1758,#1469,#1470);
#1191=AXIS2_PLACEMENT_3D('',#1759,#1471,#1472);
#1192=AXIS2_PLACEMENT_3D('',#1760,#1473,#1474);
#1193=AXIS2_PLACEMENT_3D('',#1762,#1475,#1476);
#1194=AXIS2_PLACEMENT_3D('',#1763,#1477,#1478);
#1195=AXIS2_PLACEMENT_3D('',#1764,#1479,#1480);
#1196=AXIS2_PLACEMENT_3D('',#1766,#1481,#1482);
#1197=AXIS2_PLACEMENT_3D('',#1767,#1483,#1484);
#1198=AXIS2_PLACEMENT_3D('',#1768,#1485,#1486);
#1199=AXIS2_PLACEMENT_3D('',#1770,#1487,#1488);
#1200=AXIS2_PLACEMENT_3D('',#1771,#1489,#1490);
#1201=AXIS2_PLACEMENT_3D('',#1777,#1494,#1495);
#1202=AXIS2_PLACEMENT_3D('',#1781,#1498,#1499);
#1203=AXIS2_PLACEMENT_3D('',#1787,#1503,#1504);
#1204=AXIS2_PLACEMENT_3D('',#1791,#1507,#1508);
#1205=AXIS2_PLACEMENT_3D('',#1793,#1510,#1511);
#1206=AXIS2_PLACEMENT_3D('',#1797,#1514,#1515);
#1207=AXIS2_PLACEMENT_3D('',#1801,#1518,#1519);
#1208=AXIS2_PLACEMENT_3D('',#1805,#1522,#1523);
#1209=AXIS2_PLACEMENT_3D('',#1809,#1526,#1527);
#1210=AXIS2_PLACEMENT_3D('',#1813,#1530,#1531);
#1211=AXIS2_PLACEMENT_3D('',#1817,#1534,#1535);
#1212=AXIS2_PLACEMENT_3D('',#1819,#1537,#1538);
#1213=DIRECTION('',(0.,0.,1.));
#1214=DIRECTION('',(1.,0.,0.));
#1215=DIRECTION('',(-2.87986004780383E-16,0.,1.));
#1216=DIRECTION('',(1.,0.,2.87986004780383E-16));
#1217=DIRECTION('',(0.,1.,0.));
#1218=DIRECTION('',(1.,0.,2.87986004780383E-16));
#1219=DIRECTION('',(0.,1.,0.));
#1220=DIRECTION('',(1.,0.,2.87986004780383E-16));
#1221=DIRECTION('',(0.,1.,0.));
#1222=DIRECTION('',(0.,0.,1.));
#1223=DIRECTION('',(0.,-1.,0.));
#1224=DIRECTION('',(0.,0.,-1.));
#1225=DIRECTION('',(0.,-1.,0.));
#1226=DIRECTION('',(0.,0.,-1.));
#1227=DIRECTION('',(0.,1.,0.));
#1228=DIRECTION('',(0.,0.,1.));
#1229=DIRECTION('',(0.,-1.,0.));
#1230=DIRECTION('',(0.,0.,-1.));
#1231=DIRECTION('',(0.,-1.,0.));
#1232=DIRECTION('',(0.,0.,-1.));
#1233=DIRECTION('',(0.,1.,0.));
#1234=DIRECTION('',(0.,0.,1.));
#1235=DIRECTION('',(0.,-1.,0.));
#1236=DIRECTION('',(0.,0.,-1.));
#1237=DIRECTION('',(0.,-1.,0.));
#1238=DIRECTION('',(0.,0.,-1.));
#1239=DIRECTION('',(0.,1.,0.));
#1240=DIRECTION('',(0.,0.,1.));
#1241=DIRECTION('',(0.,-1.,0.));
#1242=DIRECTION('',(0.,0.,-1.));
#1243=DIRECTION('',(0.,-1.,0.));
#1244=DIRECTION('',(0.,0.,-1.));
#1245=DIRECTION('',(0.,1.,0.));
#1246=DIRECTION('',(0.,0.,1.));
#1247=DIRECTION('',(0.,-1.,0.));
#1248=DIRECTION('',(0.,0.,-1.));
#1249=DIRECTION('',(0.,-1.,0.));
#1250=DIRECTION('',(0.,0.,-1.));
#1251=DIRECTION('',(0.,1.,0.));
#1252=DIRECTION('',(0.,0.,1.));
#1253=DIRECTION('',(0.,-1.,0.));
#1254=DIRECTION('',(0.,0.,-1.));
#1255=DIRECTION('',(0.,-1.,0.));
#1256=DIRECTION('',(0.,0.,-1.));
#1257=DIRECTION('',(0.,1.,0.));
#1258=DIRECTION('',(0.,0.,1.));
#1259=DIRECTION('',(0.,-1.,0.));
#1260=DIRECTION('',(0.,0.,-1.));
#1261=DIRECTION('',(0.,-1.,0.));
#1262=DIRECTION('',(0.,0.,-1.));
#1263=DIRECTION('',(0.,1.,0.));
#1264=DIRECTION('',(0.,0.,1.));
#1265=DIRECTION('',(0.,-1.,0.));
#1266=DIRECTION('',(0.,0.,-1.));
#1267=DIRECTION('',(0.,-1.,0.));
#1268=DIRECTION('',(0.,0.,-1.));
#1269=DIRECTION('',(0.,1.,0.));
#1270=DIRECTION('',(0.,0.,1.));
#1271=DIRECTION('',(0.,-1.,0.));
#1272=DIRECTION('',(0.,0.,-1.));
#1273=DIRECTION('',(0.,-1.,0.));
#1274=DIRECTION('',(0.,0.,-1.));
#1275=DIRECTION('',(0.,1.,0.));
#1276=DIRECTION('',(0.,0.,1.));
#1277=DIRECTION('',(0.,-1.,0.));
#1278=DIRECTION('',(0.,0.,-1.));
#1279=DIRECTION('',(0.,-1.,0.));
#1280=DIRECTION('',(0.,0.,-1.));
#1281=DIRECTION('',(0.,1.,0.));
#1282=DIRECTION('',(0.,0.,1.));
#1283=DIRECTION('',(0.,-1.,0.));
#1284=DIRECTION('',(0.,0.,-1.));
#1285=DIRECTION('',(0.,-1.,0.));
#1286=DIRECTION('',(0.,0.,-1.));
#1287=DIRECTION('',(0.,1.,0.));
#1288=DIRECTION('',(0.,0.,1.));
#1289=DIRECTION('',(0.,-1.,0.));
#1290=DIRECTION('',(0.,0.,-1.));
#1291=DIRECTION('',(0.,-1.,0.));
#1292=DIRECTION('',(0.,0.,-1.));
#1293=DIRECTION('',(0.,1.,0.));
#1294=DIRECTION('',(0.,0.,1.));
#1295=DIRECTION('',(0.,-1.,0.));
#1296=DIRECTION('',(0.,0.,-1.));
#1297=DIRECTION('',(0.,-1.,0.));
#1298=DIRECTION('',(0.,0.,-1.));
#1299=DIRECTION('',(0.,1.,0.));
#1300=DIRECTION('',(0.,0.,1.));
#1301=DIRECTION('',(0.,-1.,0.));
#1302=DIRECTION('',(0.,0.,-1.));
#1303=DIRECTION('',(0.,-1.,0.));
#1304=DIRECTION('',(0.,0.,-1.));
#1305=DIRECTION('',(0.,1.,0.));
#1306=DIRECTION('',(0.,0.,1.));
#1307=DIRECTION('',(0.,-1.,0.));
#1308=DIRECTION('',(0.,0.,-1.));
#1309=DIRECTION('',(0.,-1.,0.));
#1310=DIRECTION('',(0.,0.,-1.));
#1311=DIRECTION('',(0.,1.,0.));
#1312=DIRECTION('',(0.,0.,1.));
#1313=DIRECTION('',(0.,-1.,0.));
#1314=DIRECTION('',(0.,0.,-1.));
#1315=DIRECTION('',(0.,-1.,0.));
#1316=DIRECTION('',(0.,0.,-1.));
#1317=DIRECTION('',(0.,1.,0.));
#1318=DIRECTION('',(0.,0.,1.));
#1319=DIRECTION('',(0.,-1.,0.));
#1320=DIRECTION('',(0.,0.,-1.));
#1321=DIRECTION('',(0.,-1.,0.));
#1322=DIRECTION('',(0.,0.,-1.));
#1323=DIRECTION('',(0.,1.,0.));
#1324=DIRECTION('',(0.,0.,1.));
#1325=DIRECTION('',(0.,-1.,0.));
#1326=DIRECTION('',(0.,0.,-1.));
#1327=DIRECTION('',(0.,-1.,0.));
#1328=DIRECTION('',(0.,0.,-1.));
#1329=DIRECTION('',(0.,-1.,0.));
#1330=DIRECTION('',(1.,0.,0.));
#1331=DIRECTION('',(-1.,0.,0.));
#1332=DIRECTION('',(0.,0.,-1.));
#1333=DIRECTION('',(1.,0.,2.87986004780383E-16));
#1334=DIRECTION('',(1.,0.,2.87986004780383E-16));
#1335=DIRECTION('',(0.,0.,1.));
#1336=DIRECTION('',(0.,-1.,0.));
#1337=DIRECTION('',(1.,0.,0.));
#1338=DIRECTION('',(0.,0.,-1.));
#1339=DIRECTION('',(0.,0.,-1.));
#1340=DIRECTION('',(1.,0.,0.));
#1341=DIRECTION('',(0.,0.,-1.));
#1342=DIRECTION('',(1.,0.,0.));
#1343=DIRECTION('',(0.,0.,-1.));
#1344=DIRECTION('',(1.,0.,0.));
#1345=DIRECTION('',(0.,-1.,0.));
#1346=DIRECTION('',(0.,0.,-1.));
#1347=DIRECTION('',(0.,-1.,0.));
#1348=DIRECTION('',(0.,0.,-1.));
#1349=DIRECTION('',(0.,-1.,0.));
#1350=DIRECTION('',(0.,0.,-1.));
#1351=DIRECTION('',(0.,-1.,0.));
#1352=DIRECTION('',(0.,0.,-1.));
#1353=DIRECTION('',(0.,-1.,0.));
#1354=DIRECTION('',(0.,0.,-1.));
#1355=DIRECTION('',(0.,-1.,0.));
#1356=DIRECTION('',(0.,0.,-1.));
#1357=DIRECTION('',(0.,-1.,0.));
#1358=DIRECTION('',(0.,0.,-1.));
#1359=DIRECTION('',(0.,-1.,0.));
#1360=DIRECTION('',(0.,0.,-1.));
#1361=DIRECTION('',(0.,-1.,0.));
#1362=DIRECTION('',(0.,0.,-1.));
#1363=DIRECTION('',(0.,-1.,0.));
#1364=DIRECTION('',(0.,0.,-1.));
#1365=DIRECTION('',(0.,-1.,0.));
#1366=DIRECTION('',(0.,0.,-1.));
#1367=DIRECTION('',(0.,-1.,0.));
#1368=DIRECTION('',(0.,0.,-1.));
#1369=DIRECTION('',(0.,-1.,0.));
#1370=DIRECTION('',(0.,0.,-1.));
#1371=DIRECTION('',(0.,-1.,0.));
#1372=DIRECTION('',(0.,0.,-1.));
#1373=DIRECTION('',(0.,-1.,0.));
#1374=DIRECTION('',(0.,0.,-1.));
#1375=DIRECTION('',(0.,-1.,0.));
#1376=DIRECTION('',(0.,0.,-1.));
#1377=DIRECTION('',(0.,-1.,0.));
#1378=DIRECTION('',(0.,0.,-1.));
#1379=DIRECTION('',(0.,-1.,0.));
#1380=DIRECTION('',(0.,0.,-1.));
#1381=DIRECTION('',(0.,1.,0.));
#1382=DIRECTION('',(0.,0.,1.));
#1383=DIRECTION('',(0.,-1.,0.));
#1384=DIRECTION('',(0.,0.,-1.));
#1385=DIRECTION('',(0.,-1.,0.));
#1386=DIRECTION('',(1.,0.,0.));
#1387=DIRECTION('',(0.,1.,0.));
#1388=DIRECTION('',(0.,0.,1.));
#1389=DIRECTION('',(0.,-1.,0.));
#1390=DIRECTION('',(0.,0.,-1.));
#1391=DIRECTION('',(0.,-1.,0.));
#1392=DIRECTION('',(1.,0.,0.));
#1393=DIRECTION('',(0.,1.,0.));
#1394=DIRECTION('',(0.,0.,1.));
#1395=DIRECTION('',(0.,-1.,0.));
#1396=DIRECTION('',(0.,0.,-1.));
#1397=DIRECTION('',(0.,-1.,0.));
#1398=DIRECTION('',(1.,0.,0.));
#1399=DIRECTION('',(0.,1.,0.));
#1400=DIRECTION('',(0.,0.,1.));
#1401=DIRECTION('',(0.,-1.,0.));
#1402=DIRECTION('',(0.,0.,-1.));
#1403=DIRECTION('',(0.,-1.,0.));
#1404=DIRECTION('',(1.,0.,0.));
#1405=DIRECTION('',(0.,1.,0.));
#1406=DIRECTION('',(0.,0.,1.));
#1407=DIRECTION('',(0.,-1.,0.));
#1408=DIRECTION('',(0.,0.,-1.));
#1409=DIRECTION('',(0.,-1.,0.));
#1410=DIRECTION('',(1.,0.,0.));
#1411=DIRECTION('',(0.,1.,0.));
#1412=DIRECTION('',(0.,0.,1.));
#1413=DIRECTION('',(0.,-1.,0.));
#1414=DIRECTION('',(0.,0.,-1.));
#1415=DIRECTION('',(0.,-1.,0.));
#1416=DIRECTION('',(1.,0.,0.));
#1417=DIRECTION('',(0.,1.,0.));
#1418=DIRECTION('',(0.,0.,1.));
#1419=DIRECTION('',(0.,-1.,0.));
#1420=DIRECTION('',(0.,0.,-1.));
#1421=DIRECTION('',(0.,-1.,0.));
#1422=DIRECTION('',(1.,0.,0.));
#1423=DIRECTION('',(0.,1.,0.));
#1424=DIRECTION('',(0.,0.,1.));
#1425=DIRECTION('',(0.,-1.,0.));
#1426=DIRECTION('',(0.,0.,-1.));
#1427=DIRECTION('',(0.,-1.,0.));
#1428=DIRECTION('',(1.,0.,0.));
#1429=DIRECTION('',(0.,1.,0.));
#1430=DIRECTION('',(0.,0.,1.));
#1431=DIRECTION('',(0.,-1.,0.));
#1432=DIRECTION('',(0.,0.,-1.));
#1433=DIRECTION('',(0.,-1.,0.));
#1434=DIRECTION('',(1.,0.,0.));
#1435=DIRECTION('',(0.,1.,0.));
#1436=DIRECTION('',(0.,0.,1.));
#1437=DIRECTION('',(0.,-1.,0.));
#1438=DIRECTION('',(0.,0.,-1.));
#1439=DIRECTION('',(0.,-1.,0.));
#1440=DIRECTION('',(1.,0.,0.));
#1441=DIRECTION('',(0.,1.,0.));
#1442=DIRECTION('',(0.,0.,1.));
#1443=DIRECTION('',(0.,-1.,0.));
#1444=DIRECTION('',(0.,0.,-1.));
#1445=DIRECTION('',(0.,-1.,0.));
#1446=DIRECTION('',(1.,0.,0.));
#1447=DIRECTION('',(0.,1.,0.));
#1448=DIRECTION('',(0.,0.,1.));
#1449=DIRECTION('',(0.,-1.,0.));
#1450=DIRECTION('',(0.,0.,-1.));
#1451=DIRECTION('',(0.,-1.,0.));
#1452=DIRECTION('',(1.,0.,0.));
#1453=DIRECTION('',(0.,1.,0.));
#1454=DIRECTION('',(0.,0.,1.));
#1455=DIRECTION('',(0.,-1.,0.));
#1456=DIRECTION('',(0.,0.,-1.));
#1457=DIRECTION('',(0.,-1.,0.));
#1458=DIRECTION('',(1.,0.,0.));
#1459=DIRECTION('',(0.,1.,0.));
#1460=DIRECTION('',(0.,0.,1.));
#1461=DIRECTION('',(0.,-1.,0.));
#1462=DIRECTION('',(0.,0.,-1.));
#1463=DIRECTION('',(0.,-1.,0.));
#1464=DIRECTION('',(1.,0.,0.));
#1465=DIRECTION('',(0.,1.,0.));
#1466=DIRECTION('',(0.,0.,1.));
#1467=DIRECTION('',(0.,-1.,0.));
#1468=DIRECTION('',(0.,0.,-1.));
#1469=DIRECTION('',(0.,-1.,0.));
#1470=DIRECTION('',(1.,0.,0.));
#1471=DIRECTION('',(0.,1.,0.));
#1472=DIRECTION('',(0.,0.,1.));
#1473=DIRECTION('',(0.,-1.,0.));
#1474=DIRECTION('',(0.,0.,-1.));
#1475=DIRECTION('',(0.,-1.,0.));
#1476=DIRECTION('',(1.,0.,0.));
#1477=DIRECTION('',(0.,1.,0.));
#1478=DIRECTION('',(0.,0.,1.));
#1479=DIRECTION('',(0.,-1.,0.));
#1480=DIRECTION('',(0.,0.,-1.));
#1481=DIRECTION('',(0.,-1.,0.));
#1482=DIRECTION('',(1.,0.,0.));
#1483=DIRECTION('',(0.,1.,0.));
#1484=DIRECTION('',(0.,0.,1.));
#1485=DIRECTION('',(0.,-1.,0.));
#1486=DIRECTION('',(0.,0.,-1.));
#1487=DIRECTION('',(0.,-1.,0.));
#1488=DIRECTION('',(1.,0.,0.));
#1489=DIRECTION('',(0.,0.,-1.));
#1490=DIRECTION('',(-1.,0.,0.));
#1491=DIRECTION('',(0.,1.,0.));
#1492=DIRECTION('',(0.,1.,0.));
#1493=DIRECTION('',(-1.,0.,0.));
#1494=DIRECTION('',(1.,0.,0.));
#1495=DIRECTION('',(0.,0.,-1.));
#1496=DIRECTION('',(0.,1.,0.));
#1497=DIRECTION('',(0.,0.,-1.));
#1498=DIRECTION('',(-4.03171582745601E-16,0.,1.));
#1499=DIRECTION('',(1.,0.,4.03171582745601E-16));
#1500=DIRECTION('',(0.,1.,0.));
#1501=DIRECTION('',(0.,1.,0.));
#1502=DIRECTION('',(1.,0.,4.03171582745601E-16));
#1503=DIRECTION('',(-4.12381913319373E-16,0.,1.));
#1504=DIRECTION('',(1.,0.,4.12381913319373E-16));
#1505=DIRECTION('',(0.,1.,0.));
#1506=DIRECTION('',(1.,0.,4.12381913319373E-16));
#1507=DIRECTION('',(-1.,0.,0.));
#1508=DIRECTION('',(0.,0.,1.));
#1509=DIRECTION('',(0.,0.,1.));
#1510=DIRECTION('',(1.,0.,0.));
#1511=DIRECTION('',(0.,0.,-1.));
#1512=DIRECTION('',(0.,1.,0.));
#1513=DIRECTION('',(0.,0.,-1.));
#1514=DIRECTION('',(0.,0.,1.));
#1515=DIRECTION('',(1.,0.,0.));
#1516=DIRECTION('',(0.,1.,0.));
#1517=DIRECTION('',(1.,0.,0.));
#1518=DIRECTION('',(1.,0.,0.));
#1519=DIRECTION('',(0.,0.,-1.));
#1520=DIRECTION('',(0.,1.,0.));
#1521=DIRECTION('',(0.,0.,-1.));
#1522=DIRECTION('',(0.,0.,1.));
#1523=DIRECTION('',(1.,0.,0.));
#1524=DIRECTION('',(0.,1.,0.));
#1525=DIRECTION('',(1.,0.,0.));
#1526=DIRECTION('',(1.,0.,0.));
#1527=DIRECTION('',(0.,0.,-1.));
#1528=DIRECTION('',(0.,1.,0.));
#1529=DIRECTION('',(0.,0.,-1.));
#1530=DIRECTION('',(0.,0.,1.));
#1531=DIRECTION('',(1.,0.,0.));
#1532=DIRECTION('',(0.,1.,0.));
#1533=DIRECTION('',(1.,0.,0.));
#1534=DIRECTION('',(1.,0.,0.));
#1535=DIRECTION('',(0.,0.,-1.));
#1536=DIRECTION('',(0.,0.,-1.));
#1537=DIRECTION('',(0.,-1.,0.));
#1538=DIRECTION('',(1.,0.,0.));
#1539=CARTESIAN_POINT('',(0.,0.,0.));
#1540=CARTESIAN_POINT('',(0.0460069432221626,0.0234,0.0559054414710999));
#1541=CARTESIAN_POINT('',(0.0219123907483408,0.0154,0.0559054414710999));
#1542=CARTESIAN_POINT('',(0.0219123907483408,0.0234,0.0559054414710999));
#1543=CARTESIAN_POINT('',(0.0219123907483408,0.0254,0.0559054414710999));
#1544=CARTESIAN_POINT('',(0.0460069432221626,0.0234,0.0559054414710999));
#1545=CARTESIAN_POINT('',(0.0701014956959843,0.0234,0.0559054414710999));
#1546=CARTESIAN_POINT('',(0.0701014956959843,0.0154,0.0559054414710999));
#1547=CARTESIAN_POINT('',(0.0701014956959843,0.0254,0.0559054414710999));
#1548=CARTESIAN_POINT('',(0.0460069432221626,0.0254,0.0559054414710999));
#1549=CARTESIAN_POINT('',(0.11049316901843,0.0234,0.0348230732699253));
#1550=CARTESIAN_POINT('',(0.11049316901843,0.0239,0.0348230732699253));
#1551=CARTESIAN_POINT('',(0.11049316901843,0.0239,0.0330230732699252));
#1552=CARTESIAN_POINT('',(0.11049316901843,0.0234,0.0348230732699253));
#1553=CARTESIAN_POINT('',(0.11049316901843,0.0234,0.0330230732699252));
#1554=CARTESIAN_POINT('',(0.148381889901805,0.0234,0.0157359969537901));
#1555=CARTESIAN_POINT('',(0.148381889901805,0.0239,0.0157359969537901));
#1556=CARTESIAN_POINT('',(0.148381889901805,0.0239,0.0139359969537901));
#1557=CARTESIAN_POINT('',(0.148381889901805,0.0234,0.0157359969537901));
#1558=CARTESIAN_POINT('',(0.148381889901805,0.0234,0.0139359969537901));
#1559=CARTESIAN_POINT('',(0.129453289901805,0.0234,0.0157359969537901));
#1560=CARTESIAN_POINT('',(0.129453289901805,0.0239,0.0157359969537901));
#1561=CARTESIAN_POINT('',(0.129453289901805,0.0239,0.0139359969537901));
#1562=CARTESIAN_POINT('',(0.129453289901805,0.0234,0.0157359969537901));
#1563=CARTESIAN_POINT('',(0.129453289901805,0.0234,0.0139359969537901));
#1564=CARTESIAN_POINT('',(0.110542103044506,0.0234,0.015742207002818));
#1565=CARTESIAN_POINT('',(0.110542103044506,0.0239,0.015742207002818));
#1566=CARTESIAN_POINT('',(0.110542103044506,0.0239,0.013942207002818));
#1567=CARTESIAN_POINT('',(0.110542103044506,0.0234,0.015742207002818));
#1568=CARTESIAN_POINT('',(0.110542103044506,0.0234,0.013942207002818));
#1569=CARTESIAN_POINT('',(0.0915903777410005,0.0234,0.015742207002818));
#1570=CARTESIAN_POINT('',(0.0915903777410005,0.0239,0.015742207002818));
#1571=CARTESIAN_POINT('',(0.0915903777410005,0.0239,0.013942207002818));
#1572=CARTESIAN_POINT('',(0.0915903777410005,0.0234,0.015742207002818));
#1573=CARTESIAN_POINT('',(0.0915903777410005,0.0234,0.013942207002818));
#1574=CARTESIAN_POINT('',(0.14837810370345,0.0234,0.0346777654857577));
#1575=CARTESIAN_POINT('',(0.14837810370345,0.0239,0.0346777654857577));
#1576=CARTESIAN_POINT('',(0.14837810370345,0.0239,0.0328777654857577));
#1577=CARTESIAN_POINT('',(0.14837810370345,0.0234,0.0346777654857577));
#1578=CARTESIAN_POINT('',(0.14837810370345,0.0234,0.0328777654857577));
#1579=CARTESIAN_POINT('',(0.129453289901805,0.0234,0.0346739009370566));
#1580=CARTESIAN_POINT('',(0.129453289901805,0.0239,0.0346739009370566));
#1581=CARTESIAN_POINT('',(0.129453289901805,0.0239,0.0328739009370565));
#1582=CARTESIAN_POINT('',(0.129453289901805,0.0234,0.0346739009370566));
#1583=CARTESIAN_POINT('',(0.129453289901805,0.0234,0.0328739009370565));
#1584=CARTESIAN_POINT('',(-0.00342386802465621,0.0234,0.0157324826447105));
#1585=CARTESIAN_POINT('',(-0.00342386802465621,0.0239,0.0157324826447105));
#1586=CARTESIAN_POINT('',(-0.00342386802465621,0.0239,0.0139324826447105));
#1587=CARTESIAN_POINT('',(-0.00342386802465621,0.0234,0.0157324826447105));
#1588=CARTESIAN_POINT('',(-0.00342386802465621,0.0234,0.0139324826447105));
#1589=CARTESIAN_POINT('',(-0.0224169741996284,0.0234,0.0157213394263284));
#1590=CARTESIAN_POINT('',(-0.0224169741996284,0.0239,0.0157213394263284));
#1591=CARTESIAN_POINT('',(-0.0224169741996284,0.0239,0.0139213394263284));
#1592=CARTESIAN_POINT('',(-0.0224169741996284,0.0234,0.0157213394263284));
#1593=CARTESIAN_POINT('',(-0.0224169741996284,0.0234,0.0139213394263284));
#1594=CARTESIAN_POINT('',(-0.0413242468049147,0.0234,0.0157213394263284));
#1595=CARTESIAN_POINT('',(-0.0413242468049147,0.0239,0.0157213394263284));
#1596=CARTESIAN_POINT('',(-0.0413242468049147,0.0239,0.0139213394263284));
#1597=CARTESIAN_POINT('',(-0.0413242468049147,0.0234,0.0157213394263284));
#1598=CARTESIAN_POINT('',(-0.0413242468049147,0.0234,0.0139213394263284));
#1599=CARTESIAN_POINT('',(-0.0602385869792384,0.0234,0.0157324826447105));
#1600=CARTESIAN_POINT('',(-0.0602385869792384,0.0239,0.0157324826447105));
#1601=CARTESIAN_POINT('',(-0.0602385869792384,0.0239,0.0139324826447105));
#1602=CARTESIAN_POINT('',(-0.0602385869792384,0.0234,0.0157324826447105));
#1603=CARTESIAN_POINT('',(-0.0602385869792384,0.0234,0.0139324826447105));
#1604=CARTESIAN_POINT('',(-0.003273033327597,0.0234,0.0348230732699253));
#1605=CARTESIAN_POINT('',(-0.003273033327597,0.0239,0.0348230732699253));
#1606=CARTESIAN_POINT('',(-0.003273033327597,0.0239,0.0330230732699252));
#1607=CARTESIAN_POINT('',(-0.003273033327597,0.0234,0.0348230732699253));
#1608=CARTESIAN_POINT('',(-0.003273033327597,0.0234,0.0330230732699252));
#1609=CARTESIAN_POINT('',(-0.0222024924758207,0.0234,0.0348230732699253));
#1610=CARTESIAN_POINT('',(-0.0222024924758207,0.0239,0.0348230732699253));
#1611=CARTESIAN_POINT('',(-0.0222024924758207,0.0239,0.0330230732699252));
#1612=CARTESIAN_POINT('',(-0.0222024924758207,0.0234,0.0348230732699253));
#1613=CARTESIAN_POINT('',(-0.0222024924758207,0.0234,0.0330230732699252));
#1614=CARTESIAN_POINT('',(-0.0413079290974675,0.0234,0.0346561927348984));
#1615=CARTESIAN_POINT('',(-0.0413079290974675,0.0239,0.0346561927348984));
#1616=CARTESIAN_POINT('',(-0.0413079290974675,0.0239,0.0328561927348984));
#1617=CARTESIAN_POINT('',(-0.0413079290974675,0.0234,0.0346561927348984));
#1618=CARTESIAN_POINT('',(-0.0413079290974675,0.0234,0.0328561927348984));
#1619=CARTESIAN_POINT('',(-0.0602385869792384,0.0234,0.0346548002974892));
#1620=CARTESIAN_POINT('',(-0.0602385869792384,0.0239,0.0346548002974892));
#1621=CARTESIAN_POINT('',(-0.0602385869792384,0.0239,0.0328548002974891));
#1622=CARTESIAN_POINT('',(-0.0602385869792384,0.0234,0.0346548002974892));
#1623=CARTESIAN_POINT('',(-0.0602385869792384,0.0234,0.0328548002974891));
#1624=CARTESIAN_POINT('',(0.0726674899018049,0.0234,-0.00307850154023902));
#1625=CARTESIAN_POINT('',(0.0726674899018049,0.0239,-0.00307850154023902));
#1626=CARTESIAN_POINT('',(0.0726674899018049,0.0239,-0.00487850154023902));
#1627=CARTESIAN_POINT('',(0.0726674899018049,0.0234,-0.00307850154023902));
#1628=CARTESIAN_POINT('',(0.0726674899018049,0.0234,-0.00487850154023902));
#1629=CARTESIAN_POINT('',(0.0155028555639506,0.0234,-0.00307850154023902));
#1630=CARTESIAN_POINT('',(0.0155028555639506,0.0239,-0.00307850154023902));
#1631=CARTESIAN_POINT('',(0.0155028555639506,0.0239,-0.00487850154023902));
#1632=CARTESIAN_POINT('',(0.0155028555639506,0.0234,-0.00307850154023902));
#1633=CARTESIAN_POINT('',(0.0155028555639506,0.0234,-0.00487850154023902));
#1634=CARTESIAN_POINT('',(0.0916333561077968,0.0234,0.0348230732699253));
#1635=CARTESIAN_POINT('',(0.0916333561077968,0.0239,0.0348230732699253));
#1636=CARTESIAN_POINT('',(0.0916333561077968,0.0239,0.0330230732699252));
#1637=CARTESIAN_POINT('',(0.0916333561077968,0.0234,0.0348230732699253));
#1638=CARTESIAN_POINT('',(0.0916333561077968,0.0234,0.0330230732699252));
#1639=CARTESIAN_POINT('',(0.0448709463252797,0.0234,0.0154283017929197));
#1640=CARTESIAN_POINT('',(-0.0498573096526916,0.0234,-0.0250314026991287));
#1641=CARTESIAN_POINT('',(0.171059762968972,0.0234,-0.0250314026991287));
#1642=CARTESIAN_POINT('',(-0.0813522370310278,0.0234,-0.0250314026991287));
#1643=CARTESIAN_POINT('',(0.171059762968972,0.0234,0.0154370193859856));
#1644=CARTESIAN_POINT('',(0.171059762968972,0.0234,0.0559054414710999));
#1645=CARTESIAN_POINT('',(0.0460069432221626,0.0234,0.0559054414710999));
#1646=CARTESIAN_POINT('',(0.0460069432221626,0.0234,0.0559054414710999));
#1647=CARTESIAN_POINT('',(-0.0813522370310278,0.0234,0.0559054414710998));
#1648=CARTESIAN_POINT('',(-0.0813522370310278,0.0234,0.0154370193859855));
#1649=CARTESIAN_POINT('',(0.0448709463252797,0.0254,0.0154283017929197));
#1650=CARTESIAN_POINT('',(0.0219123907483408,0.0254,0.0584054414710999));
#1651=CARTESIAN_POINT('',(0.0219123907483408,0.0254,0.0609054414710999));
#1652=CARTESIAN_POINT('',(0.0701014956959843,0.0254,0.0584054414710999));
#1653=CARTESIAN_POINT('',(0.0701014956959843,0.0254,0.0609054414710999));
#1654=CARTESIAN_POINT('',(0.123097812688786,0.0254,0.0609054414710999));
#1655=CARTESIAN_POINT('',(0.176094129681587,0.0254,0.0609054414710999));
#1656=CARTESIAN_POINT('',(0.176094129681587,0.0254,0.0154283017929197));
#1657=CARTESIAN_POINT('',(0.176094129681587,0.0254,-0.0300488378852606));
#1658=CARTESIAN_POINT('',(0.0448709463252797,0.0254,-0.0300488378852606));
#1659=CARTESIAN_POINT('',(-0.0863522370310278,0.0254,-0.0300488378852606));
#1660=CARTESIAN_POINT('',(-0.0863522370310278,0.0254,0.0154283017929197));
#1661=CARTESIAN_POINT('',(-0.0863522370310278,0.0254,0.0609054414710999));
#1662=CARTESIAN_POINT('',(-0.0322199231413435,0.0254,0.0609054414710999));
#1663=CARTESIAN_POINT('',(0.0916333561077968,0.0254,0.0348230732699253));
#1664=CARTESIAN_POINT('',(0.0916333561077968,0.0254,0.0338230732699253));
#1665=CARTESIAN_POINT('',(0.0155028555639506,0.0254,-0.00307850154023902));
#1666=CARTESIAN_POINT('',(0.0155028555639506,0.0254,-0.00407850154023903));
#1667=CARTESIAN_POINT('',(0.0726674899018049,0.0254,-0.00307850154023902));
#1668=CARTESIAN_POINT('',(0.0726674899018049,0.0254,-0.00407850154023903));
#1669=CARTESIAN_POINT('',(-0.0602385869792384,0.0254,0.0346548002974892));
#1670=CARTESIAN_POINT('',(-0.0602385869792384,0.0254,0.0336548002974891));
#1671=CARTESIAN_POINT('',(-0.0413079290974675,0.0254,0.0346561927348984));
#1672=CARTESIAN_POINT('',(-0.0413079290974675,0.0254,0.0336561927348984));
#1673=CARTESIAN_POINT('',(-0.0222024924758207,0.0254,0.0348230732699253));
#1674=CARTESIAN_POINT('',(-0.0222024924758207,0.0254,0.0338230732699253));
#1675=CARTESIAN_POINT('',(-0.003273033327597,0.0254,0.0348230732699253));
#1676=CARTESIAN_POINT('',(-0.003273033327597,0.0254,0.0338230732699253));
#1677=CARTESIAN_POINT('',(-0.0602385869792384,0.0254,0.0157324826447105));
#1678=CARTESIAN_POINT('',(-0.0602385869792384,0.0254,0.0147324826447104));
#1679=CARTESIAN_POINT('',(-0.0413242468049147,0.0254,0.0157213394263284));
#1680=CARTESIAN_POINT('',(-0.0413242468049147,0.0254,0.0147213394263284));
#1681=CARTESIAN_POINT('',(-0.0224169741996284,0.0254,0.0157213394263284));
#1682=CARTESIAN_POINT('',(-0.0224169741996284,0.0254,0.0147213394263284));
#1683=CARTESIAN_POINT('',(-0.00342386802465621,0.0254,0.0157324826447105));
#1684=CARTESIAN_POINT('',(-0.00342386802465621,0.0254,0.0147324826447104));
#1685=CARTESIAN_POINT('',(0.129453289901805,0.0254,0.0346739009370566));
#1686=CARTESIAN_POINT('',(0.129453289901805,0.0254,0.0336739009370566));
#1687=CARTESIAN_POINT('',(0.14837810370345,0.0254,0.0346777654857577));
#1688=CARTESIAN_POINT('',(0.14837810370345,0.0254,0.0336777654857577));
#1689=CARTESIAN_POINT('',(0.0915903777410005,0.0254,0.015742207002818));
#1690=CARTESIAN_POINT('',(0.0915903777410005,0.0254,0.014742207002818));
#1691=CARTESIAN_POINT('',(0.110542103044506,0.0254,0.015742207002818));
#1692=CARTESIAN_POINT('',(0.110542103044506,0.0254,0.014742207002818));
#1693=CARTESIAN_POINT('',(0.129453289901805,0.0254,0.0157359969537901));
#1694=CARTESIAN_POINT('',(0.129453289901805,0.0254,0.0147359969537901));
#1695=CARTESIAN_POINT('',(0.148381889901805,0.0254,0.0157359969537901));
#1696=CARTESIAN_POINT('',(0.148381889901805,0.0254,0.0147359969537901));
#1697=CARTESIAN_POINT('',(0.11049316901843,0.0254,0.0348230732699253));
#1698=CARTESIAN_POINT('',(0.11049316901843,0.0254,0.0338230732699253));
#1699=CARTESIAN_POINT('',(0.0916333561077968,0.0239,0.0348230732699253));
#1700=CARTESIAN_POINT('',(0.0916333561077968,0.0239,0.0348230732699253));
#1701=CARTESIAN_POINT('',(0.0916333561077968,0.0239,0.0338230732699253));
#1702=CARTESIAN_POINT('',(0.0448709463252797,0.0239,0.0154283017929197));
#1703=CARTESIAN_POINT('',(0.0155028555639506,0.0239,-0.00307850154023902));
#1704=CARTESIAN_POINT('',(0.0155028555639506,0.0239,-0.00307850154023902));
#1705=CARTESIAN_POINT('',(0.0155028555639506,0.0239,-0.00407850154023903));
#1706=CARTESIAN_POINT('',(0.0448709463252797,0.0239,0.0154283017929197));
#1707=CARTESIAN_POINT('',(0.0726674899018049,0.0239,-0.00307850154023902));
#1708=CARTESIAN_POINT('',(0.0726674899018049,0.0239,-0.00307850154023902));
#1709=CARTESIAN_POINT('',(0.0726674899018049,0.0239,-0.00407850154023903));
#1710=CARTESIAN_POINT('',(0.0448709463252797,0.0239,0.0154283017929197));
#1711=CARTESIAN_POINT('',(-0.0602385869792384,0.0239,0.0346548002974892));
#1712=CARTESIAN_POINT('',(-0.0602385869792384,0.0239,0.0346548002974892));
#1713=CARTESIAN_POINT('',(-0.0602385869792384,0.0239,0.0336548002974891));
#1714=CARTESIAN_POINT('',(0.0448709463252797,0.0239,0.0154283017929197));
#1715=CARTESIAN_POINT('',(-0.0413079290974675,0.0239,0.0346561927348984));
#1716=CARTESIAN_POINT('',(-0.0413079290974675,0.0239,0.0346561927348984));
#1717=CARTESIAN_POINT('',(-0.0413079290974675,0.0239,0.0336561927348984));
#1718=CARTESIAN_POINT('',(0.0448709463252797,0.0239,0.0154283017929197));
#1719=CARTESIAN_POINT('',(-0.0222024924758207,0.0239,0.0348230732699253));
#1720=CARTESIAN_POINT('',(-0.0222024924758207,0.0239,0.0348230732699253));
#1721=CARTESIAN_POINT('',(-0.0222024924758207,0.0239,0.0338230732699253));
#1722=CARTESIAN_POINT('',(0.0448709463252797,0.0239,0.0154283017929197));
#1723=CARTESIAN_POINT('',(-0.003273033327597,0.0239,0.0348230732699253));
#1724=CARTESIAN_POINT('',(-0.003273033327597,0.0239,0.0348230732699253));
#1725=CARTESIAN_POINT('',(-0.003273033327597,0.0239,0.0338230732699253));
#1726=CARTESIAN_POINT('',(0.0448709463252797,0.0239,0.0154283017929197));
#1727=CARTESIAN_POINT('',(-0.0602385869792384,0.0239,0.0157324826447105));
#1728=CARTESIAN_POINT('',(-0.0602385869792384,0.0239,0.0157324826447105));
#1729=CARTESIAN_POINT('',(-0.0602385869792384,0.0239,0.0147324826447104));
#1730=CARTESIAN_POINT('',(0.0448709463252797,0.0239,0.0154283017929197));
#1731=CARTESIAN_POINT('',(-0.0413242468049147,0.0239,0.0157213394263284));
#1732=CARTESIAN_POINT('',(-0.0413242468049147,0.0239,0.0157213394263284));
#1733=CARTESIAN_POINT('',(-0.0413242468049147,0.0239,0.0147213394263284));
#1734=CARTESIAN_POINT('',(0.0448709463252797,0.0239,0.0154283017929197));
#1735=CARTESIAN_POINT('',(-0.0224169741996284,0.0239,0.0157213394263284));
#1736=CARTESIAN_POINT('',(-0.0224169741996284,0.0239,0.0157213394263284));
#1737=CARTESIAN_POINT('',(-0.0224169741996284,0.0239,0.0147213394263284));
#1738=CARTESIAN_POINT('',(0.0448709463252797,0.0239,0.0154283017929197));
#1739=CARTESIAN_POINT('',(-0.00342386802465621,0.0239,0.0157324826447105));
#1740=CARTESIAN_POINT('',(-0.00342386802465621,0.0239,0.0157324826447105));
#1741=CARTESIAN_POINT('',(-0.00342386802465621,0.0239,0.0147324826447104));
#1742=CARTESIAN_POINT('',(0.0448709463252797,0.0239,0.0154283017929197));
#1743=CARTESIAN_POINT('',(0.129453289901805,0.0239,0.0346739009370566));
#1744=CARTESIAN_POINT('',(0.129453289901805,0.0239,0.0346739009370566));
#1745=CARTESIAN_POINT('',(0.129453289901805,0.0239,0.0336739009370566));
#1746=CARTESIAN_POINT('',(0.0448709463252797,0.0239,0.0154283017929197));
#1747=CARTESIAN_POINT('',(0.14837810370345,0.0239,0.0346777654857577));
#1748=CARTESIAN_POINT('',(0.14837810370345,0.0239,0.0346777654857577));
#1749=CARTESIAN_POINT('',(0.14837810370345,0.0239,0.0336777654857577));
#1750=CARTESIAN_POINT('',(0.0448709463252797,0.0239,0.0154283017929197));
#1751=CARTESIAN_POINT('',(0.0915903777410005,0.0239,0.015742207002818));
#1752=CARTESIAN_POINT('',(0.0915903777410005,0.0239,0.015742207002818));
#1753=CARTESIAN_POINT('',(0.0915903777410005,0.0239,0.014742207002818));
#1754=CARTESIAN_POINT('',(0.0448709463252797,0.0239,0.0154283017929197));
#1755=CARTESIAN_POINT('',(0.110542103044506,0.0239,0.015742207002818));
#1756=CARTESIAN_POINT('',(0.110542103044506,0.0239,0.015742207002818));
#1757=CARTESIAN_POINT('',(0.110542103044506,0.0239,0.014742207002818));
#1758=CARTESIAN_POINT('',(0.0448709463252797,0.0239,0.0154283017929197));
#1759=CARTESIAN_POINT('',(0.129453289901805,0.0239,0.0157359969537901));
#1760=CARTESIAN_POINT('',(0.129453289901805,0.0239,0.0157359969537901));
#1761=CARTESIAN_POINT('',(0.129453289901805,0.0239,0.0147359969537901));
#1762=CARTESIAN_POINT('',(0.0448709463252797,0.0239,0.0154283017929197));
#1763=CARTESIAN_POINT('',(0.148381889901805,0.0239,0.0157359969537901));
#1764=CARTESIAN_POINT('',(0.148381889901805,0.0239,0.0157359969537901));
#1765=CARTESIAN_POINT('',(0.148381889901805,0.0239,0.0147359969537901));
#1766=CARTESIAN_POINT('',(0.0448709463252797,0.0239,0.0154283017929197));
#1767=CARTESIAN_POINT('',(0.11049316901843,0.0239,0.0348230732699253));
#1768=CARTESIAN_POINT('',(0.11049316901843,0.0239,0.0348230732699253));
#1769=CARTESIAN_POINT('',(0.11049316901843,0.0239,0.0338230732699253));
#1770=CARTESIAN_POINT('',(0.0448709463252797,0.0239,0.0154283017929197));
#1771=CARTESIAN_POINT('',(-0.0498573096526916,0.0154,-0.0250314026991287));
#1772=CARTESIAN_POINT('',(0.171059762968972,0.0154,-0.0250314026991287));
#1773=CARTESIAN_POINT('',(0.171059762968972,0.0154,-0.0250314026991287));
#1774=CARTESIAN_POINT('',(-0.0813522370310278,0.0154,-0.0250314026991287));
#1775=CARTESIAN_POINT('',(-0.0813522370310278,0.0154,-0.0250314026991287));
#1776=CARTESIAN_POINT('',(-0.0498573096526916,0.0154,-0.0250314026991287));
#1777=CARTESIAN_POINT('',(0.171059762968972,0.0154,0.0154370193859856));
#1778=CARTESIAN_POINT('',(0.171059762968972,0.0154,0.0559054414710999));
#1779=CARTESIAN_POINT('',(0.171059762968972,0.0154,0.0559054414710999));
#1780=CARTESIAN_POINT('',(0.171059762968972,0.0154,0.0154370193859856));
#1781=CARTESIAN_POINT('',(-0.0297199231413435,0.0154,0.0559054414710998));
#1782=CARTESIAN_POINT('',(-0.0813522370310278,0.0154,0.0559054414710998));
#1783=CARTESIAN_POINT('',(-0.0813522370310278,0.0154,0.0559054414710998));
#1784=CARTESIAN_POINT('',(0.0219123907483408,0.0154,0.0559054414710999));
#1785=CARTESIAN_POINT('',(0.0219123907483408,0.0154,0.0559054414710999));
#1786=CARTESIAN_POINT('',(-0.0297199231413435,0.0154,0.0559054414710998));
#1787=CARTESIAN_POINT('',(0.120580629332478,0.0154,0.0559054414710999));
#1788=CARTESIAN_POINT('',(0.0701014956959843,0.0154,0.0559054414710999));
#1789=CARTESIAN_POINT('',(0.0701014956959843,0.0154,0.0559054414710999));
#1790=CARTESIAN_POINT('',(0.120580629332478,0.0154,0.0559054414710999));
#1791=CARTESIAN_POINT('',(-0.0813522370310278,0.0154,0.0154370193859855));
#1792=CARTESIAN_POINT('',(-0.0813522370310278,0.0154,0.0154370193859855));
#1793=CARTESIAN_POINT('',(0.0219123907483408,0.0154,0.0584054414710999));
#1794=CARTESIAN_POINT('',(0.0219123907483408,0.0154,0.0609054414710999));
#1795=CARTESIAN_POINT('',(0.0219123907483408,0.0154,0.0609054414710999));
#1796=CARTESIAN_POINT('',(0.0219123907483408,0.0154,0.0584054414710999));
#1797=CARTESIAN_POINT('',(-0.0322199231413435,0.0154,0.0609054414710999));
#1798=CARTESIAN_POINT('',(-0.0863522370310278,0.0154,0.0609054414710999));
#1799=CARTESIAN_POINT('',(-0.0863522370310278,0.0154,0.0609054414710999));
#1800=CARTESIAN_POINT('',(-0.0322199231413435,0.0154,0.0609054414710999));
#1801=CARTESIAN_POINT('',(-0.0863522370310278,0.0154,0.0154283017929197));
#1802=CARTESIAN_POINT('',(-0.0863522370310278,0.0154,-0.0300488378852606));
#1803=CARTESIAN_POINT('',(-0.0863522370310278,0.0154,-0.0300488378852606));
#1804=CARTESIAN_POINT('',(-0.0863522370310278,0.0154,0.0154283017929197));
#1805=CARTESIAN_POINT('',(0.0448709463252797,0.0154,-0.0300488378852606));
#1806=CARTESIAN_POINT('',(0.176094129681587,0.0154,-0.0300488378852606));
#1807=CARTESIAN_POINT('',(0.176094129681587,0.0154,-0.0300488378852606));
#1808=CARTESIAN_POINT('',(0.0448709463252797,0.0154,-0.0300488378852606));
#1809=CARTESIAN_POINT('',(0.176094129681587,0.0154,0.0154283017929197));
#1810=CARTESIAN_POINT('',(0.176094129681587,0.0154,0.0609054414710999));
#1811=CARTESIAN_POINT('',(0.176094129681587,0.0154,0.0609054414710999));
#1812=CARTESIAN_POINT('',(0.176094129681587,0.0154,0.0154283017929197));
#1813=CARTESIAN_POINT('',(0.123097812688786,0.0154,0.0609054414710999));
#1814=CARTESIAN_POINT('',(0.0701014956959843,0.0154,0.0609054414710999));
#1815=CARTESIAN_POINT('',(0.0701014956959843,0.0154,0.0609054414710999));
#1816=CARTESIAN_POINT('',(0.123097812688786,0.0154,0.0609054414710999));
#1817=CARTESIAN_POINT('',(0.0701014956959843,0.0154,0.0584054414710999));
#1818=CARTESIAN_POINT('',(0.0701014956959843,0.0154,0.0584054414710999));
#1819=CARTESIAN_POINT('',(0.0448709463252797,0.0154,0.0154283017929197));
#1820=MECHANICAL_DESIGN_GEOMETRIC_PRESENTATION_REPRESENTATION('',(#1059),
#1821);
#1821=(
GEOMETRIC_REPRESENTATION_CONTEXT(3)
GLOBAL_UNCERTAINTY_ASSIGNED_CONTEXT((#1822))
GLOBAL_UNIT_ASSIGNED_CONTEXT((#1825,#1824,#1823))
REPRESENTATION_CONTEXT('Part 1','TOP_LEVEL_ASSEMBLY_PART')
);
#1822=UNCERTAINTY_MEASURE_WITH_UNIT(LENGTH_MEASURE(1.E-8),#1825,
'DISTANCE_ACCURACY_VALUE','Maximum Tolerance applied to model');
#1823=(
NAMED_UNIT(*)
SI_UNIT($,.STERADIAN.)
SOLID_ANGLE_UNIT()
);
#1824=(
NAMED_UNIT(*)
PLANE_ANGLE_UNIT()
SI_UNIT($,.RADIAN.)
);
#1825=(
LENGTH_UNIT()
NAMED_UNIT(*)
SI_UNIT($,.METRE.)
);
#1826=PRODUCT_DEFINITION_SHAPE('','',#1827);
#1827=PRODUCT_DEFINITION('','',#1829,#1828);
#1828=PRODUCT_DEFINITION_CONTEXT('',#1835,'design');
#1829=PRODUCT_DEFINITION_FORMATION_WITH_SPECIFIED_SOURCE('','',#1831,
 .NOT_KNOWN.);
#1830=PRODUCT_RELATED_PRODUCT_CATEGORY('','',(#1831));
#1831=PRODUCT('Part 1','Part 1','Part 1',(#1833));
#1832=PRODUCT_CATEGORY('','');
#1833=PRODUCT_CONTEXT('',#1835,'mechanical');
#1834=APPLICATION_PROTOCOL_DEFINITION('international standard',
'ap242_managed_model_based_3d_engineering',2020,#1835);
#1835=APPLICATION_CONTEXT('managed model based 3d engineering');
ENDSEC;
END-ISO-10303-21;
