M48
; DRILL file KiCad 10.0.0 date 2026-04-23T22:17:00
; FORMAT={-:-/ absolute / metric / decimal}
; #@! TF.CreationDate,2026-04-23T22:17:00+05:30
; #@! TF.GenerationSoftware,Kicad,Pcbnew,10.0.0
; #@! TF.FileFunction,Plated,1,2,PTH
FMAT,2
METRIC
; #@! TA.AperFunction,Plated,PTH,ViaDrill
T1C0.300
; #@! TA.AperFunction,Plated,PTH,ComponentDrill
T2C0.800
; #@! TA.AperFunction,Plated,PTH,ComponentDrill
T3C1.000
; #@! TA.AperFunction,Plated,PTH,ComponentDrill
T4C1.100
; #@! TA.AperFunction,Plated,PTH,ComponentDrill
T5C1.500
%
G90
G05
T1
X50.006Y-90.487
X69.056Y-109.537
X88.106Y-119.062
X107.156Y-107.156
X107.156Y-119.062
X121.444Y-92.869
X130.969Y-95.25
X130.969Y-97.631
X133.35Y-92.869
X133.35Y-97.631
X152.4Y-88.106
X159.544Y-116.681
X161.925Y-95.25
X161.925Y-100.012
X161.925Y-142.875
X171.45Y-128.588
X171.45Y-133.35
X173.831Y-104.775
X178.594Y-123.825
X178.594Y-126.206
X190.5Y-109.537
X192.881Y-107.156
X192.881Y-130.969
X216.694Y-126.206
X219.075Y-135.1
T2
X42.862Y-91.44
X42.862Y-99.06
X42.862Y-109.537
X42.862Y-117.157
X61.912Y-91.44
X61.912Y-99.06
X61.912Y-109.537
X61.912Y-117.157
X61.912Y-129.54
X61.912Y-137.16
X80.962Y-91.44
X80.962Y-99.06
X80.962Y-109.537
X80.962Y-117.157
X80.962Y-129.54
X80.962Y-137.16
X100.012Y-91.44
X100.012Y-99.06
X100.012Y-109.537
X100.012Y-117.157
X100.012Y-129.54
X100.012Y-137.16
X119.062Y-91.44
X119.062Y-99.06
X119.062Y-109.537
X119.062Y-117.157
X119.062Y-129.54
X119.062Y-137.16
X157.162Y-148.59
X157.162Y-156.21
X195.262Y-91.44
X195.262Y-99.06
X195.262Y-109.537
X195.262Y-117.157
X195.262Y-129.54
X195.262Y-137.16
X214.312Y-91.44
X214.312Y-99.06
X214.312Y-109.537
X214.312Y-117.157
X214.312Y-129.54
X214.312Y-137.16
X233.362Y-91.44
X233.362Y-99.06
X233.362Y-109.537
X233.362Y-117.157
X233.362Y-129.54
X233.362Y-137.16
X252.412Y-91.44
X252.412Y-99.06
X252.412Y-109.537
X252.412Y-117.157
X252.412Y-129.54
X252.412Y-137.16
X271.462Y-91.44
X271.462Y-99.06
X271.462Y-109.537
X271.462Y-117.157
T3
X138.112Y-86.36
X138.112Y-88.9
X138.112Y-91.44
X138.112Y-93.98
X138.112Y-96.52
X138.112Y-99.06
X138.112Y-101.6
X138.112Y-104.14
X138.112Y-106.68
X138.112Y-109.22
X138.112Y-111.76
X138.112Y-114.3
X138.112Y-116.84
X138.112Y-119.38
X138.112Y-121.92
X138.112Y-124.46
X138.112Y-127.0
X138.112Y-129.54
X138.112Y-132.08
X138.112Y-134.62
X155.892Y-86.36
X155.892Y-88.9
X155.892Y-91.44
X155.892Y-93.98
X155.892Y-96.52
X155.892Y-99.06
X155.892Y-101.6
X155.892Y-104.14
X155.892Y-106.68
X155.892Y-109.22
X155.892Y-111.76
X155.892Y-114.3
X155.892Y-116.84
X155.892Y-119.38
X155.892Y-121.92
X155.892Y-124.46
X155.892Y-127.0
X155.892Y-129.54
X155.892Y-132.08
X155.892Y-134.62
T4
X163.438Y-109.669
X163.438Y-114.169
X169.938Y-109.669
X169.938Y-114.169
T5
X29.21Y-92.71
X29.21Y-111.76
X35.56Y-90.17
X35.56Y-109.22
X48.26Y-92.71
X48.26Y-111.76
X48.26Y-130.81
X54.61Y-90.17
X54.61Y-109.22
X54.61Y-128.27
X67.31Y-92.71
X67.31Y-111.76
X67.31Y-130.81
X73.66Y-90.17
X73.66Y-109.22
X73.66Y-128.27
X86.36Y-92.71
X86.36Y-111.76
X86.36Y-130.81
X92.71Y-90.17
X92.71Y-109.22
X92.71Y-128.27
X105.41Y-92.71
X105.41Y-111.76
X105.41Y-130.81
X111.76Y-90.17
X111.76Y-109.22
X111.76Y-128.27
X143.504Y-149.876
X149.854Y-147.336
X181.61Y-92.71
X181.61Y-111.76
X181.61Y-130.81
X187.96Y-90.17
X187.96Y-109.22
X187.96Y-128.27
X200.66Y-92.71
X200.66Y-111.76
X200.66Y-130.81
X207.01Y-90.17
X207.01Y-109.22
X207.01Y-128.27
X219.71Y-92.71
X219.71Y-111.76
X219.71Y-130.81
X226.06Y-90.17
X226.06Y-109.22
X226.06Y-128.27
X238.76Y-92.71
X238.76Y-111.76
X238.76Y-130.81
X245.11Y-90.17
X245.11Y-109.22
X245.11Y-128.27
X257.81Y-92.71
X257.81Y-111.76
X264.16Y-90.17
X264.16Y-109.22
M30
