M48
; DRILL file KiCad 10.0.0 date 2026-04-23T22:17:00
; FORMAT={-:-/ absolute / metric / decimal}
; #@! TF.CreationDate,2026-04-23T22:17:00+05:30
; #@! TF.GenerationSoftware,Kicad,Pcbnew,10.0.0
; #@! TF.FileFunction,NonPlated,1,2,NPTH
FMAT,2
METRIC
; #@! TA.AperFunction,NonPlated,NPTH,ComponentDrill
T1C1.750
; #@! TA.AperFunction,NonPlated,NPTH,ComponentDrill
T2C1.850
; #@! TA.AperFunction,NonPlated,NPTH,ComponentDrill
T3C2.200
; #@! TA.AperFunction,NonPlated,NPTH,ComponentDrill
T4C4.000
%
G90
G05
T1
X27.94Y-95.25
X27.94Y-114.3
X38.1Y-95.25
X38.1Y-114.3
X46.99Y-95.25
X46.99Y-114.3
X46.99Y-133.35
X57.15Y-95.25
X57.15Y-114.3
X57.15Y-133.35
X66.04Y-95.25
X66.04Y-114.3
X66.04Y-133.35
X76.2Y-95.25
X76.2Y-114.3
X76.2Y-133.35
X85.09Y-95.25
X85.09Y-114.3
X85.09Y-133.35
X95.25Y-95.25
X95.25Y-114.3
X95.25Y-133.35
X104.14Y-95.25
X104.14Y-114.3
X104.14Y-133.35
X114.3Y-95.25
X114.3Y-114.3
X114.3Y-133.35
X142.234Y-152.416
X152.394Y-152.416
X180.34Y-95.25
X180.34Y-114.3
X180.34Y-133.35
X190.5Y-95.25
X190.5Y-114.3
X190.5Y-133.35
X199.39Y-95.25
X199.39Y-114.3
X199.39Y-133.35
X209.55Y-95.25
X209.55Y-114.3
X209.55Y-133.35
X218.44Y-95.25
X218.44Y-114.3
X218.44Y-133.35
X228.6Y-95.25
X228.6Y-114.3
X228.6Y-133.35
X237.49Y-95.25
X237.49Y-114.3
X237.49Y-133.35
X247.65Y-95.25
X247.65Y-114.3
X247.65Y-133.35
X256.54Y-95.25
X256.54Y-114.3
X266.7Y-95.25
X266.7Y-114.3
T2
X144.577Y-89.52
X149.427Y-89.52
T3
X42.519Y-123.821
X42.599Y-104.771
X61.599Y-123.851
X61.649Y-104.721
X80.649Y-104.811
X80.659Y-123.831
X99.679Y-142.791
X99.699Y-104.661
X99.699Y-123.741
X144.278Y-86.49
X149.727Y-86.49
X194.849Y-124.061
X194.909Y-142.841
X195.262Y-104.775
X213.919Y-104.601
X213.989Y-123.831
X233.049Y-104.701
X233.099Y-123.781
X252.029Y-104.751
X252.079Y-123.781
T4
X33.02Y-95.25
X33.02Y-114.3
X52.07Y-95.25
X52.07Y-114.3
X52.07Y-133.35
X71.12Y-95.25
X71.12Y-114.3
X71.12Y-133.35
X90.17Y-95.25
X90.17Y-114.3
X90.17Y-133.35
X109.22Y-95.25
X109.22Y-114.3
X109.22Y-133.35
X147.314Y-152.416
X185.42Y-95.25
X185.42Y-114.3
X185.42Y-133.35
X204.47Y-95.25
X204.47Y-114.3
X204.47Y-133.35
X223.52Y-95.25
X223.52Y-114.3
X223.52Y-133.35
X242.57Y-95.25
X242.57Y-114.3
X242.57Y-133.35
X261.62Y-95.25
X261.62Y-114.3
M30
