%TF.GenerationSoftware,KiCad,Pcbnew,10.0.0*%
%TF.CreationDate,2026-04-23T22:08:07+05:30*%
%TF.ProjectId,mech_Keyboard,6d656368-5f4b-4657-9962-6f6172642e6b,rev?*%
%TF.SameCoordinates,Original*%
%TF.FileFunction,Copper,L2,Bot*%
%TF.FilePolarity,Positive*%
%FSLAX46Y46*%
G04 Gerber Fmt 4.6, Leading zero omitted, Abs format (unit mm)*
G04 Created by KiCad (PCBNEW 10.0.0) date 2026-04-23 22:08:07*
%MOMM*%
%LPD*%
G01*
G04 APERTURE LIST*
G04 Aperture macros list*
%AMRoundRect*
0 Rectangle with rounded corners*
0 $1 Rounding radius*
0 $2 $3 $4 $5 $6 $7 $8 $9 X,Y pos of 4 corners*
0 Add a 4 corners polygon primitive as box body*
4,1,4,$2,$3,$4,$5,$6,$7,$8,$9,$2,$3,0*
0 Add four circle primitives for the rounded corners*
1,1,$1+$1,$2,$3*
1,1,$1+$1,$4,$5*
1,1,$1+$1,$6,$7*
1,1,$1+$1,$8,$9*
0 Add four rect primitives between the rounded corners*
20,1,$1+$1,$2,$3,$4,$5,0*
20,1,$1+$1,$4,$5,$6,$7,0*
20,1,$1+$1,$6,$7,$8,$9,0*
20,1,$1+$1,$8,$9,$2,$3,0*%
%AMFreePoly0*
4,1,37,0.603843,0.796157,0.639018,0.796157,0.711114,0.766294,0.766294,0.711114,0.796157,0.639018,0.796157,0.603843,0.800000,0.600000,0.800000,-0.600000,0.796157,-0.603843,0.796157,-0.639018,0.766294,-0.711114,0.711114,-0.766294,0.639018,-0.796157,0.603843,-0.796157,0.600000,-0.800000,0.000000,-0.800000,0.000000,-0.796148,-0.078414,-0.796148,-0.232228,-0.765552,-0.377117,-0.705537,
-0.507515,-0.618408,-0.618408,-0.507515,-0.705537,-0.377117,-0.765552,-0.232228,-0.796148,-0.078414,-0.796148,0.078414,-0.765552,0.232228,-0.705537,0.377117,-0.618408,0.507515,-0.507515,0.618408,-0.377117,0.705537,-0.232228,0.765552,-0.078414,0.796148,0.000000,0.796148,0.000000,0.800000,0.600000,0.800000,0.603843,0.796157,0.603843,0.796157,$1*%
%AMFreePoly1*
4,1,37,0.000000,0.796148,0.078414,0.796148,0.232228,0.765552,0.377117,0.705537,0.507515,0.618408,0.618408,0.507515,0.705537,0.377117,0.765552,0.232228,0.796148,0.078414,0.796148,-0.078414,0.765552,-0.232228,0.705537,-0.377117,0.618408,-0.507515,0.507515,-0.618408,0.377117,-0.705537,0.232228,-0.765552,0.078414,-0.796148,0.000000,-0.796148,0.000000,-0.800000,-0.600000,-0.800000,
-0.603843,-0.796157,-0.639018,-0.796157,-0.711114,-0.766294,-0.766294,-0.711114,-0.796157,-0.639018,-0.796157,-0.603843,-0.800000,-0.600000,-0.800000,0.600000,-0.796157,0.603843,-0.796157,0.639018,-0.766294,0.711114,-0.711114,0.766294,-0.639018,0.796157,-0.603843,0.796157,-0.600000,0.800000,0.000000,0.800000,0.000000,0.796148,0.000000,0.796148,$1*%
G04 Aperture macros list end*
%TA.AperFunction,ComponentPad*%
%ADD10C,2.500000*%
%TD*%
%TA.AperFunction,ComponentPad*%
%ADD11R,1.600000X1.600000*%
%TD*%
%TA.AperFunction,ComponentPad*%
%ADD12O,1.600000X1.600000*%
%TD*%
%TA.AperFunction,ComponentPad*%
%ADD13RoundRect,0.200000X-0.600000X-0.600000X0.600000X-0.600000X0.600000X0.600000X-0.600000X0.600000X0*%
%TD*%
%TA.AperFunction,ComponentPad*%
%ADD14C,1.600000*%
%TD*%
%TA.AperFunction,ComponentPad*%
%ADD15FreePoly0,0.000000*%
%TD*%
%TA.AperFunction,ComponentPad*%
%ADD16FreePoly1,0.000000*%
%TD*%
%TA.AperFunction,ComponentPad*%
%ADD17C,2.000000*%
%TD*%
%TA.AperFunction,ViaPad*%
%ADD18C,0.600000*%
%TD*%
%TA.AperFunction,Conductor*%
%ADD19C,0.200000*%
%TD*%
G04 APERTURE END LIST*
D10*
%TO.P,S30,1,1_1*%
%TO.N,COLUMN12*%
X200660000Y-111760000D03*
%TO.P,S30,2,2_2*%
%TO.N,Net-(D30-A)*%
X207010000Y-109220000D03*
%TD*%
D11*
%TO.P,D45,1,K_1*%
%TO.N,ROW2*%
X80962500Y-137160000D03*
D12*
%TO.P,D45,2,A_2*%
%TO.N,Net-(D45-A)*%
X80962500Y-129540000D03*
%TD*%
D11*
%TO.P,D11,1,K_1*%
%TO.N,ROW4*%
X195262500Y-99060000D03*
D12*
%TO.P,D11,2,A_2*%
%TO.N,Net-(D11-A)*%
X195262500Y-91440000D03*
%TD*%
D10*
%TO.P,S13,1,1_1*%
%TO.N,COLUMN13*%
X219710000Y-92710000D03*
%TO.P,S13,2,2_2*%
%TO.N,Net-(D13-A)*%
X226060000Y-90170000D03*
%TD*%
D11*
%TO.P,D32,1,K_1*%
%TO.N,ROW3*%
X252412500Y-117157500D03*
D12*
%TO.P,D32,2,A_2*%
%TO.N,Net-(D32-A)*%
X252412500Y-109537500D03*
%TD*%
D11*
%TO.P,D4,1,K_1*%
%TO.N,ROW4*%
X61912500Y-99060000D03*
D12*
%TO.P,D4,2,A_2*%
%TO.N,Net-(D4-A)*%
X61912500Y-91440000D03*
%TD*%
D10*
%TO.P,S49,1,1_1*%
%TO.N,COLUMN7*%
X105410000Y-130810000D03*
%TO.P,S49,2,2_2*%
%TO.N,Net-(D49-A)*%
X111760000Y-128270000D03*
%TD*%
%TO.P,S6,1,1_1*%
%TO.N,COLUMN6*%
X86360000Y-92710000D03*
%TO.P,S6,2,2_2*%
%TO.N,Net-(D6-A)*%
X92710000Y-90170000D03*
%TD*%
%TO.P,S5,1,1_1*%
%TO.N,COLUMN5*%
X67310000Y-92710000D03*
%TO.P,S5,2,2_2*%
%TO.N,Net-(D5-A)*%
X73660000Y-90170000D03*
%TD*%
D13*
%TO.P,A1,1,GPIO0_1*%
%TO.N,ROW1*%
X138112500Y-86360000D03*
D14*
%TO.P,A1,2,GPIO1_2*%
%TO.N,ROW2*%
X138112500Y-88900000D03*
D15*
%TO.P,A1,3,GND_3*%
%TO.N,GND*%
X138112500Y-91440000D03*
D14*
%TO.P,A1,4,GPIO2_4*%
%TO.N,ROW3*%
X138112500Y-93980000D03*
%TO.P,A1,5,GPIO3_5*%
%TO.N,ROW4*%
X138112500Y-96520000D03*
%TO.P,A1,6,GPIO4_6*%
%TO.N,unconnected-(A1-GPIO4-Pad6)*%
X138112500Y-99060000D03*
%TO.P,A1,7,GPIO5_7*%
%TO.N,unconnected-(A1-GPIO5-Pad7)*%
X138112500Y-101600000D03*
D15*
%TO.P,A1,8,GND_8*%
%TO.N,GND*%
X138112500Y-104140000D03*
D14*
%TO.P,A1,9,GPIO6_9*%
%TO.N,COLUMN3*%
X138112500Y-106680000D03*
%TO.P,A1,10,GPIO7_10*%
%TO.N,COLUMN4*%
X138112500Y-109220000D03*
%TO.P,A1,11,GPIO8_11*%
%TO.N,COLUMN5*%
X138112500Y-111760000D03*
%TO.P,A1,12,GPIO9_12*%
%TO.N,COLUMN6*%
X138112500Y-114300000D03*
D15*
%TO.P,A1,13,GND_13*%
%TO.N,GND*%
X138112500Y-116840000D03*
D14*
%TO.P,A1,14,GPIO10_14*%
%TO.N,COLUMN7*%
X138112500Y-119380000D03*
%TO.P,A1,15,GPIO11_15*%
%TO.N,unconnected-(A1-GPIO11-Pad15)*%
X138112500Y-121920000D03*
%TO.P,A1,16,GPIO12_16*%
%TO.N,unconnected-(A1-GPIO12-Pad16)*%
X138112500Y-124460000D03*
%TO.P,A1,17,GPIO13_17*%
%TO.N,unconnected-(A1-GPIO13-Pad17)*%
X138112500Y-127000000D03*
D15*
%TO.P,A1,18,GND_18*%
%TO.N,GND*%
X138112500Y-129540000D03*
D14*
%TO.P,A1,19,GPIO14_19*%
%TO.N,COLUMN11*%
X138112500Y-132080000D03*
%TO.P,A1,20,GPIO15_20*%
%TO.N,COLUMN12*%
X138112500Y-134620000D03*
%TO.P,A1,21,GPIO16_21*%
%TO.N,COLUMN13*%
X155892500Y-134620000D03*
%TO.P,A1,22,GPIO17_22*%
%TO.N,COLUMN14*%
X155892500Y-132080000D03*
D16*
%TO.P,A1,23,GND_23*%
%TO.N,GND*%
X155892500Y-129540000D03*
D14*
%TO.P,A1,24,GPIO18_24*%
%TO.N,COLUMN15*%
X155892500Y-127000000D03*
%TO.P,A1,25,GPIO19_25*%
%TO.N,unconnected-(A1-GPIO19-Pad25)*%
X155892500Y-124460000D03*
%TO.P,A1,26,GPIO20_26*%
%TO.N,unconnected-(A1-GPIO20-Pad26)*%
X155892500Y-121920000D03*
%TO.P,A1,27,GPIO21_27*%
%TO.N,unconnected-(A1-GPIO21-Pad27)*%
X155892500Y-119380000D03*
D16*
%TO.P,A1,28,GND_28*%
%TO.N,GND*%
X155892500Y-116840000D03*
D14*
%TO.P,A1,29,GPIO22_29*%
%TO.N,unconnected-(A1-GPIO22-Pad29)*%
X155892500Y-114300000D03*
%TO.P,A1,30,RUN_30*%
%TO.N,Net-(A1-RUN)*%
X155892500Y-111760000D03*
%TO.P,A1,31,GPIO26_ADC0_31*%
%TO.N,unconnected-(A1-GPIO26_ADC0-Pad31)*%
X155892500Y-109220000D03*
%TO.P,A1,32,GPIO27_ADC1_32*%
%TO.N,unconnected-(A1-GPIO27_ADC1-Pad32)*%
X155892500Y-106680000D03*
D16*
%TO.P,A1,33,AGND_33*%
%TO.N,GND*%
X155892500Y-104140000D03*
D14*
%TO.P,A1,34,GPIO28_ADC2_34*%
%TO.N,unconnected-(A1-GPIO28_ADC2-Pad34)*%
X155892500Y-101600000D03*
%TO.P,A1,35,ADC_VREF_35*%
%TO.N,Net-(A1-ADC_VREF)*%
X155892500Y-99060000D03*
%TO.P,A1,36,3V3_36*%
%TO.N,Net-(A1-3V3)*%
X155892500Y-96520000D03*
%TO.P,A1,37,3V3_EN_37*%
%TO.N,unconnected-(A1-3V3_EN-Pad37)*%
X155892500Y-93980000D03*
D16*
%TO.P,A1,38,GND_38*%
%TO.N,GND*%
X155892500Y-91440000D03*
D14*
%TO.P,A1,39,VSYS_39*%
%TO.N,unconnected-(A1-VSYS-Pad39)*%
X155892500Y-88900000D03*
%TO.P,A1,40,VBUS_40*%
%TO.N,unconnected-(A1-VBUS-Pad40)*%
X155892500Y-86360000D03*
%TD*%
D11*
%TO.P,D56,1,K_1*%
%TO.N,ROW1*%
X157162500Y-156210000D03*
D12*
%TO.P,D56,2,A_2*%
%TO.N,Net-(D56-A)*%
X157162500Y-148590000D03*
%TD*%
D10*
%TO.P,S12,1,1_1*%
%TO.N,COLUMN12*%
X200660000Y-92710000D03*
%TO.P,S12,2,2_2*%
%TO.N,Net-(D12-A)*%
X207010000Y-90170000D03*
%TD*%
D11*
%TO.P,D49,1,K_1*%
%TO.N,ROW2*%
X119062500Y-137160000D03*
D12*
%TO.P,D49,2,A_2*%
%TO.N,Net-(D49-A)*%
X119062500Y-129540000D03*
%TD*%
D10*
%TO.P,S57,1,1_1*%
%TO.N,COLUMN11*%
X181610000Y-130810000D03*
%TO.P,S57,2,2_2*%
%TO.N,Net-(D57-A)*%
X187960000Y-128270000D03*
%TD*%
%TO.P,S14,1,1_1*%
%TO.N,COLUMN14*%
X238760000Y-92710000D03*
%TO.P,S14,2,2_2*%
%TO.N,Net-(D14-A)*%
X245110000Y-90170000D03*
%TD*%
%TO.P,S7,1,1_1*%
%TO.N,COLUMN7*%
X105410000Y-92710000D03*
%TO.P,S7,2,2_2*%
%TO.N,Net-(D7-A)*%
X111760000Y-90170000D03*
%TD*%
D11*
%TO.P,D43,1,K_1*%
%TO.N,ROW2*%
X61912500Y-137160000D03*
D12*
%TO.P,D43,2,A_2*%
%TO.N,Net-(D43-A)*%
X61912500Y-129540000D03*
%TD*%
D10*
%TO.P,S32,1,1_1*%
%TO.N,COLUMN14*%
X238760000Y-111760000D03*
%TO.P,S32,2,2_2*%
%TO.N,Net-(D32-A)*%
X245110000Y-109220000D03*
%TD*%
%TO.P,S3,1,1_1*%
%TO.N,COLUMN3*%
X29210000Y-92710000D03*
%TO.P,S3,2,2_2*%
%TO.N,Net-(D3-A)*%
X35560000Y-90170000D03*
%TD*%
%TO.P,S33,1,1_1*%
%TO.N,COLUMN15*%
X257810000Y-111760000D03*
%TO.P,S33,2,2_2*%
%TO.N,Net-(D33-A)*%
X264160000Y-109220000D03*
%TD*%
D11*
%TO.P,D12,1,K_1*%
%TO.N,ROW4*%
X214312500Y-99060000D03*
D12*
%TO.P,D12,2,A_2*%
%TO.N,Net-(D12-A)*%
X214312500Y-91440000D03*
%TD*%
D10*
%TO.P,S11,1,1_1*%
%TO.N,COLUMN11*%
X181610000Y-92710000D03*
%TO.P,S11,2,2_2*%
%TO.N,Net-(D11-A)*%
X187960000Y-90170000D03*
%TD*%
%TO.P,S22,1,1_1*%
%TO.N,COLUMN4*%
X48260000Y-111760000D03*
%TO.P,S22,2,2_2*%
%TO.N,Net-(D22-A)*%
X54610000Y-109220000D03*
%TD*%
%TO.P,S56,1,1_1*%
%TO.N,COLUMN7*%
X143503750Y-149876250D03*
%TO.P,S56,2,2_2*%
%TO.N,Net-(D56-A)*%
X149853750Y-147336250D03*
%TD*%
D11*
%TO.P,D59,1,K_1*%
%TO.N,ROW2*%
X214312500Y-137160000D03*
D12*
%TO.P,D59,2,A_2*%
%TO.N,Net-(D59-A)*%
X214312500Y-129540000D03*
%TD*%
D10*
%TO.P,S45,1,1_1*%
%TO.N,COLUMN5*%
X67310000Y-130810000D03*
%TO.P,S45,2,2_2*%
%TO.N,Net-(D45-A)*%
X73660000Y-128270000D03*
%TD*%
%TO.P,S29,1,1_1*%
%TO.N,COLUMN11*%
X181610000Y-111760000D03*
%TO.P,S29,2,2_2*%
%TO.N,Net-(D29-A)*%
X187960000Y-109220000D03*
%TD*%
D11*
%TO.P,D29,1,K_1*%
%TO.N,ROW3*%
X195262500Y-117157500D03*
D12*
%TO.P,D29,2,A_2*%
%TO.N,Net-(D29-A)*%
X195262500Y-109537500D03*
%TD*%
D10*
%TO.P,S31,1,1_1*%
%TO.N,COLUMN13*%
X219710000Y-111760000D03*
%TO.P,S31,2,2_2*%
%TO.N,Net-(D31-A)*%
X226060000Y-109220000D03*
%TD*%
%TO.P,S43,1,1_1*%
%TO.N,COLUMN4*%
X48260000Y-130810000D03*
%TO.P,S43,2,2_2*%
%TO.N,Net-(D43-A)*%
X54610000Y-128270000D03*
%TD*%
%TO.P,S61,1,1_1*%
%TO.N,COLUMN13*%
X219710000Y-130810000D03*
%TO.P,S61,2,2_2*%
%TO.N,Net-(D61-A)*%
X226060000Y-128270000D03*
%TD*%
D11*
%TO.P,D22,1,K_1*%
%TO.N,ROW3*%
X61912500Y-117157500D03*
D12*
%TO.P,D22,2,A_2*%
%TO.N,Net-(D22-A)*%
X61912500Y-109537500D03*
%TD*%
D11*
%TO.P,D6,1,K_1*%
%TO.N,ROW4*%
X100012500Y-99060000D03*
D12*
%TO.P,D6,2,A_2*%
%TO.N,Net-(D6-A)*%
X100012500Y-91440000D03*
%TD*%
D10*
%TO.P,S15,1,1_1*%
%TO.N,COLUMN15*%
X257810000Y-92710000D03*
%TO.P,S15,2,2_2*%
%TO.N,Net-(D15-A)*%
X264160000Y-90170000D03*
%TD*%
D11*
%TO.P,D25,1,K_1*%
%TO.N,ROW3*%
X119062500Y-117157500D03*
D12*
%TO.P,D25,2,A_2*%
%TO.N,Net-(D25-A)*%
X119062500Y-109537500D03*
%TD*%
D10*
%TO.P,S21,1,1_1*%
%TO.N,COLUMN3*%
X29210000Y-111760000D03*
%TO.P,S21,2,2_2*%
%TO.N,Net-(D21-A)*%
X35560000Y-109220000D03*
%TD*%
%TO.P,S59,1,1_1*%
%TO.N,COLUMN12*%
X200660000Y-130810000D03*
%TO.P,S59,2,2_2*%
%TO.N,Net-(D59-A)*%
X207010000Y-128270000D03*
%TD*%
D11*
%TO.P,D7,1,K_1*%
%TO.N,ROW4*%
X119062500Y-99060000D03*
D12*
%TO.P,D7,2,A_2*%
%TO.N,Net-(D7-A)*%
X119062500Y-91440000D03*
%TD*%
D11*
%TO.P,D63,1,K_1*%
%TO.N,ROW2*%
X252412500Y-137160000D03*
D12*
%TO.P,D63,2,A_2*%
%TO.N,Net-(D63-A)*%
X252412500Y-129540000D03*
%TD*%
D10*
%TO.P,S47,1,1_1*%
%TO.N,COLUMN6*%
X86360000Y-130810000D03*
%TO.P,S47,2,2_2*%
%TO.N,Net-(D47-A)*%
X92710000Y-128270000D03*
%TD*%
%TO.P,S23,1,1_1*%
%TO.N,COLUMN5*%
X67310000Y-111760000D03*
%TO.P,S23,2,2_2*%
%TO.N,Net-(D23-A)*%
X73660000Y-109220000D03*
%TD*%
%TO.P,S24,1,1_1*%
%TO.N,COLUMN6*%
X86360000Y-111760000D03*
%TO.P,S24,2,2_2*%
%TO.N,Net-(D24-A)*%
X92710000Y-109220000D03*
%TD*%
D11*
%TO.P,D15,1,K_1*%
%TO.N,ROW4*%
X271462500Y-99060000D03*
D12*
%TO.P,D15,2,A_2*%
%TO.N,Net-(D15-A)*%
X271462500Y-91440000D03*
%TD*%
D11*
%TO.P,D14,1,K_1*%
%TO.N,ROW4*%
X252412500Y-99060000D03*
D12*
%TO.P,D14,2,A_2*%
%TO.N,Net-(D14-A)*%
X252412500Y-91440000D03*
%TD*%
D11*
%TO.P,D13,1,K_1*%
%TO.N,ROW4*%
X233362500Y-99060000D03*
D12*
%TO.P,D13,2,A_2*%
%TO.N,Net-(D13-A)*%
X233362500Y-91440000D03*
%TD*%
D11*
%TO.P,D23,1,K_1*%
%TO.N,ROW3*%
X80962500Y-117157500D03*
D12*
%TO.P,D23,2,A_2*%
%TO.N,Net-(D23-A)*%
X80962500Y-109537500D03*
%TD*%
D11*
%TO.P,D61,1,K_1*%
%TO.N,ROW2*%
X233362500Y-137160000D03*
D12*
%TO.P,D61,2,A_2*%
%TO.N,Net-(D61-A)*%
X233362500Y-129540000D03*
%TD*%
D11*
%TO.P,D24,1,K_1*%
%TO.N,ROW3*%
X100012500Y-117157500D03*
D12*
%TO.P,D24,2,A_2*%
%TO.N,Net-(D24-A)*%
X100012500Y-109537500D03*
%TD*%
D11*
%TO.P,D3,1,K_1*%
%TO.N,ROW4*%
X42862500Y-99060000D03*
D12*
%TO.P,D3,2,A_2*%
%TO.N,Net-(D3-A)*%
X42862500Y-91440000D03*
%TD*%
D11*
%TO.P,D57,1,K_1*%
%TO.N,ROW2*%
X195262500Y-137160000D03*
D12*
%TO.P,D57,2,A_2*%
%TO.N,Net-(D57-A)*%
X195262500Y-129540000D03*
%TD*%
D11*
%TO.P,D30,1,K_1*%
%TO.N,ROW3*%
X214312500Y-117157500D03*
D12*
%TO.P,D30,2,A_2*%
%TO.N,Net-(D30-A)*%
X214312500Y-109537500D03*
%TD*%
D10*
%TO.P,S25,1,1_1*%
%TO.N,COLUMN7*%
X105410000Y-111760000D03*
%TO.P,S25,2,2_2*%
%TO.N,Net-(D25-A)*%
X111760000Y-109220000D03*
%TD*%
D11*
%TO.P,D47,1,K_1*%
%TO.N,ROW2*%
X100012500Y-137160000D03*
D12*
%TO.P,D47,2,A_2*%
%TO.N,Net-(D47-A)*%
X100012500Y-129540000D03*
%TD*%
D10*
%TO.P,S63,1,1_1*%
%TO.N,COLUMN14*%
X238760000Y-130810000D03*
%TO.P,S63,2,2_2*%
%TO.N,Net-(D63-A)*%
X245110000Y-128270000D03*
%TD*%
D17*
%TO.P,SW1,1,1_1*%
%TO.N,GND*%
X169937500Y-114168750D03*
X163437500Y-114168750D03*
%TO.P,SW1,2,2_2*%
%TO.N,Net-(A1-RUN)*%
X169937500Y-109668750D03*
X163437500Y-109668750D03*
%TD*%
D11*
%TO.P,D5,1,K_1*%
%TO.N,ROW4*%
X80962500Y-99060000D03*
D12*
%TO.P,D5,2,A_2*%
%TO.N,Net-(D5-A)*%
X80962500Y-91440000D03*
%TD*%
D10*
%TO.P,S4,1,1_1*%
%TO.N,COLUMN4*%
X48260000Y-92710000D03*
%TO.P,S4,2,2_2*%
%TO.N,Net-(D4-A)*%
X54610000Y-90170000D03*
%TD*%
D11*
%TO.P,D31,1,K_1*%
%TO.N,ROW3*%
X233362500Y-117157500D03*
D12*
%TO.P,D31,2,A_2*%
%TO.N,Net-(D31-A)*%
X233362500Y-109537500D03*
%TD*%
D11*
%TO.P,D33,1,K_1*%
%TO.N,ROW3*%
X271462500Y-117157500D03*
D12*
%TO.P,D33,2,A_2*%
%TO.N,Net-(D33-A)*%
X271462500Y-109537500D03*
%TD*%
D11*
%TO.P,D21,1,K_1*%
%TO.N,ROW3*%
X42862500Y-117157500D03*
D12*
%TO.P,D21,2,A_2*%
%TO.N,Net-(D21-A)*%
X42862500Y-109537500D03*
%TD*%
D18*
%TO.N,ROW2*%
X173831250Y-104775000D03*
X133350000Y-92868750D03*
X152400000Y-88106250D03*
X133350000Y-97631250D03*
%TO.N,ROW3*%
X161925000Y-95250000D03*
X130968750Y-97631250D03*
X130968750Y-95250000D03*
X161925000Y-100012500D03*
%TO.N,COLUMN13*%
X178593750Y-126206250D03*
X216693750Y-126206250D03*
X171450000Y-133350000D03*
%TO.N,COLUMN6*%
X107156250Y-119062500D03*
X88106250Y-119062500D03*
%TO.N,COLUMN5*%
X69056250Y-109537500D03*
X107156250Y-107156250D03*
%TO.N,ROW1*%
X161925000Y-142875000D03*
%TO.N,COLUMN4*%
X121443750Y-92868750D03*
X50006250Y-90487500D03*
%TO.N,COLUMN14*%
X171450000Y-128587500D03*
X192881250Y-130968750D03*
X178593750Y-123825000D03*
X219075000Y-135100000D03*
%TO.N,Net-(A1-3V3)*%
X159543750Y-116681250D03*
%TO.N,Net-(D29-A)*%
X190500000Y-109537500D03*
X192881250Y-107156250D03*
%TD*%
%TO.N,COLUMN12*%
D19*
X200660000Y-92710000D02*
X200660000Y-130810000D01*
%TO.N,ROW2*%
X173831250Y-102393750D02*
X173831250Y-104775000D01*
X161772500Y-90335000D02*
X173831250Y-102393750D01*
X154628750Y-90335000D02*
X161772500Y-90335000D01*
X133350000Y-97631250D02*
X133350000Y-92868750D01*
X152400000Y-88106250D02*
X154628750Y-90335000D01*
%TO.N,ROW3*%
X130968750Y-97631250D02*
X130968750Y-95250000D01*
X161925000Y-95250000D02*
X161925000Y-100012500D01*
%TO.N,COLUMN13*%
X171450000Y-133350000D02*
X178593750Y-126206250D01*
X216693750Y-126206250D02*
X216693750Y-127793750D01*
X216693750Y-127793750D02*
X219710000Y-130810000D01*
X219710000Y-92710000D02*
X219710000Y-130810000D01*
%TO.N,COLUMN7*%
X138112500Y-119380000D02*
X126682500Y-130810000D01*
X105410000Y-92710000D02*
X105410000Y-130810000D01*
X143503750Y-147631250D02*
X143503750Y-149876250D01*
X126682500Y-130810000D02*
X105410000Y-130810000D01*
X126682500Y-130810000D02*
X143503750Y-147631250D01*
%TO.N,COLUMN6*%
X138112500Y-114300000D02*
X133350000Y-119062500D01*
X86360000Y-92710000D02*
X86360000Y-130810000D01*
X86360000Y-117316250D02*
X86360000Y-111760000D01*
X133350000Y-119062500D02*
X107156250Y-119062500D01*
X88106250Y-119062500D02*
X86360000Y-117316250D01*
%TO.N,COLUMN5*%
X67310000Y-92710000D02*
X67310000Y-130810000D01*
X69056250Y-109537500D02*
X69056250Y-110013750D01*
X111760000Y-111760000D02*
X107156250Y-107156250D01*
X69056250Y-110013750D02*
X67310000Y-111760000D01*
X138112500Y-111760000D02*
X111760000Y-111760000D01*
%TO.N,COLUMN15*%
X155892500Y-127000000D02*
X164592500Y-135700000D01*
X257810000Y-125698135D02*
X257810000Y-111760000D01*
X164592500Y-135700000D02*
X247808135Y-135700000D01*
X257810000Y-92710000D02*
X257810000Y-111760000D01*
X247808135Y-135700000D02*
X257810000Y-125698135D01*
%TO.N,ROW1*%
X154781250Y-103028750D02*
X154781250Y-135731250D01*
X138112500Y-86360000D02*
X154781250Y-103028750D01*
X154781250Y-135731250D02*
X161925000Y-142875000D01*
%TO.N,COLUMN3*%
X33813750Y-88106250D02*
X29210000Y-92710000D01*
X119538750Y-88106250D02*
X33813750Y-88106250D01*
X29210000Y-92710000D02*
X29210000Y-111760000D01*
X138112500Y-106680000D02*
X119538750Y-88106250D01*
%TO.N,COLUMN4*%
X121443750Y-95250000D02*
X121443750Y-92868750D01*
X133667500Y-104775000D02*
X130968750Y-104775000D01*
X130968750Y-104775000D02*
X121443750Y-95250000D01*
X138112500Y-109220000D02*
X133667500Y-104775000D01*
X48260000Y-92233750D02*
X48260000Y-92710000D01*
X50006250Y-90487500D02*
X48260000Y-92233750D01*
X48260000Y-92710000D02*
X48260000Y-130810000D01*
%TO.N,COLUMN11*%
X181610000Y-92710000D02*
X181610000Y-130810000D01*
%TO.N,COLUMN14*%
X171450000Y-128587500D02*
X176212500Y-123825000D01*
X204652412Y-129820000D02*
X212231471Y-129820000D01*
X199897412Y-134575000D02*
X204652412Y-129820000D01*
X196487500Y-134575000D02*
X199897412Y-134575000D01*
X218947412Y-134575000D02*
X219075000Y-134702588D01*
X216986471Y-134575000D02*
X218947412Y-134575000D01*
X212231471Y-129820000D02*
X216986471Y-134575000D01*
X219075000Y-134702588D02*
X219075000Y-135100000D01*
X176212500Y-123825000D02*
X178593750Y-123825000D01*
X192881250Y-130968750D02*
X196487500Y-134575000D01*
X238760000Y-92710000D02*
X238760000Y-130810000D01*
%TO.N,Net-(A1-3V3)*%
X159543750Y-100171250D02*
X159543750Y-116681250D01*
X155892500Y-96520000D02*
X159543750Y-100171250D01*
%TO.N,Net-(D29-A)*%
X190500000Y-109537500D02*
X192881250Y-107156250D01*
%TD*%
M02*
