ISO-10303-21;
HEADER;
/* Generated by software containing ST-Developer
 * from STEP Tools, Inc. (www.steptools.com) 
 */
/* OPTION: using custom renumber hook */

FILE_DESCRIPTION(
/* description */ ('STEP AP242 Edition 2',
'CAx-IF Rec.Pracs.---Representation and Presentation of Product Manufa
cturing Information (PMI)---4.0---2014-10-13',
'CAx-IF Rec.Pracs.---3D Tessellated Geometry---0.4---2014-09-14','2;1',
'CAx-IF Rec.Pracs.---User Defined Attributes---1.5---2016-08-15'),
/* implementation_level */ '2;1');

FILE_NAME(
/* name */ 'Cherry MX keycaps - 1x1 R1 v23',
/* time_stamp */ '2026-05-31T13:18:07Z',
/* author */ (''),
/* organization */ (''),
/* preprocessor_version */ 'ST-DEVELOPER v20',
/* originating_system */ 'ONSHAPE BY PTC INC, 1.215',
/* authorisation */ '  ');

FILE_SCHEMA (('AP242_MANAGED_MODEL_BASED_3D_ENGINEERING_MIM_LF { 1 0 10303 442 3 1 4 }'));
ENDSEC;

DATA;
#10=SHAPE_REPRESENTATION_RELATIONSHIP('','',#651,#11);
#11=ADVANCED_BREP_SHAPE_REPRESENTATION('',(#649),#1442);
#12=CIRCLE('',#673,0.0028);
#13=B_SPLINE_SURFACE_WITH_KNOTS('',3,3,((#868,#869,#870,#871,#872,#873),
(#874,#875,#876,#877,#878,#879),(#880,#881,#882,#883,#884,#885),(#886,#887,
#888,#889,#890,#891),(#892,#893,#894,#895,#896,#897)),.UNSPECIFIED.,.F.,
 .F.,.F.,(4,1,4),(4,1,1,4),(0.,0.5,1.),(0.,0.0474731164023079,0.0791218606705131,
0.110770604938718),.UNSPECIFIED.);
#14=B_SPLINE_SURFACE_WITH_KNOTS('',3,3,((#908,#909,#910,#911,#912,#913,
#914,#915),(#916,#917,#918,#919,#920,#921,#922,#923),(#924,#925,#926,#927,
#928,#929,#930,#931),(#932,#933,#934,#935,#936,#937,#938,#939),(#940,#941,
#942,#943,#944,#945,#946,#947)),.UNSPECIFIED.,.F.,.F.,.F.,(4,1,4),(4,1,
1,1,1,4),(0.,0.5,1.),(0.139715554094552,0.310219731876819,0.651228087441352,
0.992236443005885,1.16274062078815,1.33324479857042),.UNSPECIFIED.);
#15=B_SPLINE_SURFACE_WITH_KNOTS('',3,3,((#979,#980,#981,#982,#983,#984),
(#985,#986,#987,#988,#989,#990),(#991,#992,#993,#994,#995,#996),(#997,#998,
#999,#1000,#1001,#1002),(#1003,#1004,#1005,#1006,#1007,#1008)),
 .UNSPECIFIED.,.F.,.F.,.F.,(4,1,4),(4,1,1,4),(0.,0.5,1.),(3.5407073831987E-13,
0.0316485379115008,0.0632970758226475,0.110769882689368),.UNSPECIFIED.);
#16=B_SPLINE_SURFACE_WITH_KNOTS('',3,3,((#1050,#1051,#1052,#1053,#1054),
(#1055,#1056,#1057,#1058,#1059),(#1060,#1061,#1062,#1063,#1064),(#1065,
#1066,#1067,#1068,#1069),(#1070,#1071,#1072,#1073,#1074)),.UNSPECIFIED.,
 .F.,.F.,.F.,(4,1,4),(4,1,4),(0.,0.5,1.),(0.,0.0446838833352649,0.104262394448951),
 .UNSPECIFIED.);
#17=B_SPLINE_SURFACE_WITH_KNOTS('',3,3,((#1085,#1086,#1087,#1088),(#1089,
#1090,#1091,#1092),(#1093,#1094,#1095,#1096),(#1097,#1098,#1099,#1100),
(#1101,#1102,#1103,#1104),(#1105,#1106,#1107,#1108),(#1109,#1110,#1111,
#1112)),.UNSPECIFIED.,.F.,.F.,.F.,(4,1,1,1,4),(4,4),(-0.456247299891645,
-0.338391029725897,-0.220534759560149,-0.161606624477275,-0.0437503543115269),
(0.0659723336523742,0.929570519360138),.UNSPECIFIED.);
#18=B_SPLINE_SURFACE_WITH_KNOTS('',3,3,((#1126,#1127,#1128,#1129,#1130,
#1131,#1132,#1133,#1134),(#1135,#1136,#1137,#1138,#1139,#1140,#1141,#1142,
#1143),(#1144,#1145,#1146,#1147,#1148,#1149,#1150,#1151,#1152),(#1153,#1154,
#1155,#1156,#1157,#1158,#1159,#1160,#1161),(#1162,#1163,#1164,#1165,#1166,
#1167,#1168,#1169,#1170)),.UNSPECIFIED.,.F.,.F.,.F.,(4,1,4),(4,1,1,1,1,
1,4),(0.,0.571428571428571,1.),(2.88520305596296,3.04088728035801,3.19657150475306,
3.35225572914812,3.66362417793822,3.81930840233328,3.97499262672833),
 .UNSPECIFIED.);
#19=B_SPLINE_SURFACE_WITH_KNOTS('',3,3,((#1199,#1200,#1201,#1202,#1203),
(#1204,#1205,#1206,#1207,#1208),(#1209,#1210,#1211,#1212,#1213),(#1214,
#1215,#1216,#1217,#1218),(#1219,#1220,#1221,#1222,#1223)),.UNSPECIFIED.,
 .F.,.F.,.F.,(4,1,4),(4,1,4),(0.,0.5,1.),(2.38178093793318E-12,0.0446833545835534,
0.104261160691782),.UNSPECIFIED.);
#20=B_SPLINE_SURFACE_WITH_KNOTS('',3,3,((#1253,#1254,#1255,#1256,#1257,
#1258,#1259),(#1260,#1261,#1262,#1263,#1264,#1265,#1266),(#1267,#1268,#1269,
#1270,#1271,#1272,#1273),(#1274,#1275,#1276,#1277,#1278,#1279,#1280)),
 .UNSPECIFIED.,.F.,.F.,.F.,(4,4),(4,3,4),(-0.299306700047636,-0.200693299952364),
(0.26704164645174,0.268546302224501,0.518955503412176),
 .PIECEWISE_BEZIER_KNOTS.);
#21=B_SPLINE_SURFACE_WITH_KNOTS('',3,3,((#1328,#1329,#1330,#1331,#1332,
#1333,#1334),(#1335,#1336,#1337,#1338,#1339,#1340,#1341),(#1342,#1343,#1344,
#1345,#1346,#1347,#1348),(#1349,#1350,#1351,#1352,#1353,#1354,#1355),(#1356,
#1357,#1358,#1359,#1360,#1361,#1362),(#1363,#1364,#1365,#1366,#1367,#1368,
#1369),(#1370,#1371,#1372,#1373,#1374,#1375,#1376)),.UNSPECIFIED.,.F.,.F.,
 .F.,(4,1,1,1,4),(4,3,4),(-0.410821973799374,-0.364872838428123,-0.272974567685623,
-0.181076296943122,-0.0891780262006217),(0.109111509335465,0.113865316318407,
0.879184494423763),.UNSPECIFIED.);
#22=CYLINDRICAL_SURFACE('',#659,0.000300202395097107);
#23=CYLINDRICAL_SURFACE('',#660,0.001);
#24=CYLINDRICAL_SURFACE('',#662,0.001);
#25=CYLINDRICAL_SURFACE('',#663,0.000300202611469714);
#26=CYLINDRICAL_SURFACE('',#665,0.001);
#27=CYLINDRICAL_SURFACE('',#667,0.001);
#28=CYLINDRICAL_SURFACE('',#680,0.0028);
#29=B_SPLINE_CURVE_WITH_KNOTS('',3,(#838,#839,#840,#841),.UNSPECIFIED.,
 .F.,.F.,(4,4),(1.97767208163824E-8,0.999999980319338),.UNSPECIFIED.);
#30=B_SPLINE_CURVE_WITH_KNOTS('',3,(#843,#844,#845,#846),.UNSPECIFIED.,
 .F.,.F.,(4,4),(0.,1.),.UNSPECIFIED.);
#31=B_SPLINE_CURVE_WITH_KNOTS('',3,(#848,#849,#850,#851),.UNSPECIFIED.,
 .F.,.F.,(4,4),(0.,1.),.UNSPECIFIED.);
#32=B_SPLINE_CURVE_WITH_KNOTS('',3,(#853,#854,#855,#856),.UNSPECIFIED.,
 .F.,.F.,(4,4),(0.,1.),.UNSPECIFIED.);
#33=B_SPLINE_CURVE_WITH_KNOTS('',3,(#860,#861,#862,#863,#864,#865,#866,
#867),.UNSPECIFIED.,.F.,.F.,(4,1,1,1,1,4),(0.,0.25,0.5,0.625,0.75,1.),
 .UNSPECIFIED.);
#34=B_SPLINE_CURVE_WITH_KNOTS('',3,(#898,#899,#900,#901),.UNSPECIFIED.,
 .F.,.F.,(4,4),(0.,1.),.UNSPECIFIED.);
#35=B_SPLINE_CURVE_WITH_KNOTS('',3,(#903,#904,#905,#906,#907),
 .UNSPECIFIED.,.F.,.F.,(4,1,4),(0.,0.5,1.),.UNSPECIFIED.);
#36=B_SPLINE_CURVE_WITH_KNOTS('',3,(#948,#949,#950,#951),.UNSPECIFIED.,
 .F.,.F.,(4,4),(0.,1.),.UNSPECIFIED.);
#37=B_SPLINE_CURVE_WITH_KNOTS('',3,(#954,#955,#956,#957,#958,#959,#960),
 .UNSPECIFIED.,.F.,.F.,(4,1,1,1,4),(0.,0.25,0.5,0.75,1.),.UNSPECIFIED.);
#38=B_SPLINE_CURVE_WITH_KNOTS('',3,(#961,#962,#963,#964,#965,#966,#967,
#968),.UNSPECIFIED.,.F.,.F.,(4,1,1,1,1,4),(-1.33324479857042,-1.16274062078815,
-0.992236443005885,-0.651228087441352,-0.310219731876819,-0.139715554094552),
 .UNSPECIFIED.);
#39=B_SPLINE_CURVE_WITH_KNOTS('',3,(#974,#975,#976,#977,#978),
 .UNSPECIFIED.,.F.,.F.,(4,1,4),(0.,0.5,1.),.UNSPECIFIED.);
#40=B_SPLINE_CURVE_WITH_KNOTS('',3,(#1009,#1010,#1011,#1012),
 .UNSPECIFIED.,.F.,.F.,(4,4),(0.,1.),.UNSPECIFIED.);
#41=B_SPLINE_CURVE_WITH_KNOTS('',3,(#1014,#1015,#1016,#1017,#1018),
 .UNSPECIFIED.,.F.,.F.,(4,1,4),(0.,0.5,1.),.UNSPECIFIED.);
#42=B_SPLINE_CURVE_WITH_KNOTS('',3,(#1020,#1021,#1022,#1023),
 .UNSPECIFIED.,.F.,.F.,(4,4),(0.,1.),.UNSPECIFIED.);
#43=B_SPLINE_CURVE_WITH_KNOTS('',3,(#1026,#1027,#1028,#1029),
 .UNSPECIFIED.,.F.,.F.,(4,4),(0.,1.),.UNSPECIFIED.);
#44=B_SPLINE_CURVE_WITH_KNOTS('',3,(#1030,#1031,#1032,#1033),
 .UNSPECIFIED.,.F.,.F.,(4,4),(1.98011448340887E-8,0.999999980300045),
 .UNSPECIFIED.);
#45=B_SPLINE_CURVE_WITH_KNOTS('',3,(#1039,#1040,#1041,#1042,#1043,#1044,
#1045,#1046,#1047,#1048,#1049),.UNSPECIFIED.,.F.,.F.,(4,1,1,1,1,1,1,1,4),
(0.,0.25,0.375,0.4375,0.5,0.5625,0.625,0.75,1.),.UNSPECIFIED.);
#46=B_SPLINE_CURVE_WITH_KNOTS('',3,(#1075,#1076,#1077,#1078),
 .UNSPECIFIED.,.F.,.F.,(4,4),(0.,1.),.UNSPECIFIED.);
#47=B_SPLINE_CURVE_WITH_KNOTS('',3,(#1080,#1081,#1082,#1083,#1084),
 .UNSPECIFIED.,.F.,.F.,(4,1,4),(0.,0.5,1.),.UNSPECIFIED.);
#48=B_SPLINE_CURVE_WITH_KNOTS('',3,(#1113,#1114,#1115,#1116,#1117),
 .UNSPECIFIED.,.F.,.F.,(4,1,4),(0.,0.5,1.),.UNSPECIFIED.);
#49=B_SPLINE_CURVE_WITH_KNOTS('',3,(#1119,#1120,#1121,#1122,#1123,#1124,
#1125),.UNSPECIFIED.,.F.,.F.,(4,1,1,1,4),(0.,0.25,0.5,0.75,1.),
 .UNSPECIFIED.);
#50=B_SPLINE_CURVE_WITH_KNOTS('',3,(#1171,#1172,#1173,#1174),
 .UNSPECIFIED.,.F.,.F.,(4,4),(0.,1.),.UNSPECIFIED.);
#51=B_SPLINE_CURVE_WITH_KNOTS('',3,(#1176,#1177,#1178,#1179,#1180,#1181,
#1182,#1183,#1184),.UNSPECIFIED.,.F.,.F.,(4,1,1,1,1,1,4),(-3.97499262672833,
-3.81930840233328,-3.66362417793822,-3.35225572914812,-3.19657150475306,
-3.04088728035801,-2.88520305596296),.UNSPECIFIED.);
#52=B_SPLINE_CURVE_WITH_KNOTS('',3,(#1188,#1189,#1190,#1191,#1192,#1193,
#1194,#1195,#1196,#1197,#1198),.UNSPECIFIED.,.F.,.F.,(4,1,1,1,1,1,1,1,4),
(0.,0.25,0.375,0.4375,0.5,0.5625,0.625,0.75,1.),.UNSPECIFIED.);
#53=B_SPLINE_CURVE_WITH_KNOTS('',3,(#1225,#1226,#1227,#1228,#1229,#1230,
#1231),.UNSPECIFIED.,.F.,.F.,(4,1,1,1,4),(0.,0.00296116038196615,0.0059223207639323,
0.00888348114589845,0.0118446415278646),.UNSPECIFIED.);
#54=B_SPLINE_CURVE_WITH_KNOTS('',3,(#1237,#1238,#1239,#1240),
 .UNSPECIFIED.,.F.,.F.,(4,4),(0.,0.0122545657099081),.UNSPECIFIED.);
#55=B_SPLINE_CURVE_WITH_KNOTS('',3,(#1244,#1245,#1246,#1247,#1248,#1249,
#1250),.UNSPECIFIED.,.F.,.F.,(4,1,1,1,4),(0.,0.00270018989956248,0.00540037979912495,
0.00810056969868743,0.0108007595982499),.UNSPECIFIED.);
#56=B_SPLINE_CURVE_WITH_KNOTS('',3,(#1281,#1282,#1283,#1284),
 .UNSPECIFIED.,.F.,.F.,(4,4),(1.3010426069826E-18,0.00109999651394071),
 .UNSPECIFIED.);
#57=B_SPLINE_CURVE_WITH_KNOTS('',3,(#1289,#1290,#1291,#1292),
 .UNSPECIFIED.,.F.,.F.,(4,4),(8.58970104834556E-10,0.00145034957326002),
 .UNSPECIFIED.);
#58=B_SPLINE_CURVE_WITH_KNOTS('',3,(#1296,#1297,#1298,#1299),
 .UNSPECIFIED.,.F.,.F.,(4,4),(0.,0.00145033968200175),.UNSPECIFIED.);
#59=B_SPLINE_CURVE_WITH_KNOTS('',3,(#1303,#1304,#1305,#1306),
 .UNSPECIFIED.,.F.,.F.,(4,4),(0.,0.00109999658377499),.UNSPECIFIED.);
#60=B_SPLINE_CURVE_WITH_KNOTS('',3,(#1310,#1311,#1312,#1313),
 .UNSPECIFIED.,.F.,.F.,(4,4),(1.0842021724855E-19,0.00145033961726081),
 .UNSPECIFIED.);
#61=B_SPLINE_CURVE_WITH_KNOTS('',3,(#1317,#1318,#1319,#1320),
 .UNSPECIFIED.,.F.,.F.,(4,4),(7.21813831587408E-16,0.0014503487142895),
 .UNSPECIFIED.);
#62=B_SPLINE_CURVE_WITH_KNOTS('',3,(#1324,#1325,#1326,#1327),
 .UNSPECIFIED.,.F.,.F.,(4,4),(0.,0.0122545657099999),.UNSPECIFIED.);
#63=B_SPLINE_CURVE_WITH_KNOTS('',3,(#1377,#1378,#1379,#1380,#1381,#1382,
#1383,#1384,#1385,#1386,#1387),.UNSPECIFIED.,.T.,.F.,(1,1,1,1,1,1,1,1,1,
1,1,1,1,1,1),(-0.00660524658112383,-0.00440349772074922,-0.00220174886037461,
0.,0.00220174886037461,0.00440349772074922,0.00660524658112383,0.00880699544149844,
0.011008744301873,0.0132104931622477,0.0154122420226223,0.0176139908829969,
0.0198157397433715,0.0220174886037461,0.0242192374641207),.UNSPECIFIED.);
#64=ELLIPSE('',#654,0.00111072164747907,0.001);
#65=ELLIPSE('',#655,0.00111072164747907,0.001);
#66=ELLIPSE('',#656,0.00103771634384041,0.001);
#67=ELLIPSE('',#657,0.00103771634384041,0.001);
#68=ORIENTED_EDGE('',*,*,#248,.T.);
#69=ORIENTED_EDGE('',*,*,#249,.T.);
#70=ORIENTED_EDGE('',*,*,#250,.T.);
#71=ORIENTED_EDGE('',*,*,#251,.T.);
#72=ORIENTED_EDGE('',*,*,#252,.F.);
#73=ORIENTED_EDGE('',*,*,#253,.T.);
#74=ORIENTED_EDGE('',*,*,#254,.F.);
#75=ORIENTED_EDGE('',*,*,#255,.T.);
#76=ORIENTED_EDGE('',*,*,#256,.F.);
#77=ORIENTED_EDGE('',*,*,#257,.T.);
#78=ORIENTED_EDGE('',*,*,#258,.F.);
#79=ORIENTED_EDGE('',*,*,#259,.T.);
#80=ORIENTED_EDGE('',*,*,#260,.F.);
#81=ORIENTED_EDGE('',*,*,#259,.F.);
#82=ORIENTED_EDGE('',*,*,#261,.F.);
#83=ORIENTED_EDGE('',*,*,#262,.F.);
#84=ORIENTED_EDGE('',*,*,#263,.F.);
#85=ORIENTED_EDGE('',*,*,#262,.T.);
#86=ORIENTED_EDGE('',*,*,#264,.F.);
#87=ORIENTED_EDGE('',*,*,#265,.T.);
#88=ORIENTED_EDGE('',*,*,#258,.T.);
#89=ORIENTED_EDGE('',*,*,#266,.T.);
#90=ORIENTED_EDGE('',*,*,#267,.F.);
#91=ORIENTED_EDGE('',*,*,#261,.T.);
#92=ORIENTED_EDGE('',*,*,#268,.T.);
#93=ORIENTED_EDGE('',*,*,#269,.T.);
#94=ORIENTED_EDGE('',*,*,#264,.T.);
#95=ORIENTED_EDGE('',*,*,#267,.T.);
#96=ORIENTED_EDGE('',*,*,#270,.F.);
#97=ORIENTED_EDGE('',*,*,#271,.T.);
#98=ORIENTED_EDGE('',*,*,#268,.F.);
#99=ORIENTED_EDGE('',*,*,#272,.T.);
#100=ORIENTED_EDGE('',*,*,#273,.F.);
#101=ORIENTED_EDGE('',*,*,#272,.F.);
#102=ORIENTED_EDGE('',*,*,#266,.F.);
#103=ORIENTED_EDGE('',*,*,#257,.F.);
#104=ORIENTED_EDGE('',*,*,#256,.T.);
#105=ORIENTED_EDGE('',*,*,#274,.T.);
#106=ORIENTED_EDGE('',*,*,#275,.F.);
#107=ORIENTED_EDGE('',*,*,#273,.T.);
#108=ORIENTED_EDGE('',*,*,#276,.T.);
#109=ORIENTED_EDGE('',*,*,#277,.T.);
#110=ORIENTED_EDGE('',*,*,#270,.T.);
#111=ORIENTED_EDGE('',*,*,#275,.T.);
#112=ORIENTED_EDGE('',*,*,#278,.F.);
#113=ORIENTED_EDGE('',*,*,#279,.T.);
#114=ORIENTED_EDGE('',*,*,#276,.F.);
#115=ORIENTED_EDGE('',*,*,#280,.T.);
#116=ORIENTED_EDGE('',*,*,#281,.F.);
#117=ORIENTED_EDGE('',*,*,#280,.F.);
#118=ORIENTED_EDGE('',*,*,#274,.F.);
#119=ORIENTED_EDGE('',*,*,#255,.F.);
#120=ORIENTED_EDGE('',*,*,#254,.T.);
#121=ORIENTED_EDGE('',*,*,#282,.T.);
#122=ORIENTED_EDGE('',*,*,#283,.F.);
#123=ORIENTED_EDGE('',*,*,#281,.T.);
#124=ORIENTED_EDGE('',*,*,#284,.T.);
#125=ORIENTED_EDGE('',*,*,#285,.T.);
#126=ORIENTED_EDGE('',*,*,#278,.T.);
#127=ORIENTED_EDGE('',*,*,#283,.T.);
#128=ORIENTED_EDGE('',*,*,#286,.F.);
#129=ORIENTED_EDGE('',*,*,#265,.F.);
#130=ORIENTED_EDGE('',*,*,#269,.F.);
#131=ORIENTED_EDGE('',*,*,#271,.F.);
#132=ORIENTED_EDGE('',*,*,#277,.F.);
#133=ORIENTED_EDGE('',*,*,#279,.F.);
#134=ORIENTED_EDGE('',*,*,#285,.F.);
#135=ORIENTED_EDGE('',*,*,#287,.F.);
#136=ORIENTED_EDGE('',*,*,#288,.F.);
#137=ORIENTED_EDGE('',*,*,#287,.T.);
#138=ORIENTED_EDGE('',*,*,#284,.F.);
#139=ORIENTED_EDGE('',*,*,#289,.T.);
#140=ORIENTED_EDGE('',*,*,#290,.F.);
#141=ORIENTED_EDGE('',*,*,#289,.F.);
#142=ORIENTED_EDGE('',*,*,#282,.F.);
#143=ORIENTED_EDGE('',*,*,#253,.F.);
#144=ORIENTED_EDGE('',*,*,#252,.T.);
#145=ORIENTED_EDGE('',*,*,#260,.T.);
#146=ORIENTED_EDGE('',*,*,#291,.F.);
#147=ORIENTED_EDGE('',*,*,#290,.T.);
#148=ORIENTED_EDGE('',*,*,#263,.T.);
#149=ORIENTED_EDGE('',*,*,#286,.T.);
#150=ORIENTED_EDGE('',*,*,#288,.T.);
#151=ORIENTED_EDGE('',*,*,#291,.T.);
#152=ORIENTED_EDGE('',*,*,#292,.F.);
#153=ORIENTED_EDGE('',*,*,#293,.F.);
#154=ORIENTED_EDGE('',*,*,#249,.F.);
#155=ORIENTED_EDGE('',*,*,#294,.F.);
#156=ORIENTED_EDGE('',*,*,#295,.F.);
#157=ORIENTED_EDGE('',*,*,#296,.F.);
#158=ORIENTED_EDGE('',*,*,#250,.F.);
#159=ORIENTED_EDGE('',*,*,#293,.T.);
#160=ORIENTED_EDGE('',*,*,#297,.F.);
#161=ORIENTED_EDGE('',*,*,#298,.F.);
#162=ORIENTED_EDGE('',*,*,#251,.F.);
#163=ORIENTED_EDGE('',*,*,#296,.T.);
#164=ORIENTED_EDGE('',*,*,#299,.T.);
#165=ORIENTED_EDGE('',*,*,#300,.T.);
#166=ORIENTED_EDGE('',*,*,#301,.T.);
#167=ORIENTED_EDGE('',*,*,#302,.T.);
#168=ORIENTED_EDGE('',*,*,#303,.T.);
#169=ORIENTED_EDGE('',*,*,#304,.T.);
#170=ORIENTED_EDGE('',*,*,#305,.T.);
#171=ORIENTED_EDGE('',*,*,#306,.T.);
#172=ORIENTED_EDGE('',*,*,#307,.T.);
#173=ORIENTED_EDGE('',*,*,#308,.T.);
#174=ORIENTED_EDGE('',*,*,#309,.T.);
#175=ORIENTED_EDGE('',*,*,#310,.T.);
#176=ORIENTED_EDGE('',*,*,#311,.F.);
#177=ORIENTED_EDGE('',*,*,#294,.T.);
#178=ORIENTED_EDGE('',*,*,#248,.F.);
#179=ORIENTED_EDGE('',*,*,#298,.T.);
#180=ORIENTED_EDGE('',*,*,#312,.T.);
#181=ORIENTED_EDGE('',*,*,#311,.T.);
#182=ORIENTED_EDGE('',*,*,#297,.T.);
#183=ORIENTED_EDGE('',*,*,#295,.T.);
#184=ORIENTED_EDGE('',*,*,#292,.T.);
#185=ORIENTED_EDGE('',*,*,#313,.F.);
#186=ORIENTED_EDGE('',*,*,#314,.F.);
#187=ORIENTED_EDGE('',*,*,#315,.F.);
#188=ORIENTED_EDGE('',*,*,#316,.F.);
#189=ORIENTED_EDGE('',*,*,#317,.F.);
#190=ORIENTED_EDGE('',*,*,#318,.F.);
#191=ORIENTED_EDGE('',*,*,#319,.F.);
#192=ORIENTED_EDGE('',*,*,#320,.F.);
#193=ORIENTED_EDGE('',*,*,#321,.F.);
#194=ORIENTED_EDGE('',*,*,#322,.F.);
#195=ORIENTED_EDGE('',*,*,#323,.F.);
#196=ORIENTED_EDGE('',*,*,#324,.F.);
#197=ORIENTED_EDGE('',*,*,#325,.F.);
#198=ORIENTED_EDGE('',*,*,#306,.F.);
#199=ORIENTED_EDGE('',*,*,#326,.F.);
#200=ORIENTED_EDGE('',*,*,#313,.T.);
#201=ORIENTED_EDGE('',*,*,#327,.T.);
#202=ORIENTED_EDGE('',*,*,#307,.F.);
#203=ORIENTED_EDGE('',*,*,#327,.F.);
#204=ORIENTED_EDGE('',*,*,#324,.T.);
#205=ORIENTED_EDGE('',*,*,#328,.T.);
#206=ORIENTED_EDGE('',*,*,#308,.F.);
#207=ORIENTED_EDGE('',*,*,#328,.F.);
#208=ORIENTED_EDGE('',*,*,#323,.T.);
#209=ORIENTED_EDGE('',*,*,#329,.T.);
#210=ORIENTED_EDGE('',*,*,#309,.F.);
#211=ORIENTED_EDGE('',*,*,#329,.F.);
#212=ORIENTED_EDGE('',*,*,#322,.T.);
#213=ORIENTED_EDGE('',*,*,#330,.T.);
#214=ORIENTED_EDGE('',*,*,#310,.F.);
#215=ORIENTED_EDGE('',*,*,#330,.F.);
#216=ORIENTED_EDGE('',*,*,#321,.T.);
#217=ORIENTED_EDGE('',*,*,#331,.T.);
#218=ORIENTED_EDGE('',*,*,#305,.F.);
#219=ORIENTED_EDGE('',*,*,#332,.F.);
#220=ORIENTED_EDGE('',*,*,#314,.T.);
#221=ORIENTED_EDGE('',*,*,#326,.T.);
#222=ORIENTED_EDGE('',*,*,#312,.F.);
#223=ORIENTED_EDGE('',*,*,#325,.T.);
#224=ORIENTED_EDGE('',*,*,#299,.F.);
#225=ORIENTED_EDGE('',*,*,#331,.F.);
#226=ORIENTED_EDGE('',*,*,#320,.T.);
#227=ORIENTED_EDGE('',*,*,#333,.T.);
#228=ORIENTED_EDGE('',*,*,#300,.F.);
#229=ORIENTED_EDGE('',*,*,#333,.F.);
#230=ORIENTED_EDGE('',*,*,#319,.T.);
#231=ORIENTED_EDGE('',*,*,#334,.T.);
#232=ORIENTED_EDGE('',*,*,#301,.F.);
#233=ORIENTED_EDGE('',*,*,#334,.F.);
#234=ORIENTED_EDGE('',*,*,#318,.T.);
#235=ORIENTED_EDGE('',*,*,#335,.T.);
#236=ORIENTED_EDGE('',*,*,#302,.F.);
#237=ORIENTED_EDGE('',*,*,#335,.F.);
#238=ORIENTED_EDGE('',*,*,#317,.T.);
#239=ORIENTED_EDGE('',*,*,#336,.T.);
#240=ORIENTED_EDGE('',*,*,#303,.F.);
#241=ORIENTED_EDGE('',*,*,#336,.F.);
#242=ORIENTED_EDGE('',*,*,#316,.T.);
#243=ORIENTED_EDGE('',*,*,#337,.T.);
#244=ORIENTED_EDGE('',*,*,#304,.F.);
#245=ORIENTED_EDGE('',*,*,#337,.F.);
#246=ORIENTED_EDGE('',*,*,#315,.T.);
#247=ORIENTED_EDGE('',*,*,#332,.T.);
#248=EDGE_CURVE('',#338,#339,#396,.T.);
#249=EDGE_CURVE('',#339,#340,#397,.T.);
#250=EDGE_CURVE('',#340,#341,#398,.T.);
#251=EDGE_CURVE('',#341,#338,#399,.T.);
#252=EDGE_CURVE('',#342,#343,#64,.T.);
#253=EDGE_CURVE('',#342,#344,#400,.T.);
#254=EDGE_CURVE('',#345,#344,#65,.T.);
#255=EDGE_CURVE('',#345,#346,#401,.T.);
#256=EDGE_CURVE('',#347,#346,#66,.T.);
#257=EDGE_CURVE('',#347,#348,#402,.T.);
#258=EDGE_CURVE('',#349,#348,#67,.T.);
#259=EDGE_CURVE('',#349,#343,#403,.T.);
#260=EDGE_CURVE('',#343,#350,#404,.T.);
#261=EDGE_CURVE('',#351,#349,#405,.T.);
#262=EDGE_CURVE('',#350,#351,#29,.F.);
#263=EDGE_CURVE('',#350,#352,#30,.F.);
#264=EDGE_CURVE('',#353,#351,#31,.F.);
#265=EDGE_CURVE('',#353,#352,#32,.T.);
#266=EDGE_CURVE('',#348,#354,#406,.T.);
#267=EDGE_CURVE('',#351,#354,#33,.F.);
#268=EDGE_CURVE('',#354,#355,#34,.T.);
#269=EDGE_CURVE('',#355,#353,#35,.T.);
#270=EDGE_CURVE('',#356,#357,#36,.F.);
#271=EDGE_CURVE('',#356,#355,#37,.T.);
#272=EDGE_CURVE('',#354,#357,#38,.T.);
#273=EDGE_CURVE('',#357,#347,#407,.T.);
#274=EDGE_CURVE('',#346,#358,#408,.T.);
#275=EDGE_CURVE('',#357,#358,#39,.F.);
#276=EDGE_CURVE('',#358,#359,#40,.F.);
#277=EDGE_CURVE('',#359,#356,#41,.T.);
#278=EDGE_CURVE('',#360,#361,#42,.F.);
#279=EDGE_CURVE('',#360,#359,#43,.T.);
#280=EDGE_CURVE('',#358,#361,#44,.F.);
#281=EDGE_CURVE('',#361,#345,#409,.T.);
#282=EDGE_CURVE('',#344,#362,#410,.T.);
#283=EDGE_CURVE('',#361,#362,#45,.F.);
#284=EDGE_CURVE('',#362,#363,#46,.T.);
#285=EDGE_CURVE('',#363,#360,#47,.T.);
#286=EDGE_CURVE('',#352,#364,#48,.F.);
#287=EDGE_CURVE('',#364,#363,#49,.F.);
#288=EDGE_CURVE('',#364,#365,#50,.F.);
#289=EDGE_CURVE('',#362,#365,#51,.T.);
#290=EDGE_CURVE('',#365,#342,#411,.T.);
#291=EDGE_CURVE('',#365,#350,#52,.F.);
#292=EDGE_CURVE('',#366,#367,#53,.T.);
#293=EDGE_CURVE('',#340,#366,#412,.T.);
#294=EDGE_CURVE('',#367,#339,#413,.T.);
#295=EDGE_CURVE('',#368,#366,#54,.T.);
#296=EDGE_CURVE('',#341,#368,#414,.T.);
#297=EDGE_CURVE('',#369,#368,#55,.T.);
#298=EDGE_CURVE('',#338,#369,#415,.T.);
#299=EDGE_CURVE('',#370,#371,#56,.T.);
#300=EDGE_CURVE('',#371,#372,#416,.F.);
#301=EDGE_CURVE('',#372,#373,#57,.T.);
#302=EDGE_CURVE('',#373,#374,#417,.T.);
#303=EDGE_CURVE('',#374,#375,#58,.T.);
#304=EDGE_CURVE('',#375,#376,#418,.F.);
#305=EDGE_CURVE('',#376,#377,#59,.T.);
#306=EDGE_CURVE('',#377,#378,#419,.F.);
#307=EDGE_CURVE('',#378,#379,#60,.T.);
#308=EDGE_CURVE('',#379,#380,#420,.T.);
#309=EDGE_CURVE('',#380,#381,#61,.T.);
#310=EDGE_CURVE('',#381,#370,#421,.F.);
#311=EDGE_CURVE('',#367,#369,#62,.T.);
#312=EDGE_CURVE('',#382,#382,#63,.T.);
#313=EDGE_CURVE('',#383,#384,#422,.T.);
#314=EDGE_CURVE('',#385,#383,#423,.T.);
#315=EDGE_CURVE('',#386,#385,#424,.T.);
#316=EDGE_CURVE('',#387,#386,#425,.T.);
#317=EDGE_CURVE('',#388,#387,#426,.T.);
#318=EDGE_CURVE('',#389,#388,#427,.T.);
#319=EDGE_CURVE('',#390,#389,#428,.T.);
#320=EDGE_CURVE('',#391,#390,#429,.T.);
#321=EDGE_CURVE('',#392,#391,#430,.T.);
#322=EDGE_CURVE('',#393,#392,#431,.T.);
#323=EDGE_CURVE('',#394,#393,#432,.T.);
#324=EDGE_CURVE('',#384,#394,#433,.T.);
#325=EDGE_CURVE('',#395,#395,#12,.T.);
#326=EDGE_CURVE('',#383,#377,#434,.T.);
#327=EDGE_CURVE('',#384,#378,#435,.T.);
#328=EDGE_CURVE('',#394,#379,#436,.T.);
#329=EDGE_CURVE('',#393,#380,#437,.T.);
#330=EDGE_CURVE('',#392,#381,#438,.T.);
#331=EDGE_CURVE('',#391,#370,#439,.T.);
#332=EDGE_CURVE('',#385,#376,#440,.T.);
#333=EDGE_CURVE('',#390,#371,#441,.T.);
#334=EDGE_CURVE('',#389,#372,#442,.T.);
#335=EDGE_CURVE('',#388,#373,#443,.T.);
#336=EDGE_CURVE('',#387,#374,#444,.T.);
#337=EDGE_CURVE('',#386,#375,#445,.T.);
#338=VERTEX_POINT('',#810);
#339=VERTEX_POINT('',#811);
#340=VERTEX_POINT('',#813);
#341=VERTEX_POINT('',#815);
#342=VERTEX_POINT('',#818);
#343=VERTEX_POINT('',#819);
#344=VERTEX_POINT('',#821);
#345=VERTEX_POINT('',#823);
#346=VERTEX_POINT('',#825);
#347=VERTEX_POINT('',#827);
#348=VERTEX_POINT('',#829);
#349=VERTEX_POINT('',#831);
#350=VERTEX_POINT('',#835);
#351=VERTEX_POINT('',#837);
#352=VERTEX_POINT('',#847);
#353=VERTEX_POINT('',#852);
#354=VERTEX_POINT('',#859);
#355=VERTEX_POINT('',#902);
#356=VERTEX_POINT('',#952);
#357=VERTEX_POINT('',#953);
#358=VERTEX_POINT('',#973);
#359=VERTEX_POINT('',#1013);
#360=VERTEX_POINT('',#1024);
#361=VERTEX_POINT('',#1025);
#362=VERTEX_POINT('',#1038);
#363=VERTEX_POINT('',#1079);
#364=VERTEX_POINT('',#1118);
#365=VERTEX_POINT('',#1175);
#366=VERTEX_POINT('',#1232);
#367=VERTEX_POINT('',#1233);
#368=VERTEX_POINT('',#1241);
#369=VERTEX_POINT('',#1251);
#370=VERTEX_POINT('',#1285);
#371=VERTEX_POINT('',#1286);
#372=VERTEX_POINT('',#1288);
#373=VERTEX_POINT('',#1293);
#374=VERTEX_POINT('',#1295);
#375=VERTEX_POINT('',#1300);
#376=VERTEX_POINT('',#1302);
#377=VERTEX_POINT('',#1307);
#378=VERTEX_POINT('',#1309);
#379=VERTEX_POINT('',#1314);
#380=VERTEX_POINT('',#1316);
#381=VERTEX_POINT('',#1321);
#382=VERTEX_POINT('',#1388);
#383=VERTEX_POINT('',#1391);
#384=VERTEX_POINT('',#1392);
#385=VERTEX_POINT('',#1394);
#386=VERTEX_POINT('',#1396);
#387=VERTEX_POINT('',#1398);
#388=VERTEX_POINT('',#1400);
#389=VERTEX_POINT('',#1402);
#390=VERTEX_POINT('',#1404);
#391=VERTEX_POINT('',#1406);
#392=VERTEX_POINT('',#1408);
#393=VERTEX_POINT('',#1410);
#394=VERTEX_POINT('',#1412);
#395=VERTEX_POINT('',#1415);
#396=LINE('',#809,#446);
#397=LINE('',#812,#447);
#398=LINE('',#814,#448);
#399=LINE('',#816,#449);
#400=LINE('',#820,#450);
#401=LINE('',#824,#451);
#402=LINE('',#828,#452);
#403=LINE('',#832,#453);
#404=LINE('',#834,#454);
#405=LINE('',#836,#455);
#406=LINE('',#858,#456);
#407=LINE('',#970,#457);
#408=LINE('',#972,#458);
#409=LINE('',#1035,#459);
#410=LINE('',#1037,#460);
#411=LINE('',#1186,#461);
#412=LINE('',#1234,#462);
#413=LINE('',#1235,#463);
#414=LINE('',#1242,#464);
#415=LINE('',#1252,#465);
#416=LINE('',#1287,#466);
#417=LINE('',#1294,#467);
#418=LINE('',#1301,#468);
#419=LINE('',#1308,#469);
#420=LINE('',#1315,#470);
#421=LINE('',#1322,#471);
#422=LINE('',#1390,#472);
#423=LINE('',#1393,#473);
#424=LINE('',#1395,#474);
#425=LINE('',#1397,#475);
#426=LINE('',#1399,#476);
#427=LINE('',#1401,#477);
#428=LINE('',#1403,#478);
#429=LINE('',#1405,#479);
#430=LINE('',#1407,#480);
#431=LINE('',#1409,#481);
#432=LINE('',#1411,#482);
#433=LINE('',#1413,#483);
#434=LINE('',#1417,#484);
#435=LINE('',#1418,#485);
#436=LINE('',#1420,#486);
#437=LINE('',#1422,#487);
#438=LINE('',#1424,#488);
#439=LINE('',#1426,#489);
#440=LINE('',#1428,#490);
#441=LINE('',#1431,#491);
#442=LINE('',#1433,#492);
#443=LINE('',#1435,#493);
#444=LINE('',#1437,#494);
#445=LINE('',#1439,#495);
#446=VECTOR('',#691,1.);
#447=VECTOR('',#692,1.);
#448=VECTOR('',#693,1.);
#449=VECTOR('',#694,1.);
#450=VECTOR('',#697,1.);
#451=VECTOR('',#700,1.);
#452=VECTOR('',#703,1.);
#453=VECTOR('',#706,1.);
#454=VECTOR('',#709,1.);
#455=VECTOR('',#710,1.);
#456=VECTOR('',#715,1.);
#457=VECTOR('',#718,1.);
#458=VECTOR('',#721,1.);
#459=VECTOR('',#726,1.);
#460=VECTOR('',#729,1.);
#461=VECTOR('',#732,1.);
#462=VECTOR('',#737,1.);
#463=VECTOR('',#738,1.);
#464=VECTOR('',#741,1.);
#465=VECTOR('',#744,1.);
#466=VECTOR('',#745,1.);
#467=VECTOR('',#746,1.);
#468=VECTOR('',#747,1.);
#469=VECTOR('',#748,1.);
#470=VECTOR('',#749,1.);
#471=VECTOR('',#750,1.);
#472=VECTOR('',#755,1.);
#473=VECTOR('',#756,1.);
#474=VECTOR('',#757,1.);
#475=VECTOR('',#758,1.);
#476=VECTOR('',#759,1.);
#477=VECTOR('',#760,1.);
#478=VECTOR('',#761,1.);
#479=VECTOR('',#762,1.);
#480=VECTOR('',#763,1.);
#481=VECTOR('',#764,1.);
#482=VECTOR('',#765,1.);
#483=VECTOR('',#766,1.);
#484=VECTOR('',#771,1.);
#485=VECTOR('',#772,1.);
#486=VECTOR('',#775,1.);
#487=VECTOR('',#778,1.);
#488=VECTOR('',#781,1.);
#489=VECTOR('',#784,1.);
#490=VECTOR('',#787,1.);
#491=VECTOR('',#792,1.);
#492=VECTOR('',#795,1.);
#493=VECTOR('',#798,1.);
#494=VECTOR('',#801,1.);
#495=VECTOR('',#804,1.);
#496=EDGE_LOOP('',(#68,#69,#70,#71));
#497=EDGE_LOOP('',(#72,#73,#74,#75,#76,#77,#78,#79));
#498=EDGE_LOOP('',(#80,#81,#82,#83));
#499=EDGE_LOOP('',(#84,#85,#86,#87));
#500=EDGE_LOOP('',(#88,#89,#90,#91));
#501=EDGE_LOOP('',(#92,#93,#94,#95));
#502=EDGE_LOOP('',(#96,#97,#98,#99));
#503=EDGE_LOOP('',(#100,#101,#102,#103));
#504=EDGE_LOOP('',(#104,#105,#106,#107));
#505=EDGE_LOOP('',(#108,#109,#110,#111));
#506=EDGE_LOOP('',(#112,#113,#114,#115));
#507=EDGE_LOOP('',(#116,#117,#118,#119));
#508=EDGE_LOOP('',(#120,#121,#122,#123));
#509=EDGE_LOOP('',(#124,#125,#126,#127));
#510=EDGE_LOOP('',(#128,#129,#130,#131,#132,#133,#134,#135));
#511=EDGE_LOOP('',(#136,#137,#138,#139));
#512=EDGE_LOOP('',(#140,#141,#142,#143));
#513=EDGE_LOOP('',(#144,#145,#146,#147));
#514=EDGE_LOOP('',(#148,#149,#150,#151));
#515=EDGE_LOOP('',(#152,#153,#154,#155));
#516=EDGE_LOOP('',(#156,#157,#158,#159));
#517=EDGE_LOOP('',(#160,#161,#162,#163));
#518=EDGE_LOOP('',(#164,#165,#166,#167,#168,#169,#170,#171,#172,#173,#174,
#175));
#519=EDGE_LOOP('',(#176,#177,#178,#179));
#520=EDGE_LOOP('',(#180));
#521=EDGE_LOOP('',(#181,#182,#183,#184));
#522=EDGE_LOOP('',(#185,#186,#187,#188,#189,#190,#191,#192,#193,#194,#195,
#196));
#523=EDGE_LOOP('',(#197));
#524=EDGE_LOOP('',(#198,#199,#200,#201));
#525=EDGE_LOOP('',(#202,#203,#204,#205));
#526=EDGE_LOOP('',(#206,#207,#208,#209));
#527=EDGE_LOOP('',(#210,#211,#212,#213));
#528=EDGE_LOOP('',(#214,#215,#216,#217));
#529=EDGE_LOOP('',(#218,#219,#220,#221));
#530=EDGE_LOOP('',(#222));
#531=EDGE_LOOP('',(#223));
#532=EDGE_LOOP('',(#224,#225,#226,#227));
#533=EDGE_LOOP('',(#228,#229,#230,#231));
#534=EDGE_LOOP('',(#232,#233,#234,#235));
#535=EDGE_LOOP('',(#236,#237,#238,#239));
#536=EDGE_LOOP('',(#240,#241,#242,#243));
#537=EDGE_LOOP('',(#244,#245,#246,#247));
#538=FACE_BOUND('',#496,.T.);
#539=FACE_BOUND('',#497,.T.);
#540=FACE_BOUND('',#498,.T.);
#541=FACE_BOUND('',#499,.T.);
#542=FACE_BOUND('',#500,.T.);
#543=FACE_BOUND('',#501,.T.);
#544=FACE_BOUND('',#502,.T.);
#545=FACE_BOUND('',#503,.T.);
#546=FACE_BOUND('',#504,.T.);
#547=FACE_BOUND('',#505,.T.);
#548=FACE_BOUND('',#506,.T.);
#549=FACE_BOUND('',#507,.T.);
#550=FACE_BOUND('',#508,.T.);
#551=FACE_BOUND('',#509,.T.);
#552=FACE_BOUND('',#510,.T.);
#553=FACE_BOUND('',#511,.T.);
#554=FACE_BOUND('',#512,.T.);
#555=FACE_BOUND('',#513,.T.);
#556=FACE_BOUND('',#514,.T.);
#557=FACE_BOUND('',#515,.T.);
#558=FACE_BOUND('',#516,.T.);
#559=FACE_BOUND('',#517,.T.);
#560=FACE_BOUND('',#518,.T.);
#561=FACE_BOUND('',#519,.T.);
#562=FACE_BOUND('',#520,.T.);
#563=FACE_BOUND('',#521,.T.);
#564=FACE_BOUND('',#522,.T.);
#565=FACE_BOUND('',#523,.T.);
#566=FACE_BOUND('',#524,.T.);
#567=FACE_BOUND('',#525,.T.);
#568=FACE_BOUND('',#526,.T.);
#569=FACE_BOUND('',#527,.T.);
#570=FACE_BOUND('',#528,.T.);
#571=FACE_BOUND('',#529,.T.);
#572=FACE_BOUND('',#530,.T.);
#573=FACE_BOUND('',#531,.T.);
#574=FACE_BOUND('',#532,.T.);
#575=FACE_BOUND('',#533,.T.);
#576=FACE_BOUND('',#534,.T.);
#577=FACE_BOUND('',#535,.T.);
#578=FACE_BOUND('',#536,.T.);
#579=FACE_BOUND('',#537,.T.);
#580=PLANE('',#653);
#581=PLANE('',#658);
#582=PLANE('',#661);
#583=PLANE('',#664);
#584=PLANE('',#666);
#585=PLANE('',#668);
#586=PLANE('',#669);
#587=PLANE('',#670);
#588=PLANE('',#671);
#589=PLANE('',#672);
#590=PLANE('',#674);
#591=PLANE('',#675);
#592=PLANE('',#676);
#593=PLANE('',#677);
#594=PLANE('',#678);
#595=PLANE('',#679);
#596=PLANE('',#681);
#597=PLANE('',#682);
#598=PLANE('',#683);
#599=PLANE('',#684);
#600=PLANE('',#685);
#601=PLANE('',#686);
#602=ADVANCED_FACE('',(#538,#539),#580,.F.);
#603=ADVANCED_FACE('',(#540),#581,.F.);
#604=ADVANCED_FACE('',(#541),#22,.T.);
#605=ADVANCED_FACE('',(#542),#23,.T.);
#606=ADVANCED_FACE('',(#543),#13,.F.);
#607=ADVANCED_FACE('',(#544),#14,.F.);
#608=ADVANCED_FACE('',(#545),#582,.F.);
#609=ADVANCED_FACE('',(#546),#24,.T.);
#610=ADVANCED_FACE('',(#547),#15,.F.);
#611=ADVANCED_FACE('',(#548),#25,.T.);
#612=ADVANCED_FACE('',(#549),#583,.F.);
#613=ADVANCED_FACE('',(#550),#26,.T.);
#614=ADVANCED_FACE('',(#551),#16,.F.);
#615=ADVANCED_FACE('',(#552),#17,.T.);
#616=ADVANCED_FACE('',(#553),#18,.F.);
#617=ADVANCED_FACE('',(#554),#584,.F.);
#618=ADVANCED_FACE('',(#555),#27,.T.);
#619=ADVANCED_FACE('',(#556),#19,.F.);
#620=ADVANCED_FACE('',(#557),#585,.T.);
#621=ADVANCED_FACE('',(#558),#586,.T.);
#622=ADVANCED_FACE('',(#559),#587,.T.);
#623=ADVANCED_FACE('',(#560),#20,.F.);
#624=ADVANCED_FACE('',(#561),#588,.T.);
#625=ADVANCED_FACE('',(#562,#563),#21,.F.);
#626=ADVANCED_FACE('',(#564,#565),#589,.F.);
#627=ADVANCED_FACE('',(#566),#590,.T.);
#628=ADVANCED_FACE('',(#567),#591,.T.);
#629=ADVANCED_FACE('',(#568),#592,.T.);
#630=ADVANCED_FACE('',(#569),#593,.T.);
#631=ADVANCED_FACE('',(#570),#594,.T.);
#632=ADVANCED_FACE('',(#571),#595,.T.);
#633=ADVANCED_FACE('',(#572,#573),#28,.T.);
#634=ADVANCED_FACE('',(#574),#596,.T.);
#635=ADVANCED_FACE('',(#575),#597,.T.);
#636=ADVANCED_FACE('',(#576),#598,.T.);
#637=ADVANCED_FACE('',(#577),#599,.T.);
#638=ADVANCED_FACE('',(#578),#600,.T.);
#639=ADVANCED_FACE('',(#579),#601,.T.);
#640=CLOSED_SHELL('',(#602,#603,#604,#605,#606,#607,#608,#609,#610,#611,
#612,#613,#614,#615,#616,#617,#618,#619,#620,#621,#622,#623,#624,#625,#626,
#627,#628,#629,#630,#631,#632,#633,#634,#635,#636,#637,#638,#639));
#641=STYLED_ITEM('',(#642),#649);
#642=PRESENTATION_STYLE_ASSIGNMENT((#643));
#643=SURFACE_STYLE_USAGE(.BOTH.,#644);
#644=SURFACE_SIDE_STYLE('',(#645));
#645=SURFACE_STYLE_FILL_AREA(#646);
#646=FILL_AREA_STYLE('',(#647));
#647=FILL_AREA_STYLE_COLOUR('',#648);
#648=DRAUGHTING_PRE_DEFINED_COLOUR('red');
#649=MANIFOLD_SOLID_BREP('1x1 R1 v23',#640);
#650=SHAPE_DEFINITION_REPRESENTATION(#1447,#651);
#651=SHAPE_REPRESENTATION('1x1 R1 v23',(#652),#1442);
#652=AXIS2_PLACEMENT_3D('',#807,#687,#688);
#653=AXIS2_PLACEMENT_3D('',#808,#689,#690);
#654=AXIS2_PLACEMENT_3D('',#817,#695,#696);
#655=AXIS2_PLACEMENT_3D('',#822,#698,#699);
#656=AXIS2_PLACEMENT_3D('',#826,#701,#702);
#657=AXIS2_PLACEMENT_3D('',#830,#704,#705);
#658=AXIS2_PLACEMENT_3D('',#833,#707,#708);
#659=AXIS2_PLACEMENT_3D('',#842,#711,#712);
#660=AXIS2_PLACEMENT_3D('',#857,#713,#714);
#661=AXIS2_PLACEMENT_3D('',#969,#716,#717);
#662=AXIS2_PLACEMENT_3D('',#971,#719,#720);
#663=AXIS2_PLACEMENT_3D('',#1019,#722,#723);
#664=AXIS2_PLACEMENT_3D('',#1034,#724,#725);
#665=AXIS2_PLACEMENT_3D('',#1036,#727,#728);
#666=AXIS2_PLACEMENT_3D('',#1185,#730,#731);
#667=AXIS2_PLACEMENT_3D('',#1187,#733,#734);
#668=AXIS2_PLACEMENT_3D('',#1224,#735,#736);
#669=AXIS2_PLACEMENT_3D('',#1236,#739,#740);
#670=AXIS2_PLACEMENT_3D('',#1243,#742,#743);
#671=AXIS2_PLACEMENT_3D('',#1323,#751,#752);
#672=AXIS2_PLACEMENT_3D('',#1389,#753,#754);
#673=AXIS2_PLACEMENT_3D('',#1414,#767,#768);
#674=AXIS2_PLACEMENT_3D('',#1416,#769,#770);
#675=AXIS2_PLACEMENT_3D('',#1419,#773,#774);
#676=AXIS2_PLACEMENT_3D('',#1421,#776,#777);
#677=AXIS2_PLACEMENT_3D('',#1423,#779,#780);
#678=AXIS2_PLACEMENT_3D('',#1425,#782,#783);
#679=AXIS2_PLACEMENT_3D('',#1427,#785,#786);
#680=AXIS2_PLACEMENT_3D('',#1429,#788,#789);
#681=AXIS2_PLACEMENT_3D('',#1430,#790,#791);
#682=AXIS2_PLACEMENT_3D('',#1432,#793,#794);
#683=AXIS2_PLACEMENT_3D('',#1434,#796,#797);
#684=AXIS2_PLACEMENT_3D('',#1436,#799,#800);
#685=AXIS2_PLACEMENT_3D('',#1438,#802,#803);
#686=AXIS2_PLACEMENT_3D('',#1440,#805,#806);
#687=DIRECTION('',(0.,0.,1.));
#688=DIRECTION('',(1.,0.,0.));
#689=DIRECTION('',(0.,1.,0.));
#690=DIRECTION('',(0.,0.,1.));
#691=DIRECTION('',(0.,0.,-1.));
#692=DIRECTION('',(-1.,0.,0.));
#693=DIRECTION('',(0.,0.,1.));
#694=DIRECTION('',(1.,0.,0.));
#695=DIRECTION('',(0.,1.,0.));
#696=DIRECTION('',(0.573462344363328,1.35029664175783E-18,0.819231920519041));
#697=DIRECTION('',(-1.,0.,0.));
#698=DIRECTION('',(0.,1.,0.));
#699=DIRECTION('',(-0.573462344363328,0.,0.819231920519041));
#700=DIRECTION('',(0.,0.,-1.));
#701=DIRECTION('',(0.,1.,0.));
#702=DIRECTION('',(-1.,0.,1.33733923438607E-15));
#703=DIRECTION('',(1.,0.,0.));
#704=DIRECTION('',(0.,1.,0.));
#705=DIRECTION('',(1.,0.,1.33733923438607E-15));
#706=DIRECTION('',(0.,0.,1.));
#707=DIRECTION('',(-0.96365447642385,-0.267151736038295,0.));
#708=DIRECTION('',(0.,0.,1.));
#709=DIRECTION('',(-0.249592436954374,0.90031557615685,-0.356560624220534));
#710=DIRECTION('',(0.267151736038295,-0.96365447642385,2.11855720298784E-16));
#711=DIRECTION('',(0.0423806455175819,-0.152872986269735,-0.987336685712876));
#712=DIRECTION('',(0.462366140187823,0.87903455775043,-0.116257467236816));
#713=DIRECTION('',(-0.267151736038295,0.96365447642385,-2.11855720298784E-16));
#714=DIRECTION('',(0.681406615000076,0.188904804158437,-0.707106781186548));
#715=DIRECTION('',(-0.267151736038295,0.96365447642385,-2.11855720298784E-16));
#716=DIRECTION('',(0.,0.,1.));
#717=DIRECTION('',(1.,0.,0.));
#718=DIRECTION('',(-0.267151736038295,-0.96365447642385,2.11855720298784E-16));
#719=DIRECTION('',(0.267151736038295,0.96365447642385,-2.11855720298784E-16));
#720=DIRECTION('',(-0.681406615000076,0.188904804158437,-0.707106781186548));
#721=DIRECTION('',(0.267151736038295,0.96365447642385,-2.11855720298784E-16));
#722=DIRECTION('',(0.042380856674486,0.152873748042914,0.987336558700653));
#723=DIRECTION('',(-0.462366333799486,0.879034382012009,-0.116258026000737));
#724=DIRECTION('',(0.96365447642385,-0.267151736038295,0.));
#725=DIRECTION('',(0.,0.,-1.));
#726=DIRECTION('',(-0.249592436954374,-0.90031557615685,0.356560624220534));
#727=DIRECTION('',(0.249592436954374,0.90031557615685,-0.356560624220534));
#728=DIRECTION('',(-0.650177890386765,0.428681569386193,0.627296439429403));
#729=DIRECTION('',(0.249592436954374,0.90031557615685,-0.356560624220534));
#730=DIRECTION('',(0.,-0.368214245191347,-0.929740969108153));
#731=DIRECTION('',(-1.,0.,0.));
#732=DIRECTION('',(0.249592436954374,-0.90031557615685,0.356560624220534));
#733=DIRECTION('',(-0.249592436954374,0.90031557615685,-0.356560624220534));
#734=DIRECTION('',(0.650177890386766,0.428681569386193,0.627296439429402));
#735=DIRECTION('',(0.,0.,1.));
#736=DIRECTION('',(1.,0.,0.));
#737=DIRECTION('',(0.267151736038295,0.96365447642385,-2.11855720298784E-16));
#738=DIRECTION('',(0.267151736038295,-0.96365447642385,2.11855720298784E-16));
#739=DIRECTION('',(0.96365447642385,-0.267151736038295,0.));
#740=DIRECTION('',(0.,0.,-1.));
#741=DIRECTION('',(0.249592436954374,0.90031557615685,-0.356560624220534));
#742=DIRECTION('',(0.,-0.368214245191347,-0.929740969108153));
#743=DIRECTION('',(-1.,0.,0.));
#744=DIRECTION('',(-0.249592436954374,0.90031557615685,-0.356560624220534));
#745=DIRECTION('',(0.,0.155266176854513,0.987872671109482));
#746=DIRECTION('',(0.,-0.155630231751997,-0.987815383037144));
#747=DIRECTION('',(0.,0.155264906068006,0.987872870841027));
#748=DIRECTION('',(0.,-0.155264906068008,-0.987872870841027));
#749=DIRECTION('',(0.,0.155630231751998,0.987815383037144));
#750=DIRECTION('',(0.,-0.155266176854513,-0.987872671109482));
#751=DIRECTION('',(-0.96365447642385,-0.267151736038295,0.));
#752=DIRECTION('',(0.,0.,1.));
#753=DIRECTION('',(0.,1.,0.));
#754=DIRECTION('',(0.,0.,1.));
#755=DIRECTION('',(4.46071750965465E-16,0.,1.));
#756=DIRECTION('',(1.,0.,0.));
#757=DIRECTION('',(1.98254111540207E-16,0.,-1.));
#758=DIRECTION('',(1.,0.,-2.00988651009727E-15));
#759=DIRECTION('',(0.,0.,-1.));
#760=DIRECTION('',(-1.,0.,1.33992434006484E-15));
#761=DIRECTION('',(-4.46071750965464E-16,0.,-1.));
#762=DIRECTION('',(-1.,0.,0.));
#763=DIRECTION('',(-1.68515994809176E-15,0.,1.));
#764=DIRECTION('',(-1.,0.,-4.30689966449415E-16));
#765=DIRECTION('',(0.,0.,1.));
#766=DIRECTION('',(1.,0.,1.72275986579766E-15));
#767=DIRECTION('',(0.,1.,0.));
#768=DIRECTION('',(1.,0.,0.));
#769=DIRECTION('',(-1.,0.,0.));
#770=DIRECTION('',(0.,0.,1.));
#771=DIRECTION('',(0.,1.,0.));
#772=DIRECTION('',(0.,1.,0.));
#773=DIRECTION('',(0.,0.,1.));
#774=DIRECTION('',(1.,0.,0.));
#775=DIRECTION('',(0.,1.,0.));
#776=DIRECTION('',(-1.,0.,0.));
#777=DIRECTION('',(0.,0.,1.));
#778=DIRECTION('',(0.,1.,0.));
#779=DIRECTION('',(0.,0.,-1.));
#780=DIRECTION('',(-1.,0.,0.));
#781=DIRECTION('',(0.,1.,0.));
#782=DIRECTION('',(-1.,0.,0.));
#783=DIRECTION('',(0.,0.,1.));
#784=DIRECTION('',(0.,1.,0.));
#785=DIRECTION('',(0.,0.,1.));
#786=DIRECTION('',(1.,0.,0.));
#787=DIRECTION('',(0.,1.,0.));
#788=DIRECTION('',(0.,1.,0.));
#789=DIRECTION('',(1.,0.,0.));
#790=DIRECTION('',(0.,0.,-1.));
#791=DIRECTION('',(-1.,0.,0.));
#792=DIRECTION('',(0.,1.,0.));
#793=DIRECTION('',(1.,0.,0.));
#794=DIRECTION('',(0.,0.,-1.));
#795=DIRECTION('',(0.,1.,0.));
#796=DIRECTION('',(0.,0.,-1.));
#797=DIRECTION('',(-1.,0.,0.));
#798=DIRECTION('',(0.,1.,0.));
#799=DIRECTION('',(1.,0.,0.));
#800=DIRECTION('',(0.,0.,-1.));
#801=DIRECTION('',(0.,1.,0.));
#802=DIRECTION('',(0.,0.,1.));
#803=DIRECTION('',(1.,0.,0.));
#804=DIRECTION('',(0.,1.,0.));
#805=DIRECTION('',(1.,0.,0.));
#806=DIRECTION('',(0.,0.,-1.));
#807=CARTESIAN_POINT('',(0.,0.,0.));
#808=CARTESIAN_POINT('',(0.235,-1.11022302462517E-18,1.41931920761739E-18));
#809=CARTESIAN_POINT('',(0.242702854570199,-1.24900090270331E-18,-0.0045));
#810=CARTESIAN_POINT('',(0.242702854570199,-1.24900090270331E-18,0.00765553950881711));
#811=CARTESIAN_POINT('',(0.242702854570199,-1.01192202765315E-18,-0.00775));
#812=CARTESIAN_POINT('',(0.2305,-1.11022302462517E-18,-0.00775));
#813=CARTESIAN_POINT('',(0.227297145429801,-8.85431774196509E-19,-0.00775));
#814=CARTESIAN_POINT('',(0.227297145429801,-1.24900090270331E-18,0.0045));
#815=CARTESIAN_POINT('',(0.227297145429801,-1.24900090270331E-18,0.00765553950881711));
#816=CARTESIAN_POINT('',(0.2395,-1.24900090270331E-18,0.00765553950881711));
#817=CARTESIAN_POINT('',(0.242962283656159,-1.38777878078146E-18,0.00792443160705369));
#818=CARTESIAN_POINT('',(0.243064362852846,-1.11022302462517E-18,0.009));
#819=CARTESIAN_POINT('',(0.244,-1.11022302462517E-18,0.00803023427479163));
#820=CARTESIAN_POINT('',(0.244,-1.11022302462517E-18,0.009));
#821=CARTESIAN_POINT('',(0.226935637147154,-1.11022302462517E-18,0.009));
#822=CARTESIAN_POINT('',(0.227037716343841,-1.11022302462517E-18,0.00792443160705369));
#823=CARTESIAN_POINT('',(0.226,-1.11022302462517E-18,0.00803023427479163));
#824=CARTESIAN_POINT('',(0.226,-1.11022302462517E-18,0.009));
#825=CARTESIAN_POINT('',(0.226,-1.11022302462517E-18,-0.008));
#826=CARTESIAN_POINT('',(0.227037716343841,-1.11022302462517E-18,-0.008));
#827=CARTESIAN_POINT('',(0.227037716343841,-1.00180280737662E-18,-0.009));
#828=CARTESIAN_POINT('',(0.226,-1.11022302462517E-18,-0.009));
#829=CARTESIAN_POINT('',(0.242962283656159,-1.11022302462517E-18,-0.009));
#830=CARTESIAN_POINT('',(0.242962283656159,-1.11022302462517E-18,-0.008));
#831=CARTESIAN_POINT('',(0.244,-1.11022302462517E-18,-0.008));
#832=CARTESIAN_POINT('',(0.244,-1.11022302462517E-18,-0.009));
#833=CARTESIAN_POINT('',(0.244,-1.11022302462517E-18,-0.009));
#834=CARTESIAN_POINT('',(0.243285350624731,0.00257784238936497,0.0070093065958352));
#835=CARTESIAN_POINT('',(0.241350767846093,0.00955596955704926,0.00424568625682071));
#836=CARTESIAN_POINT('',(0.243357669549386,0.00231697769685935,-0.008));
#837=CARTESIAN_POINT('',(0.241876418764552,0.00765987206380309,-0.00799999974967703));
#838=CARTESIAN_POINT('',(0.241876467361514,0.00765988558882589,-0.00799999975782116));
#839=CARTESIAN_POINT('',(0.241701250427595,0.00829191810046041,-0.00391810442280212));
#840=CARTESIAN_POINT('',(0.241526033493677,0.00892395061209493,0.000163790912216907));
#841=CARTESIAN_POINT('',(0.241350816559758,0.00955598312372945,0.00424568624723594));
#842=CARTESIAN_POINT('',(0.241324341558902,0.0085273898954574,-0.00187710515503158));
#843=CARTESIAN_POINT('',(0.240964082041453,0.00975535581726504,0.00419821637949319));
#844=CARTESIAN_POINT('',(0.241118518008927,0.00980883091027362,0.00419656575526332));
#845=CARTESIAN_POINT('',(0.241307419387894,0.00971140906751326,0.00421975846151234));
#846=CARTESIAN_POINT('',(0.241350719121717,0.00955595602900771,0.00424568651682694));
#847=CARTESIAN_POINT('',(0.240964037148763,0.00975548479116527,0.00419819447617087));
#848=CARTESIAN_POINT('',(0.241876370178243,0.00765985850035253,-0.00799999998829437));
#849=CARTESIAN_POINT('',(0.24183253443332,0.00781734682264386,-0.00802626609964698));
#850=CARTESIAN_POINT('',(0.241639030019908,0.00791459397714264,-0.00804962925755528));
#851=CARTESIAN_POINT('',(0.24148374988766,0.00785717289454695,-0.00804740381396475));
#852=CARTESIAN_POINT('',(0.241483723162868,0.00785724468952519,-0.00804741607404737));
#853=CARTESIAN_POINT('',(0.241483749887512,0.00785717289504817,-0.00804740381070928));
#854=CARTESIAN_POINT('',(0.241310519746079,0.00848992124794186,-0.00396553394659833));
#855=CARTESIAN_POINT('',(0.241137297293087,0.00912264894619793,0.000116339445566652));
#856=CARTESIAN_POINT('',(0.24096408208476,0.00975535583095387,0.00419821637133433));
#857=CARTESIAN_POINT('',(0.242394015072961,0.00204982596082106,-0.008));
#858=CARTESIAN_POINT('',(0.242394015072961,0.00204982596082106,-0.009));
#859=CARTESIAN_POINT('',(0.240938803413214,0.00729898230658554,-0.009));
#860=CARTESIAN_POINT('',(0.240938803411095,0.00729898230606778,-0.009));
#861=CARTESIAN_POINT('',(0.241065222385854,0.00732580658402072,-0.00900000000022354));
#862=CARTESIAN_POINT('',(0.241314542623338,0.00738749603488747,-0.00895542804895587));
#863=CARTESIAN_POINT('',(0.241596171482245,0.00748505879942292,-0.00874537385082559));
#864=CARTESIAN_POINT('',(0.241724142688783,0.00754194044781233,-0.00858127350534321));
#865=CARTESIAN_POINT('',(0.241859352072418,0.00761620786518345,-0.00830952056599004));
#866=CARTESIAN_POINT('',(0.241880647631757,0.00764480675687715,-0.00812998863749459));
#867=CARTESIAN_POINT('',(0.241876467371909,0.00765988555132733,-0.00800000000000069));
#868=CARTESIAN_POINT('',(0.24187646737191,0.00765988555132733,-0.00800000000000069));
#869=CARTESIAN_POINT('',(0.241883173840721,0.00763569436025374,-0.00822319975904509));
#870=CARTESIAN_POINT('',(0.241773466158419,0.00755179650351171,-0.00859208269925487));
#871=CARTESIAN_POINT('',(0.241378453229388,0.00740429853294859,-0.00893060135042149));
#872=CARTESIAN_POINT('',(0.241085941917225,0.00733020296889568,-0.00900000000026017));
#873=CARTESIAN_POINT('',(0.240938803411095,0.00729898230606778,-0.009));
#874=CARTESIAN_POINT('',(0.241854617849882,0.00773869989863918,-0.00801314099007798));
#875=CARTESIAN_POINT('',(0.241858961836598,0.00771177395835093,-0.00823778974843204));
#876=CARTESIAN_POINT('',(0.24174523499717,0.00762053686719146,-0.00860210185794286));
#877=CARTESIAN_POINT('',(0.241356966204161,0.00747082020259128,-0.00893016862295018));
#878=CARTESIAN_POINT('',(0.241070745363654,0.00739849526575312,-0.00899905700838156));
#879=CARTESIAN_POINT('',(0.240925965898901,0.00736838463250146,-0.00900000000001069));
#880=CARTESIAN_POINT('',(0.241741052796997,0.00787612592114228,-0.00803929385787997));
#881=CARTESIAN_POINT('',(0.241744040092772,0.0078448744973082,-0.00824999438261972));
#882=CARTESIAN_POINT('',(0.241641227897163,0.00774447593360316,-0.00858536467538203));
#883=CARTESIAN_POINT('',(0.241292835970858,0.00759788489018567,-0.00888210930527405));
#884=CARTESIAN_POINT('',(0.241032707649733,0.00753264116545187,-0.00894629777470359));
#885=CARTESIAN_POINT('',(0.24090035360709,0.00750685014018683,-0.00894804351058128));
#886=CARTESIAN_POINT('',(0.241561378840715,0.00788605636323622,-0.00804854378470096));
#887=CARTESIAN_POINT('',(0.241567124913491,0.00785836880238798,-0.00822288390833758));
#888=CARTESIAN_POINT('',(0.241496694556779,0.00777642494977802,-0.0085064342775567));
#889=CARTESIAN_POINT('',(0.241215003345839,0.00765328402197769,-0.00876289300818014));
#890=CARTESIAN_POINT('',(0.240997691402281,0.00759980095310853,-0.00881662766827074));
#891=CARTESIAN_POINT('',(0.240886962542636,0.00757924508933642,-0.00881724666874387));
#892=CARTESIAN_POINT('',(0.241483723162868,0.00785724468952536,-0.00804741607404738));
#893=CARTESIAN_POINT('',(0.241490342372379,0.00783302113980328,-0.00820365454371652));
#894=CARTESIAN_POINT('',(0.241432634785273,0.0077649197813693,-0.00846214687243333));
#895=CARTESIAN_POINT('',(0.241181569619084,0.00765693141652604,-0.0086991138450117));
#896=CARTESIAN_POINT('',(0.240985012909131,0.00760875337543063,-0.00874760404787522));
#897=CARTESIAN_POINT('',(0.240884927386413,0.00759024757820658,-0.00874755959668927));
#898=CARTESIAN_POINT('',(0.240938803413608,0.00729898230660097,-0.009));
#899=CARTESIAN_POINT('',(0.240913128389139,0.00743778695943041,-0.00899999999998916));
#900=CARTESIAN_POINT('',(0.240888997700931,0.00756824260085232,-0.00888693374077657));
#901=CARTESIAN_POINT('',(0.240884927388122,0.00759024757852262,-0.00874755959669003));
#902=CARTESIAN_POINT('',(0.24088492738641,0.00759024757821239,-0.00874755959665164));
#903=CARTESIAN_POINT('',(0.240884927386413,0.00759024757820658,-0.00874755959668927));
#904=CARTESIAN_POINT('',(0.241060077051171,0.00762263272334867,-0.00874763738626468));
#905=CARTESIAN_POINT('',(0.241393341892701,0.00772578293359379,-0.00859216489437804));
#906=CARTESIAN_POINT('',(0.241491445573964,0.00782898388151627,-0.00822969428866138));
#907=CARTESIAN_POINT('',(0.241483723162868,0.00785724468952536,-0.00804741607404738));
#908=CARTESIAN_POINT('',(0.229115072612437,0.00759024757841934,-0.00874755959668978));
#909=CARTESIAN_POINT('',(0.229654582820091,0.00749049222663599,-0.00874731998391016));
#910=CARTESIAN_POINT('',(0.231340080802748,0.00731402328697827,-0.00874677443790168));
#911=CARTESIAN_POINT('',(0.234151699146505,0.00720945412831668,-0.00874652816429466));
#912=CARTESIAN_POINT('',(0.236983521509559,0.00724069916558563,-0.0087466041256721));
#913=CARTESIAN_POINT('',(0.239218892375565,0.00737208322961025,-0.00874694221725977));
#914=CARTESIAN_POINT('',(0.240346248007795,0.00749064584666074,-0.00874732035290586));
#915=CARTESIAN_POINT('',(0.240884927386411,0.00759024757820645,-0.00874755959668927));
#916=CARTESIAN_POINT('',(0.229113037456091,0.007579245089573,-0.0088172466687368));
#917=CARTESIAN_POINT('',(0.229653274740131,0.00747940708371187,-0.00881705609805757));
#918=CARTESIAN_POINT('',(0.231339412488077,0.00730301586131179,-0.00881662193549586));
#919=CARTESIAN_POINT('',(0.23415158963108,0.00719847633961114,-0.00881642579218926));
#920=CARTESIAN_POINT('',(0.236983817833422,0.00722970458213772,-0.00881648632558116));
#921=CARTESIAN_POINT('',(0.239219778100069,0.00736105888075687,-0.0088167554478735));
#922=CARTESIAN_POINT('',(0.24034755720743,0.00747956083102151,-0.00881705639153006));
#923=CARTESIAN_POINT('',(0.240886962542756,0.00757924508935992,-0.00881724666873639));
#924=CARTESIAN_POINT('',(0.229099636521989,0.00750679678441352,-0.00894797984209104));
#925=CARTESIAN_POINT('',(0.229644811044344,0.00740607635829523,-0.00894791733327443));
#926=CARTESIAN_POINT('',(0.231335028575757,0.0072295216515592,-0.00894777533652078));
#927=CARTESIAN_POINT('',(0.234150930432524,0.00712487424847474,-0.00894771125006502));
#928=CARTESIAN_POINT('',(0.236985646718594,0.00715607436022836,-0.00894773088966671));
#929=CARTESIAN_POINT('',(0.23922558856951,0.00728767081367491,-0.00894781911507543));
#930=CARTESIAN_POINT('',(0.24035602850641,0.00740623146450525,-0.00894791742953592));
#931=CARTESIAN_POINT('',(0.240900363476848,0.00750679678419857,-0.0089479798420909));
#932=CARTESIAN_POINT('',(0.229074034099433,0.00736838463284802,-0.009));
#933=CARTESIAN_POINT('',(0.229628534664115,0.00726585871268416,-0.00900000094769209));
#934=CARTESIAN_POINT('',(0.231326586361304,0.00708866729398667,-0.00900000165534518));
#935=CARTESIAN_POINT('',(0.234149631536524,0.00698366535923186,-0.00900000161364747));
#936=CARTESIAN_POINT('',(0.236989224756205,0.00701486234474328,-0.00900000204320412));
#937=CARTESIAN_POINT('',(0.239236755173149,0.00714711482502789,-0.00900000112115392));
#938=CARTESIAN_POINT('',(0.240372319248452,0.00726601659929972,-0.00900000094623267));
#939=CARTESIAN_POINT('',(0.240925965899384,0.00736838463262921,-0.009));
#940=CARTESIAN_POINT('',(0.229061196587211,0.00729898230642728,-0.009));
#941=CARTESIAN_POINT('',(0.229620385129192,0.00719554788121247,-0.009));
#942=CARTESIAN_POINT('',(0.231322358147484,0.00701803641003434,-0.009));
#943=CARTESIAN_POINT('',(0.23414898480582,0.00691285654088808,-0.009));
#944=CARTESIAN_POINT('',(0.236991009458315,0.00694405131855572,-0.009));
#945=CARTESIAN_POINT('',(0.239242349348705,0.00707663440212226,-0.009));
#946=CARTESIAN_POINT('',(0.240380476002714,0.00719570716689799,-0.009));
#947=CARTESIAN_POINT('',(0.240938803411595,0.00729898230620654,-0.009));
#948=CARTESIAN_POINT('',(0.229061196587211,0.00729898230642728,-0.009));
#949=CARTESIAN_POINT('',(0.229086871611655,0.00743778695926876,-0.009));
#950=CARTESIAN_POINT('',(0.229111002299745,0.00756824260072666,-0.00888693374078382));
#951=CARTESIAN_POINT('',(0.229115072612437,0.00759024757841934,-0.00874755959668978));
#952=CARTESIAN_POINT('',(0.229115072612439,0.00759024757841896,-0.00874755959668988));
#953=CARTESIAN_POINT('',(0.229061196585161,0.00729898230689824,-0.009));
#954=CARTESIAN_POINT('',(0.229115072612437,0.00759024757841934,-0.00874755959668978));
#955=CARTESIAN_POINT('',(0.230059215475832,0.00741567571279848,-0.00874714027432544));
#956=CARTESIAN_POINT('',(0.232048049412843,0.00728010681127548,-0.00874665936111815));
#957=CARTESIAN_POINT('',(0.235003153708757,0.00720603437228903,-0.00874653840558532));
#958=CARTESIAN_POINT('',(0.237956098949912,0.00728080209931145,-0.00874666453057649));
#959=CARTESIAN_POINT('',(0.239942238473833,0.00741594454800146,-0.0087471409200683));
#960=CARTESIAN_POINT('',(0.240884927386411,0.00759024757820645,-0.00874755959668927));
#961=CARTESIAN_POINT('',(0.240938803411595,0.00729898230620654,-0.009));
#962=CARTESIAN_POINT('',(0.240380476002714,0.00719570716689799,-0.009));
#963=CARTESIAN_POINT('',(0.239242349348705,0.00707663440212226,-0.009));
#964=CARTESIAN_POINT('',(0.236991009458315,0.00694405131855572,-0.009));
#965=CARTESIAN_POINT('',(0.23414898480582,0.00691285654088808,-0.009));
#966=CARTESIAN_POINT('',(0.231322358147484,0.00701803641003434,-0.009));
#967=CARTESIAN_POINT('',(0.229620385129192,0.00719554788121247,-0.009));
#968=CARTESIAN_POINT('',(0.229061196587211,0.00729898230642728,-0.009));
#969=CARTESIAN_POINT('',(0.226,-1.11022302462517E-18,-0.009));
#970=CARTESIAN_POINT('',(0.226963654476424,-0.000267151736038298,-0.009));
#971=CARTESIAN_POINT('',(0.226963654476424,-0.000267151736038298,-0.008));
#972=CARTESIAN_POINT('',(0.226,-2.42861286636754E-18,-0.008));
#973=CARTESIAN_POINT('',(0.228123581224377,0.00765987206588861,-0.00799999975051806));
#974=CARTESIAN_POINT('',(0.22812353262809,0.00765988555132424,-0.00800000000002921));
#975=CARTESIAN_POINT('',(0.228115721153243,0.00763170844559804,-0.00825997575686507));
#976=CARTESIAN_POINT('',(0.228296726016367,0.0075033234408069,-0.00877812532587025));
#977=CARTESIAN_POINT('',(0.228808315948294,0.007352639920484,-0.00900000000000125));
#978=CARTESIAN_POINT('',(0.229061196587212,0.00729898230642716,-0.009));
#979=CARTESIAN_POINT('',(0.229061196587211,0.00729898230642716,-0.009));
#980=CARTESIAN_POINT('',(0.228914059040464,0.00733020276573328,-0.00900000000000073));
#981=CARTESIAN_POINT('',(0.228621540351415,0.00740430047862354,-0.00893059826680279));
#982=CARTESIAN_POINT('',(0.228226533807933,0.00755179705034623,-0.00859207999490087));
#983=CARTESIAN_POINT('',(0.228116826203011,0.00763569451798069,-0.00822319830376001));
#984=CARTESIAN_POINT('',(0.22812353262809,0.00765988555132424,-0.00800000000002921));
#985=CARTESIAN_POINT('',(0.229074034099433,0.00736838463284792,-0.009));
#986=CARTESIAN_POINT('',(0.228929255578686,0.00739849506981759,-0.00899905701426903));
#987=CARTESIAN_POINT('',(0.228643027519877,0.00747082213096299,-0.00893016563318015));
#988=CARTESIAN_POINT('',(0.228254764944189,0.00762053747263853,-0.00860209926101296));
#989=CARTESIAN_POINT('',(0.228141038191732,0.00771177413390857,-0.00823778828369911));
#990=CARTESIAN_POINT('',(0.228145382150118,0.00773869989863575,-0.00801314099010667));
#991=CARTESIAN_POINT('',(0.229099646391386,0.00750685014048353,-0.00894804351056086));
#992=CARTESIAN_POINT('',(0.22896729321174,0.00753264099763638,-0.00894629778584031));
#993=CARTESIAN_POINT('',(0.228707158372719,0.00759788669060787,-0.00888210659622997));
#994=CARTESIAN_POINT('',(0.22835877209417,0.00774447662465149,-0.00858536235251775));
#995=CARTESIAN_POINT('',(0.228255959926712,0.00784487470106788,-0.00824999300883048));
#996=CARTESIAN_POINT('',(0.228258947203003,0.00787612592113783,-0.00803929385790685));
#997=CARTESIAN_POINT('',(0.22911303745609,0.00757924508957319,-0.00881724666873682));
#998=CARTESIAN_POINT('',(0.229002309318438,0.00759980081936357,-0.00881662767210386));
#999=CARTESIAN_POINT('',(0.228784991968738,0.0076532855346758,-0.00876289066959042));
#1000=CARTESIAN_POINT('',(0.228503305559774,0.00777642553479274,-0.00850643224579763));
#1001=CARTESIAN_POINT('',(0.228432875123978,0.00785836898291198,-0.00822288277162213));
#1002=CARTESIAN_POINT('',(0.228438621159284,0.00788605636323269,-0.00804854378472323));
#1003=CARTESIAN_POINT('',(0.229115072612435,0.0075902475784196,-0.00874755959668979));
#1004=CARTESIAN_POINT('',(0.229014987742311,0.00760875325502358,-0.00874760404740428));
#1005=CARTESIAN_POINT('',(0.228818426159022,0.00765693276872381,-0.00869911168830152));
#1006=CARTESIAN_POINT('',(0.228567365367724,0.00776492026621917,-0.00846214497724147));
#1007=CARTESIAN_POINT('',(0.228509657670783,0.00783302129774197,-0.00820365352502586));
#1008=CARTESIAN_POINT('',(0.228516276837131,0.00785724468952227,-0.00804741607406735));
#1009=CARTESIAN_POINT('',(0.228516248435061,0.00785716838802167,-0.00804740304688152));
#1010=CARTESIAN_POINT('',(0.228360969863321,0.00791458851722962,-0.00804962850238896));
#1011=CARTESIAN_POINT('',(0.228167467786849,0.00781734435528219,-0.00802626586989302));
#1012=CARTESIAN_POINT('',(0.228123629799559,0.00765985850432249,-0.00799999999184259));
#1013=CARTESIAN_POINT('',(0.22851627683719,0.00785724468950072,-0.00804741607406604));
#1014=CARTESIAN_POINT('',(0.228516276837131,0.00785724468952227,-0.00804741607406735));
#1015=CARTESIAN_POINT('',(0.228508554476391,0.00782898406577859,-0.00822969310018561));
#1016=CARTESIAN_POINT('',(0.22860665431366,0.00772578456025992,-0.0085921616229686));
#1017=CARTESIAN_POINT('',(0.228939924089718,0.00762263251247657,-0.00874763738544015));
#1018=CARTESIAN_POINT('',(0.229115072612435,0.0075902475784196,-0.00874755959668979));
#1019=CARTESIAN_POINT('',(0.228675658589266,0.00852738972440473,-0.00187710495714163));
#1020=CARTESIAN_POINT('',(0.228649280845801,0.0095559560383595,0.00424568651072435));
#1021=CARTESIAN_POINT('',(0.228692578521613,0.00971141144576657,0.00421975812593099));
#1022=CARTESIAN_POINT('',(0.228881481976961,0.00980883622125067,0.00419656483942412));
#1023=CARTESIAN_POINT('',(0.229035919590527,0.00975536050587659,0.0041982155793068));
#1024=CARTESIAN_POINT('',(0.229035962851281,0.00975548479115042,0.00419819447617529));
#1025=CARTESIAN_POINT('',(0.228649232137753,0.00955596956204007,0.00424568625523301));
#1026=CARTESIAN_POINT('',(0.229035919555909,0.00975536051729248,0.00419821557557458));
#1027=CARTESIAN_POINT('',(0.228862703239887,0.00912265056349702,0.000116339172449803));
#1028=CARTESIAN_POINT('',(0.228689479680896,0.00848991980110859,-0.0039655336978869));
#1029=CARTESIAN_POINT('',(0.228516248435319,0.00785716838893317,-0.00804740304098219));
#1030=CARTESIAN_POINT('',(0.228649183440179,0.00955598312350177,0.00424568624576558));
#1031=CARTESIAN_POINT('',(0.228473966506267,0.00892395061189316,0.000163790910913875));
#1032=CARTESIAN_POINT('',(0.228298749572356,0.00829191810028456,-0.00391810442393783));
#1033=CARTESIAN_POINT('',(0.228123532638445,0.00765988558867595,-0.00799999975878953));
#1034=CARTESIAN_POINT('',(0.226,-1.11022302462517E-18,0.009));
#1035=CARTESIAN_POINT('',(0.226474363320443,0.00171109626302409,0.00735257238844545));
#1036=CARTESIAN_POINT('',(0.227438017796866,0.0014439445269858,0.00735257238844545));
#1037=CARTESIAN_POINT('',(0.227438017796866,0.00181215877217714,0.00828231335755361));
#1038=CARTESIAN_POINT('',(0.229580487733159,0.00954035389950919,0.00522164201999636));
#1039=CARTESIAN_POINT('',(0.229580487733158,0.0095403538995092,0.00522164201999636));
#1040=CARTESIAN_POINT('',(0.22946791987163,0.00956253514969556,0.00521285736645746));
#1041=CARTESIAN_POINT('',(0.229294988304955,0.00959277625399817,0.00516964030911789));
#1042=CARTESIAN_POINT('',(0.229102524357463,0.00961447376622365,0.0050548162883937));
#1043=CARTESIAN_POINT('',(0.229004823462487,0.00962208643449022,0.00497802810257553));
#1044=CARTESIAN_POINT('',(0.228922820931614,0.00962507424238189,0.00489598386449625));
#1045=CARTESIAN_POINT('',(0.228918379694493,0.0096252187355608,0.00488952516000814));
#1046=CARTESIAN_POINT('',(0.228868603539302,0.00962672535741304,0.00483161635484441));
#1047=CARTESIAN_POINT('',(0.228768559735297,0.00962564720312519,0.00469273239404735));
#1048=CARTESIAN_POINT('',(0.228661595161615,0.00960075397582293,0.00445358401402672));
#1049=CARTESIAN_POINT('',(0.228649183450587,0.009555983161047,0.00424568648824413));
#1050=CARTESIAN_POINT('',(0.228649183450588,0.009555983161047,0.00424568648824413));
#1051=CARTESIAN_POINT('',(0.228661448831555,0.00960022614239093,0.00445113296941012));
#1052=CARTESIAN_POINT('',(0.22883526074729,0.0096527143986211,0.00493333326930146));
#1053=CARTESIAN_POINT('',(0.229303217002115,0.0095949894888432,0.005200004162835));
#1054=CARTESIAN_POINT('',(0.229580487733159,0.00954035389950919,0.00522164201999636));
#1055=CARTESIAN_POINT('',(0.228670754320562,0.00963379237059989,0.0042327130219905));
#1056=CARTESIAN_POINT('',(0.228685940378902,0.00967524937860848,0.0044397175342672));
#1057=CARTESIAN_POINT('',(0.22886576540484,0.00971573163527219,0.00491767535357874));
#1058=CARTESIAN_POINT('',(0.229321533275071,0.00965488783345732,0.00517498108521901));
#1059=CARTESIAN_POINT('',(0.229593343789,0.00960240964340341,0.00519706548776104));
#1060=CARTESIAN_POINT('',(0.228781892725786,0.00976979279002251,0.00420688491551146));
#1061=CARTESIAN_POINT('',(0.228797436655848,0.00980177366115196,0.00440266473262669));
#1062=CARTESIAN_POINT('',(0.228961934138146,0.00981704027612009,0.00484856807369373));
#1063=CARTESIAN_POINT('',(0.229371585024744,0.00975399476116494,0.00508276659184702));
#1064=CARTESIAN_POINT('',(0.229619003336597,0.00970858038224973,0.00510335317312186));
#1065=CARTESIAN_POINT('',(0.228958717715933,0.00978232449690885,0.00419735446611705));
#1066=CARTESIAN_POINT('',(0.228967685623098,0.00980687801108034,0.00436098923667494));
#1067=CARTESIAN_POINT('',(0.22908640353222,0.00982113635112859,0.00474113565318323));
#1068=CARTESIAN_POINT('',(0.229425811297494,0.00976935820415137,0.00494602715229829));
#1069=CARTESIAN_POINT('',(0.229633269303427,0.00973230958162679,0.00496212271120781));
#1070=CARTESIAN_POINT('',(0.229035962851237,0.00975548479116589,0.00419819447617443));
#1071=CARTESIAN_POINT('',(0.229042213168342,0.0097782763764317,0.00434525398507379));
#1072=CARTESIAN_POINT('',(0.229141909683572,0.00979861322427436,0.00469125529317465));
#1073=CARTESIAN_POINT('',(0.229448105591745,0.00975440270754389,0.00488126422714517));
#1074=CARTESIAN_POINT('',(0.229635966314663,0.00972085662849413,0.00489517679681643));
#1075=CARTESIAN_POINT('',(0.229580487732528,0.00954035389963337,0.00522164201994718));
#1076=CARTESIAN_POINT('',(0.229606199844235,0.00966446538741199,0.00517248895547451));
#1077=CARTESIAN_POINT('',(0.229630572291675,0.00974376253485162,0.00502906862555765));
#1078=CARTESIAN_POINT('',(0.229635966314236,0.00972085662857037,0.00489517679678481));
#1079=CARTESIAN_POINT('',(0.229635966314665,0.00972085662849397,0.00489517679681721));
#1080=CARTESIAN_POINT('',(0.229635966314663,0.00972085662849413,0.00489517679681643));
#1081=CARTESIAN_POINT('',(0.22947158818211,0.00975020944766267,0.00488300329835408));
#1082=CARTESIAN_POINT('',(0.229160533947107,0.00979649662244213,0.00471465467419328));
#1083=CARTESIAN_POINT('',(0.22904325488786,0.009782074973976,0.00436976390322368));
#1084=CARTESIAN_POINT('',(0.229035962851237,0.00975548479116589,0.00419819447617443));
#1085=CARTESIAN_POINT('',(0.228994080353242,0.00990189973642866,0.00496341758920549));
#1086=CARTESIAN_POINT('',(0.22882510309209,0.00917921899238376,0.000364540127101584));
#1087=CARTESIAN_POINT('',(0.228656125830936,0.00845653824833886,-0.00423433733500232));
#1088=CARTESIAN_POINT('',(0.228487148569783,0.00773385750429396,-0.00883321479710623));
#1089=CARTESIAN_POINT('',(0.229412212013048,0.00973761745045622,0.00498923337700116));
#1090=CARTESIAN_POINT('',(0.229254735965066,0.00901493670641132,0.000390355914897252));
#1091=CARTESIAN_POINT('',(0.229098048829001,0.00829225596236642,-0.00420852154720665));
#1092=CARTESIAN_POINT('',(0.22894057278102,0.00756957521832152,-0.00880739900931056));
#1093=CARTESIAN_POINT('',(0.231399447148702,0.00944559706818502,0.00503512229421521));
#1094=CARTESIAN_POINT('',(0.231298151452679,0.00872291632414012,0.000436244832111303));
#1095=CARTESIAN_POINT('',(0.231196836900972,0.00800023558009522,-0.00416263262999261));
#1096=CARTESIAN_POINT('',(0.23109554120495,0.00727755483605032,-0.00876151009209652));
#1097=CARTESIAN_POINT('',(0.235442178056986,0.00936245687011383,0.00504818718248353));
#1098=CARTESIAN_POINT('',(0.235454639271785,0.00863977612606893,0.000449309720379625));
#1099=CARTESIAN_POINT('',(0.235467039038324,0.00791709538202402,-0.00414956774172427));
#1100=CARTESIAN_POINT('',(0.235479500253122,0.00719441463797913,-0.00874844520382818));
#1101=CARTESIAN_POINT('',(0.239099661009286,0.00952009860067975,0.00502341491053746));
#1102=CARTESIAN_POINT('',(0.239215005709791,0.00879741785663485,0.000424537448433558));
#1103=CARTESIAN_POINT('',(0.23933034965409,0.00807473711258995,-0.00417434001367036));
#1104=CARTESIAN_POINT('',(0.239445694354593,0.00735205636854505,-0.00877321747577426));
#1105=CARTESIAN_POINT('',(0.240587834804156,0.00973762657711714,0.00498923194281158));
#1106=CARTESIAN_POINT('',(0.240745309565233,0.00901494583307224,0.000390354480707678));
#1107=CARTESIAN_POINT('',(0.240902003226728,0.00829226508902734,-0.00420852298139623));
#1108=CARTESIAN_POINT('',(0.241059477987805,0.00756958434498244,-0.00880740044350013));
#1109=CARTESIAN_POINT('',(0.24100594461343,0.0099019095460128,0.00496341604769941));
#1110=CARTESIAN_POINT('',(0.241174922577024,0.0091792288019679,0.000364538585595503));
#1111=CARTESIAN_POINT('',(0.241343900540616,0.008456548057923,-0.0042343388765084));
#1112=CARTESIAN_POINT('',(0.241512878504209,0.0077338673138781,-0.00883321633861231));
#1113=CARTESIAN_POINT('',(0.240363818607682,0.00972199061598786,0.00489499153892024));
#1114=CARTESIAN_POINT('',(0.240527440542018,0.00975104881123868,0.0048829014290875));
#1115=CARTESIAN_POINT('',(0.240839913933024,0.00979677891817366,0.00471494146321878));
#1116=CARTESIAN_POINT('',(0.240956725948692,0.00978212600556167,0.00436962517382239));
#1117=CARTESIAN_POINT('',(0.24096401331559,0.00975555340092678,0.00419818282898333));
#1118=CARTESIAN_POINT('',(0.240364033685293,0.00972085662848611,0.00489517679681821));
#1119=CARTESIAN_POINT('',(0.229636149123483,0.00972181853876624,0.0048950196383406));
#1120=CARTESIAN_POINT('',(0.230189831131383,0.00962328256538173,0.00493596676814872));
#1121=CARTESIAN_POINT('',(0.231769809776456,0.00945583100720715,0.00500047489844895));
#1122=CARTESIAN_POINT('',(0.234997063080148,0.00936556578970239,0.00503375641318391));
#1123=CARTESIAN_POINT('',(0.238229477525648,0.00945566226104468,0.00500050088634651));
#1124=CARTESIAN_POINT('',(0.239810068305958,0.00962364815076643,0.00493590843675594));
#1125=CARTESIAN_POINT('',(0.240363818607659,0.00972199061598387,0.00489499153892189));
#1126=CARTESIAN_POINT('',(0.240364033685306,0.00972085662848866,0.0048951767968187));
#1127=CARTESIAN_POINT('',(0.239873447187343,0.00963325314658285,0.00493150860011791));
#1128=CARTESIAN_POINT('',(0.238849749566883,0.00952545167285009,0.00497485257394192));
#1129=CARTESIAN_POINT('',(0.237316596939225,0.00943419895940166,0.00501169512996254));
#1130=CARTESIAN_POINT('',(0.235261368827258,0.0093810187989348,0.00503292994115312));
#1131=CARTESIAN_POINT('',(0.233195306457395,0.00940470704800704,0.00502357471538163));
#1132=CARTESIAN_POINT('',(0.23115174751234,0.00952486650194832,0.00497510633030095));
#1133=CARTESIAN_POINT('',(0.23012688322911,0.0096331941444849,0.00493153307006563));
#1134=CARTESIAN_POINT('',(0.229635966314664,0.00972085662849402,0.00489517679681647));
#1135=CARTESIAN_POINT('',(0.240367115983862,0.00973394571778312,0.00497168641326596));
#1136=CARTESIAN_POINT('',(0.239875591459457,0.009645712741014,0.00500786181211614));
#1137=CARTESIAN_POINT('',(0.23885119188574,0.00953769983839173,0.00505112880793626));
#1138=CARTESIAN_POINT('',(0.237317340256208,0.00944619802974067,0.00508789514074604));
#1139=CARTESIAN_POINT('',(0.235261441038277,0.00939297100881315,0.0051091058460835));
#1140=CARTESIAN_POINT('',(0.23319478510389,0.00941663673805964,0.00509975240600073));
#1141=CARTESIAN_POINT('',(0.231150308777295,0.00953710549948324,0.00505138052068272));
#1142=CARTESIAN_POINT('',(0.230124739588769,0.00964565331494295,0.00500788617672339));
#1143=CARTESIAN_POINT('',(0.229632884016108,0.00973394571778852,0.00497168641326375));
#1144=CARTESIAN_POINT('',(0.240382748726189,0.00970285330031741,0.00511359595424703));
#1145=CARTESIAN_POINT('',(0.239885952744988,0.00961330292879989,0.00514940662565523));
#1146=CARTESIAN_POINT('',(0.238858260053858,0.00950497213440703,0.00519244447753605));
#1147=CARTESIAN_POINT('',(0.237320825173282,0.00941302077303359,0.00522900848709674));
#1148=CARTESIAN_POINT('',(0.235261731681382,0.00935975538054059,0.00525013908140868));
#1149=CARTESIAN_POINT('',(0.23319243738528,0.00938334045024257,0.00524080498892721));
#1150=CARTESIAN_POINT('',(0.231143287741401,0.00950435860126765,0.00519269225482249));
#1151=CARTESIAN_POINT('',(0.230114381853634,0.00961324261544609,0.00514943074461374));
#1152=CARTESIAN_POINT('',(0.229617251273781,0.00970285330032289,0.00511359595424484));
#1153=CARTESIAN_POINT('',(0.240408492790375,0.00959354453712728,0.00520057642093969));
#1154=CARTESIAN_POINT('',(0.23990296853739,0.00950280447310176,0.00523651067956653));
#1155=CARTESIAN_POINT('',(0.238869845848536,0.00939435351457174,0.00527946265866825));
#1156=CARTESIAN_POINT('',(0.237326548451416,0.00930208263126009,0.0053160046701266));
#1157=CARTESIAN_POINT('',(0.235262225393731,0.00924886352374102,0.00533708226882939));
#1158=CARTESIAN_POINT('',(0.23318856762918,0.00927232561225759,0.00532778932331095));
#1159=CARTESIAN_POINT('',(0.231131773578791,0.00939372037148493,0.00527971317212267));
#1160=CARTESIAN_POINT('',(0.230097371939837,0.00950274335847434,0.00523653488176268));
#1161=CARTESIAN_POINT('',(0.229591507209594,0.00959354453713283,0.00520057642093749));
#1162=CARTESIAN_POINT('',(0.24041951226681,0.00954035389950365,0.00522164201999856));
#1163=CARTESIAN_POINT('',(0.239910254515283,0.0094491554721202,0.00525776020906131));
#1164=CARTESIAN_POINT('',(0.238874805814627,0.00934067196107077,0.00530072397581356));
#1165=CARTESIAN_POINT('',(0.237328999798126,0.00924828597317955,0.00533731248586949));
#1166=CARTESIAN_POINT('',(0.235262437402307,0.00919509144890093,0.00535837962419766));
#1167=CARTESIAN_POINT('',(0.233186909325621,0.00921850229048082,0.00534910800376997));
#1168=CARTESIAN_POINT('',(0.231126844010916,0.00934003121397729,0.0053009777370387));
#1169=CARTESIAN_POINT('',(0.230090088476505,0.00944909404877901,0.00525778453513703));
#1170=CARTESIAN_POINT('',(0.229580487733159,0.00954035389950923,0.00522164201999635));
#1171=CARTESIAN_POINT('',(0.240419512266527,0.00954035389945295,0.00522164202001864));
#1172=CARTESIAN_POINT('',(0.240393800154851,0.00966446538724202,0.0051724889555477));
#1173=CARTESIAN_POINT('',(0.240369427707506,0.00974376253470466,0.00502906862562145));
#1174=CARTESIAN_POINT('',(0.240364033685033,0.00972085662843996,0.0048951767968389));
#1175=CARTESIAN_POINT('',(0.24041951226681,0.00954035389950307,0.00522164201999878));
#1176=CARTESIAN_POINT('',(0.229580487733159,0.00954035389950923,0.00522164201999635));
#1177=CARTESIAN_POINT('',(0.230090088476505,0.00944909404877901,0.00525778453513703));
#1178=CARTESIAN_POINT('',(0.231126844010916,0.00934003121397729,0.0053009777370387));
#1179=CARTESIAN_POINT('',(0.233186909325621,0.00921850229048082,0.00534910800376997));
#1180=CARTESIAN_POINT('',(0.235262437402307,0.00919509144890093,0.00535837962419766));
#1181=CARTESIAN_POINT('',(0.237328999798126,0.00924828597317955,0.00533731248586949));
#1182=CARTESIAN_POINT('',(0.238874805814627,0.00934067196107077,0.00530072397581356));
#1183=CARTESIAN_POINT('',(0.239910254515283,0.0094491554721202,0.00525776020906131));
#1184=CARTESIAN_POINT('',(0.24041951226681,0.00954035389950365,0.00522164201999856));
#1185=CARTESIAN_POINT('',(0.244,-1.11022302462517E-18,0.009));
#1186=CARTESIAN_POINT('',(0.242321696148307,0.00267890489851803,0.00793904756494336));
#1187=CARTESIAN_POINT('',(0.242321696148307,0.00231069065332668,0.0070093065958352));
#1188=CARTESIAN_POINT('',(0.241350816549413,0.00955598316104594,0.00424568648823916));
#1189=CARTESIAN_POINT('',(0.241338452686518,0.00960058138077319,0.00445278255253778));
#1190=CARTESIAN_POINT('',(0.241232203391887,0.00962542572708146,0.00469099375759432));
#1191=CARTESIAN_POINT('',(0.241133492156653,0.00962664375999926,0.00482894553389825));
#1192=CARTESIAN_POINT('',(0.241084020025191,0.0096251598238866,0.00488685687157852));
#1193=CARTESIAN_POINT('',(0.241080988479977,0.00962513956319874,0.00489196200044582));
#1194=CARTESIAN_POINT('',(0.240995729099897,0.00962177043883714,0.00497784788324821));
#1195=CARTESIAN_POINT('',(0.240901420828018,0.0096143308687172,0.00505207322934079));
#1196=CARTESIAN_POINT('',(0.240709690194983,0.00959313201494255,0.0051681730575868));
#1197=CARTESIAN_POINT('',(0.240535100333006,0.00956313027439487,0.00521262167351127));
#1198=CARTESIAN_POINT('',(0.24041951226681,0.00954035389950308,0.00522164201999878));
#1199=CARTESIAN_POINT('',(0.24041951226681,0.00954035389950307,0.00522164201999878));
#1200=CARTESIAN_POINT('',(0.24062746285434,0.00958133010661865,0.00520541381916864));
#1201=CARTESIAN_POINT('',(0.241105250565115,0.00964933472339931,0.0049992689278831));
#1202=CARTESIAN_POINT('',(0.241334462901643,0.00961497310478919,0.00451961188833672));
#1203=CARTESIAN_POINT('',(0.241350816549413,0.00955598316104593,0.00424568648823916));
#1204=CARTESIAN_POINT('',(0.24040665621097,0.00960240964339753,0.00519706548776351));
#1205=CARTESIAN_POINT('',(0.240610511684123,0.00964176782019961,0.00518050238186068));
#1206=CARTESIAN_POINT('',(0.241075764045071,0.00971048516723193,0.00498109527130802));
#1207=CARTESIAN_POINT('',(0.241308997841253,0.00968906772718445,0.00450871577231535));
#1208=CARTESIAN_POINT('',(0.241329245679438,0.00963379237059889,0.00423271302198549));
#1209=CARTESIAN_POINT('',(0.240380996663375,0.00970858038224509,0.00510335317312442));
#1210=CARTESIAN_POINT('',(0.24056655820145,0.00974264076338346,0.00508791341987839));
#1211=CARTESIAN_POINT('',(0.240985731280709,0.00980884736945671,0.00490633819711672));
#1212=CARTESIAN_POINT('',(0.24119738227938,0.00981243344694697,0.00446792158272019));
#1213=CARTESIAN_POINT('',(0.241218107274214,0.00976979279002265,0.0042068849155066));
#1214=CARTESIAN_POINT('',(0.24036673069655,0.00973230958162264,0.00496212271120961));
#1215=CARTESIAN_POINT('',(0.240522322359829,0.00976009571971323,0.00495005118487942));
#1216=CARTESIAN_POINT('',(0.240872287377288,0.0098150263189741,0.00479203108972014));
#1217=CARTESIAN_POINT('',(0.241029325216007,0.00981506212840785,0.00441553157842261));
#1218=CARTESIAN_POINT('',(0.241041282284067,0.00978232449690825,0.00419735446611309));
#1219=CARTESIAN_POINT('',(0.240364033685316,0.00972085662849037,0.00489517679681799));
#1220=CARTESIAN_POINT('',(0.240504927560257,0.00974601589005964,0.00488474249304229));
#1221=CARTESIAN_POINT('',(0.240821609365788,0.00979435377997707,0.00473863707807795));
#1222=CARTESIAN_POINT('',(0.240955703491239,0.009785873211923,0.00439427150112054));
#1223=CARTESIAN_POINT('',(0.240964037148764,0.00975548479116534,0.00419819447617087));
#1224=CARTESIAN_POINT('',(0.226,-8.35415345262508E-19,-0.00775));
#1225=CARTESIAN_POINT('',(0.229091234707296,0.00647153631270408,-0.00775));
#1226=CARTESIAN_POINT('',(0.230067188583173,0.00630772080333454,-0.00775));
#1227=CARTESIAN_POINT('',(0.232038417228838,0.00617043637055844,-0.00774999999999999));
#1228=CARTESIAN_POINT('',(0.235000162499124,0.00609788291434345,-0.00775));
#1229=CARTESIAN_POINT('',(0.237963523666183,0.00617023263052012,-0.00775));
#1230=CARTESIAN_POINT('',(0.239931710950906,0.00630753752631723,-0.00775));
#1231=CARTESIAN_POINT('',(0.240908765292704,0.0064715363127041,-0.00775));
#1232=CARTESIAN_POINT('',(0.229091234706084,0.00647153631317817,-0.00775));
#1233=CARTESIAN_POINT('',(0.240908765293916,0.00647153631317818,-0.00775));
#1234=CARTESIAN_POINT('',(0.22720456809553,-0.000333939670047872,-0.00775));
#1235=CARTESIAN_POINT('',(0.242153101453856,0.00198303802681148,-0.00775));
#1236=CARTESIAN_POINT('',(0.22720456809553,-0.00033393967004787,0.009));
#1237=CARTESIAN_POINT('',(0.229612077305086,0.00835028997870616,0.00434848702596183));
#1238=CARTESIAN_POINT('',(0.22943852509567,0.00772426236617132,0.00031562062874817));
#1239=CARTESIAN_POINT('',(0.229264907857228,0.00709800018439685,-0.00371720655311149));
#1240=CARTESIAN_POINT('',(0.229091234704867,0.00647153631337989,-0.00774999999835163));
#1241=CARTESIAN_POINT('',(0.229612077475577,0.00835029059369421,0.00434849025576923));
#1242=CARTESIAN_POINT('',(0.227657355380767,0.00129932875170006,0.00714095386457946));
#1243=CARTESIAN_POINT('',(0.244,-0.000460267806489185,0.00783782378861481));
#1244=CARTESIAN_POINT('',(0.240387920493643,0.00835028602364716,0.00434849553905587));
#1245=CARTESIAN_POINT('',(0.239497906738902,0.00821095631613958,0.00440367562123709));
#1246=CARTESIAN_POINT('',(0.237701875124792,0.00808465627467293,0.00445369543963972));
#1247=CARTESIAN_POINT('',(0.234999878410815,0.00802106493605641,0.00447888012820073));
#1248=CARTESIAN_POINT('',(0.232297283923634,0.00808498586180148,0.00445356491008386));
#1249=CARTESIAN_POINT('',(0.230502778721287,0.0082109256348323,0.00440368777224987));
#1250=CARTESIAN_POINT('',(0.229612080331608,0.00835029056511778,0.00434849374045364));
#1251=CARTESIAN_POINT('',(0.240387914280699,0.00835032032998131,0.00434848195238887));
#1252=CARTESIAN_POINT('',(0.242102358564406,0.00216607487804094,0.00679768807196921));
#1253=CARTESIAN_POINT('',(0.233016151616335,0.00769224000820739,0.00201960542770992));
#1254=CARTESIAN_POINT('',(0.233016060468921,0.00769098079706989,0.00201159274498232));
#1255=CARTESIAN_POINT('',(0.233015969321508,0.00768972158593239,0.00200358006225472));
#1256=CARTESIAN_POINT('',(0.233015878174094,0.00768846237479488,0.00199556737952712));
#1257=CARTESIAN_POINT('',(0.233000709155718,0.00747890078550823,0.000662073355503874));
#1258=CARTESIAN_POINT('',(0.232985531723257,0.00726933965043223,-0.000671420641964107));
#1259=CARTESIAN_POINT('',(0.232970346453405,0.00705977892882229,-0.00200491461318622));
#1260=CARTESIAN_POINT('',(0.234299001393973,0.00764750363473769,0.00202594129796448));
#1261=CARTESIAN_POINT('',(0.234298968916472,0.00764624452746305,0.0020179286317565));
#1262=CARTESIAN_POINT('',(0.234298936438972,0.00764498542018841,0.00200991596554853));
#1263=CARTESIAN_POINT('',(0.234298903961471,0.00764372631291376,0.00200190329934056));
#1264=CARTESIAN_POINT('',(0.234293498961121,0.00743418200878709,0.000668412024562293));
#1265=CARTESIAN_POINT('',(0.2342880937018,0.00722464023630579,-0.000665079467959746));
#1266=CARTESIAN_POINT('',(0.234282683912123,0.00701509563311203,-0.00199857075926137));
#1267=CARTESIAN_POINT('',(0.235700998606028,0.00764750363473769,0.00202594129796448));
#1268=CARTESIAN_POINT('',(0.235701031083528,0.00764624452746305,0.0020179286317565));
#1269=CARTESIAN_POINT('',(0.235701063561029,0.00764498542018841,0.00200991596554853));
#1270=CARTESIAN_POINT('',(0.235701096038529,0.00764372631291376,0.00200190329934056));
#1271=CARTESIAN_POINT('',(0.235706501038879,0.00743418200878709,0.000668412024562294));
#1272=CARTESIAN_POINT('',(0.2357119062982,0.00722464023630579,-0.000665079467959747));
#1273=CARTESIAN_POINT('',(0.235717316087877,0.00701509563311203,-0.00199857075926137));
#1274=CARTESIAN_POINT('',(0.236983848383665,0.00769224000820739,0.00201960542770992));
#1275=CARTESIAN_POINT('',(0.236983939531079,0.00769098079706989,0.00201159274498232));
#1276=CARTESIAN_POINT('',(0.236984030678492,0.00768972158593239,0.00200358006225472));
#1277=CARTESIAN_POINT('',(0.236984121825906,0.00768846237479488,0.00199556737952712));
#1278=CARTESIAN_POINT('',(0.236999290844282,0.00747890078550823,0.000662073355503874));
#1279=CARTESIAN_POINT('',(0.237014468276743,0.00726933965043223,-0.000671420641964107));
#1280=CARTESIAN_POINT('',(0.237029653546595,0.00705977892882229,-0.00200491461318622));
#1281=CARTESIAN_POINT('',(0.235549998256971,0.00765742393027608,0.002));
#1282=CARTESIAN_POINT('',(0.235183332752324,0.00765399795690053,0.002));
#1283=CARTESIAN_POINT('',(0.234816667247676,0.00765399795690053,0.002));
#1284=CARTESIAN_POINT('',(0.234450001743029,0.00765742393027608,0.002));
#1285=CARTESIAN_POINT('',(0.235549999157863,0.007657327512053,0.00199998205566536));
#1286=CARTESIAN_POINT('',(0.234450000842137,0.00765732751205301,0.00199998205566536));
#1287=CARTESIAN_POINT('',(0.23445,0.00743737841058721,0.000599972252668794));
#1288=CARTESIAN_POINT('',(0.234450000859173,0.00743738277155199,0.0006));
#1289=CARTESIAN_POINT('',(0.234450001718346,0.00743738277140611,0.0006));
#1290=CARTESIAN_POINT('',(0.233966533504027,0.00744182621690004,0.0006));
#1291=CARTESIAN_POINT('',(0.233483191385939,0.00745206522154789,0.0006));
#1292=CARTESIAN_POINT('',(0.233,0.00746914598043846,0.0006));
#1293=CARTESIAN_POINT('',(0.233,0.00746914598045716,0.0006));
#1294=CARTESIAN_POINT('',(0.233,0.00746914598047586,0.0006));
#1295=CARTESIAN_POINT('',(0.233,0.00728008608539993,-0.0006));
#1296=CARTESIAN_POINT('',(0.23300000000157,0.00728008612497632,-0.0006));
#1297=CARTESIAN_POINT('',(0.23348319584461,0.00726325593826113,-0.0006));
#1298=CARTESIAN_POINT('',(0.233966537067449,0.00725315869431297,-0.0006));
#1299=CARTESIAN_POINT('',(0.234450001707318,0.00724877723618103,-0.0006));
#1300=CARTESIAN_POINT('',(0.234450000827791,0.00724868018632423,-0.000600014535357747));
#1301=CARTESIAN_POINT('',(0.23445,0.00702873350798289,-0.00200002808919566));
#1302=CARTESIAN_POINT('',(0.234450000854056,0.00702873792256665,-0.002));
#1303=CARTESIAN_POINT('',(0.234450001708113,0.00702873792234518,-0.002));
#1304=CARTESIAN_POINT('',(0.234816667236038,0.00702546852206101,-0.002));
#1305=CARTESIAN_POINT('',(0.235183332763962,0.00702546852206101,-0.002));
#1306=CARTESIAN_POINT('',(0.235549998291887,0.00702873792234518,-0.002));
#1307=CARTESIAN_POINT('',(0.235549999145944,0.00702873792256665,-0.002));
#1308=CARTESIAN_POINT('',(0.23555,0.0072487726667772,-0.000600029074605895));
#1309=CARTESIAN_POINT('',(0.235549999236958,0.00724868018628329,-0.000600014539350614));
#1310=CARTESIAN_POINT('',(0.235549998357426,0.00724877723676777,-0.0006));
#1311=CARTESIAN_POINT('',(0.236033462975705,0.0072531586952243,-0.0006));
#1312=CARTESIAN_POINT('',(0.236516804176962,0.00726325593901253,-0.0006));
#1313=CARTESIAN_POINT('',(0.23699999999843,0.00728008612497632,-0.0006));
#1314=CARTESIAN_POINT('',(0.236999999999215,0.00728008610243912,-0.0006));
#1315=CARTESIAN_POINT('',(0.237,0.00728008607990193,-0.0006));
#1316=CARTESIAN_POINT('',(0.237,0.0074691459804713,0.0006));
#1317=CARTESIAN_POINT('',(0.237,0.00746914598043846,0.0006));
#1318=CARTESIAN_POINT('',(0.236516808614062,0.00745206522154791,0.0006));
#1319=CARTESIAN_POINT('',(0.236033466495972,0.00744182621690004,0.0006));
#1320=CARTESIAN_POINT('',(0.235549998281654,0.00743738277140611,0.0006));
#1321=CARTESIAN_POINT('',(0.235549999140827,0.00743738277155199,0.0006));
#1322=CARTESIAN_POINT('',(0.23555,0.00765741885400673,0.00199996769917632));
#1323=CARTESIAN_POINT('',(0.24279543190447,-0.00033393967004787,-0.009));
#1324=CARTESIAN_POINT('',(0.240908765295102,0.0064715363133706,-0.00774999999835415));
#1325=CARTESIAN_POINT('',(0.24073509212458,0.00709800024989729,-0.00371720656419279));
#1326=CARTESIAN_POINT('',(0.240561479198185,0.00772424687762359,0.000315623218277625));
#1327=CARTESIAN_POINT('',(0.24038792397881,0.0083502853475131,0.00434848780022432));
#1328=CARTESIAN_POINT('',(0.229472602863367,0.00839918261405824,0.0045004450455842));
#1329=CARTESIAN_POINT('',(0.229471816921677,0.00839519858747013,0.00447512970042897));
#1330=CARTESIAN_POINT('',(0.229471030979988,0.00839121456088201,0.00444981435527374));
#1331=CARTESIAN_POINT('',(0.229470245038299,0.00838723053429389,0.00442449901011851));
#1332=CARTESIAN_POINT('',(0.229343715658826,0.0077458389159744,0.00034896140054046));
#1333=CARTESIAN_POINT('',(0.229216813712389,0.00710454877722748,-0.00372658010744399));
#1334=CARTESIAN_POINT('',(0.229089607830913,0.0064633355585497,-0.00780212387396123));
#1335=CARTESIAN_POINT('',(0.229838503213686,0.00833452483861827,0.00450870966358971));
#1336=CARTESIAN_POINT('',(0.229837760532852,0.0083305431869891,0.00448339421640567));
#1337=CARTESIAN_POINT('',(0.229837017852018,0.00832656153535993,0.00445807876922164));
#1338=CARTESIAN_POINT('',(0.229836275171185,0.00832257988373076,0.0044327633220376));
#1339=CARTESIAN_POINT('',(0.229716710391326,0.00768157061194658,0.00035720928676048));
#1340=CARTESIAN_POINT('',(0.229596748762616,0.00704063041004866,-0.00371834724740114));
#1341=CARTESIAN_POINT('',(0.229476628514777,0.00639972940049933,-0.00779390166977109));
#1342=CARTESIAN_POINT('',(0.231103992230676,0.00817090935188252,0.00453090167272112));
#1343=CARTESIAN_POINT('',(0.231103418987907,0.00816693051619142,0.0045055863089603));
#1344=CARTESIAN_POINT('',(0.231102845745138,0.00816295168050032,0.00448027094519947));
#1345=CARTESIAN_POINT('',(0.23110227250237,0.00815897284480922,0.00445495558143864));
#1346=CARTESIAN_POINT('',(0.231009985691759,0.00751841691314092,0.000379414976530833));
#1347=CARTESIAN_POINT('',(0.230917580072937,0.00687789373769059,-0.00369612641453364));
#1348=CARTESIAN_POINT('',(0.230824993284217,0.00623736018727966,-0.00777166489821241));
#1349=CARTESIAN_POINT('',(0.234023476906284,0.00802117803996773,0.00455220098951925));
#1350=CARTESIAN_POINT('',(0.2340233329286,0.00801720015273606,0.00452688580898605));
#1351=CARTESIAN_POINT('',(0.234023188950916,0.00801322226550439,0.00450157062845285));
#1352=CARTESIAN_POINT('',(0.234023044973232,0.00800924437827272,0.00447625544791965));
#1353=CARTESIAN_POINT('',(0.233999865891076,0.00736884113984503,0.000400744340973522));
#1354=CARTESIAN_POINT('',(0.23397664959856,0.00672855440377234,-0.00367478148785328));
#1355=CARTESIAN_POINT('',(0.233953407536442,0.006088144653275,-0.0077502930895469));
#1356=CARTESIAN_POINT('',(0.237838530775112,0.00808375066074402,0.0045433205639631));
#1357=CARTESIAN_POINT('',(0.237838950436134,0.00807977233223933,0.00451800532147538));
#1358=CARTESIAN_POINT('',(0.237839370097155,0.00807579400373463,0.00449269007898766));
#1359=CARTESIAN_POINT('',(0.237839789758177,0.00807181567522994,0.00446737483649994));
#1360=CARTESIAN_POINT('',(0.23790735132077,0.00743134139590621,0.00039185375544644));
#1361=CARTESIAN_POINT('',(0.237975021132989,0.00679087813440058,-0.00368366797256314));
#1362=CARTESIAN_POINT('',(0.238042776295874,0.00615041031061258,-0.00775918881173152));
#1363=CARTESIAN_POINT('',(0.239795596116873,0.00826986897155366,0.00451697406914562));
#1364=CARTESIAN_POINT('',(0.239796295643226,0.00826588905875832,0.0044916585907493));
#1365=CARTESIAN_POINT('',(0.239796995169578,0.00826190914596298,0.00446634311235299));
#1366=CARTESIAN_POINT('',(0.239797694695931,0.00825792923316764,0.00444102763395668));
#1367=CARTESIAN_POINT('',(0.239910312001377,0.00761719989762877,0.000365468573790523));
#1368=CARTESIAN_POINT('',(0.240023290536628,0.00697679650160426,-0.00371012334216099));
#1369=CARTESIAN_POINT('',(0.240136350801358,0.00633612324244898,-0.00778567946558095));
#1370=CARTESIAN_POINT('',(0.240527397136633,0.00839918261405826,0.0045004450455842));
#1371=CARTESIAN_POINT('',(0.240528183078323,0.00839519858747014,0.00447512970042897));
#1372=CARTESIAN_POINT('',(0.240528969020012,0.00839121456088202,0.00444981435527374));
#1373=CARTESIAN_POINT('',(0.240529754961701,0.00838723053429391,0.00442449901011851));
#1374=CARTESIAN_POINT('',(0.240656284341174,0.00774583891597442,0.000348961400540456));
#1375=CARTESIAN_POINT('',(0.240783186287612,0.0071045487772275,-0.00372658010744399));
#1376=CARTESIAN_POINT('',(0.240910392169087,0.00646333555854972,-0.00780212387396123));
#1377=CARTESIAN_POINT('',(0.233803458040796,0.00688617161770704,-0.0028672352968573));
#1378=CARTESIAN_POINT('',(0.232136419900092,0.00722304166169235,-0.00118257849997666));
#1379=CARTESIAN_POINT('',(0.232128979752044,0.0075961160410807,0.00117017344491177));
#1380=CARTESIAN_POINT('',(0.233799543162772,0.00778718859945107,0.00286553374173845));
#1381=CARTESIAN_POINT('',(0.23619544383566,0.00778884896439062,0.00286876382570269));
#1382=CARTESIAN_POINT('',(0.237871479543502,0.00759585373851494,0.00117074221166218));
#1383=CARTESIAN_POINT('',(0.237863271522042,0.00722328003957047,-0.00117957696452934));
#1384=CARTESIAN_POINT('',(0.23620431876498,0.00688831170176422,-0.00286287500887675));
#1385=CARTESIAN_POINT('',(0.233803458040796,0.00688617161770704,-0.0028672352968573));
#1386=CARTESIAN_POINT('',(0.232136419900092,0.00722304166169235,-0.00118257849997666));
#1387=CARTESIAN_POINT('',(0.232128979752044,0.0075961160410807,0.00117017344491177));
#1388=CARTESIAN_POINT('',(0.232413019565535,0.00722907571759286,-0.00107122930864203));
#1389=CARTESIAN_POINT('',(0.235,-1.11022302462517E-18,1.41931920761739E-18));
#1390=CARTESIAN_POINT('',(0.23555,-1.11022302462517E-18,-0.0006));
#1391=CARTESIAN_POINT('',(0.23555,-1.11022302462517E-18,-0.002));
#1392=CARTESIAN_POINT('',(0.23555,-1.11022302462517E-18,-0.0006));
#1393=CARTESIAN_POINT('',(0.23555,-1.11022302462517E-18,-0.002));
#1394=CARTESIAN_POINT('',(0.23445,-1.11022302462517E-18,-0.002));
#1395=CARTESIAN_POINT('',(0.23445,-1.11022302462517E-18,-0.002));
#1396=CARTESIAN_POINT('',(0.23445,-1.11022302462517E-18,-0.0006));
#1397=CARTESIAN_POINT('',(0.23445,-1.11022302462517E-18,-0.0006));
#1398=CARTESIAN_POINT('',(0.233,-1.11022302462517E-18,-0.0006));
#1399=CARTESIAN_POINT('',(0.233,-1.11022302462517E-18,-0.0006));
#1400=CARTESIAN_POINT('',(0.233,-1.11022302462517E-18,0.0006));
#1401=CARTESIAN_POINT('',(0.233,-1.11022302462517E-18,0.0006));
#1402=CARTESIAN_POINT('',(0.23445,-1.11022302462517E-18,0.0006));
#1403=CARTESIAN_POINT('',(0.23445,-1.11022302462517E-18,0.0006));
#1404=CARTESIAN_POINT('',(0.23445,-1.11022302462517E-18,0.002));
#1405=CARTESIAN_POINT('',(0.23445,-1.11022302462517E-18,0.002));
#1406=CARTESIAN_POINT('',(0.23555,-1.11022302462517E-18,0.002));
#1407=CARTESIAN_POINT('',(0.23555,-1.11022302462517E-18,0.002));
#1408=CARTESIAN_POINT('',(0.23555,-1.11022302462517E-18,0.0006));
#1409=CARTESIAN_POINT('',(0.23555,-1.11022302462517E-18,0.0006));
#1410=CARTESIAN_POINT('',(0.237,-1.11022302462517E-18,0.0006));
#1411=CARTESIAN_POINT('',(0.237,-1.11022302462517E-18,0.0006));
#1412=CARTESIAN_POINT('',(0.237,-1.11022302462517E-18,-0.0006));
#1413=CARTESIAN_POINT('',(0.237,-1.11022302462517E-18,-0.0006));
#1414=CARTESIAN_POINT('',(0.235,-1.11022302462517E-18,2.42861286636752E-18));
#1415=CARTESIAN_POINT('',(0.2378,-1.11022302462517E-18,2.42861286636752E-18));
#1416=CARTESIAN_POINT('',(0.23555,-1.11022302462517E-18,0.0006));
#1417=CARTESIAN_POINT('',(0.23555,-1.11022302462517E-18,-0.002));
#1418=CARTESIAN_POINT('',(0.23555,-1.11022302462517E-18,-0.0006));
#1419=CARTESIAN_POINT('',(0.233,-1.11022302462517E-18,-0.0006));
#1420=CARTESIAN_POINT('',(0.237,-1.11022302462517E-18,-0.0006));
#1421=CARTESIAN_POINT('',(0.237,-1.11022302462517E-18,-0.0006));
#1422=CARTESIAN_POINT('',(0.237,-1.11022302462517E-18,0.0006));
#1423=CARTESIAN_POINT('',(0.23445,-1.11022302462517E-18,0.0006));
#1424=CARTESIAN_POINT('',(0.23555,-1.11022302462517E-18,0.0006));
#1425=CARTESIAN_POINT('',(0.23555,-1.11022302462517E-18,0.0006));
#1426=CARTESIAN_POINT('',(0.23555,-1.11022302462517E-18,0.002));
#1427=CARTESIAN_POINT('',(0.23445,-1.11022302462517E-18,-0.002));
#1428=CARTESIAN_POINT('',(0.23445,-1.11022302462517E-18,-0.002));
#1429=CARTESIAN_POINT('',(0.235,-1.11022302462517E-18,2.42861286636752E-18));
#1430=CARTESIAN_POINT('',(0.23555,-1.11022302462517E-18,0.002));
#1431=CARTESIAN_POINT('',(0.23445,-1.11022302462517E-18,0.002));
#1432=CARTESIAN_POINT('',(0.23445,-1.11022302462517E-18,0.002));
#1433=CARTESIAN_POINT('',(0.23445,-1.11022302462517E-18,0.0006));
#1434=CARTESIAN_POINT('',(0.23445,-1.11022302462517E-18,0.0006));
#1435=CARTESIAN_POINT('',(0.233,-1.11022302462517E-18,0.0006));
#1436=CARTESIAN_POINT('',(0.233,-1.11022302462517E-18,0.0006));
#1437=CARTESIAN_POINT('',(0.233,-1.11022302462517E-18,-0.0006));
#1438=CARTESIAN_POINT('',(0.233,-1.11022302462517E-18,-0.0006));
#1439=CARTESIAN_POINT('',(0.23445,-1.11022302462517E-18,-0.0006));
#1440=CARTESIAN_POINT('',(0.23445,-1.11022302462517E-18,0.002));
#1441=MECHANICAL_DESIGN_GEOMETRIC_PRESENTATION_REPRESENTATION('',(#641),
#1442);
#1442=(
GEOMETRIC_REPRESENTATION_CONTEXT(3)
GLOBAL_UNCERTAINTY_ASSIGNED_CONTEXT((#1443))
GLOBAL_UNIT_ASSIGNED_CONTEXT((#1446,#1445,#1444))
REPRESENTATION_CONTEXT('1x1 R1 v23','TOP_LEVEL_ASSEMBLY_PART')
);
#1443=UNCERTAINTY_MEASURE_WITH_UNIT(LENGTH_MEASURE(2.E-5),#1446,
'DISTANCE_ACCURACY_VALUE','Maximum Tolerance applied to model');
#1444=(
NAMED_UNIT(*)
SI_UNIT($,.STERADIAN.)
SOLID_ANGLE_UNIT()
);
#1445=(
NAMED_UNIT(*)
PLANE_ANGLE_UNIT()
SI_UNIT($,.RADIAN.)
);
#1446=(
LENGTH_UNIT()
NAMED_UNIT(*)
SI_UNIT($,.METRE.)
);
#1447=PRODUCT_DEFINITION_SHAPE('','',#1448);
#1448=PRODUCT_DEFINITION('','',#1450,#1449);
#1449=PRODUCT_DEFINITION_CONTEXT('',#1456,'design');
#1450=PRODUCT_DEFINITION_FORMATION_WITH_SPECIFIED_SOURCE('','',#1452,
 .NOT_KNOWN.);
#1451=PRODUCT_RELATED_PRODUCT_CATEGORY('','',(#1452));
#1452=PRODUCT('1x1 R1 v23','1x1 R1 v23','1x1 R1 v23',(#1454));
#1453=PRODUCT_CATEGORY('','');
#1454=PRODUCT_CONTEXT('',#1456,'mechanical');
#1455=APPLICATION_PROTOCOL_DEFINITION('international standard',
'ap242_managed_model_based_3d_engineering',2020,#1456);
#1456=APPLICATION_CONTEXT('managed model based 3d engineering');
ENDSEC;
END-ISO-10303-21;
